<svg version="1.1" id="Layer_1" xmlns="http://www.w3.org/2000/svg" xmlns:xlink="http://www.w3.org/1999/xlink" x="0px" y="0px"
	 width="100%" viewBox="0 0 1905 605" enable-background="new 0 0 1905 605" xml:space="preserve">
<path fill="#0E0E0E" opacity="1.000000" stroke="none" 
	d="
M2.000000,1.000000 
	C636.609802,1.000000 1271.219604,1.000000 1905.914673,1.000000 
	C1905.914673,202.591660 1905.914673,404.183380 1905.914673,606.000000 
	C1271.631714,606.000000 637.263489,606.000000 2.445930,605.538757 
	C1.997732,403.718353 1.998866,202.359177 2.000000,1.000000 
M1435.032471,451.910583 
	C1427.088867,437.875061 1418.896484,423.971680 1411.332153,409.734711 
	C1408.565918,404.528351 1405.186890,403.649261 1400.237427,405.083160 
	C1400.237427,425.067871 1400.237427,444.835724 1400.237427,464.858337 
	C1402.706665,464.858337 1404.960083,464.858337 1407.337769,464.858337 
	C1407.337769,448.617981 1407.337769,432.642090 1407.337769,415.904938 
	C1408.023682,416.954803 1408.379883,417.438751 1408.673462,417.958038 
	C1416.611328,431.998993 1424.784790,445.915100 1432.345459,460.156433 
	C1435.037354,465.226685 1438.302124,465.994995 1443.192871,464.548248 
	C1443.192871,444.627594 1443.192871,424.878540 1443.192871,404.868896 
	C1440.760254,404.868896 1438.541138,404.868896 1436.589600,404.868896 
	C1436.589600,420.633972 1436.589600,436.077911 1436.046265,451.962891 
	C1435.867920,452.113190 1435.689453,452.263519 1435.032471,451.910583 
M239.977600,241.458771 
	C299.719208,213.054825 359.456909,184.642639 419.206573,156.255554 
	C428.588837,151.798050 434.731934,155.523590 434.735382,165.763412 
	C434.764771,253.089066 434.738464,340.414703 434.760864,427.740356 
	C434.763306,437.346741 430.864288,444.057251 421.873291,448.285828 
	C396.542847,460.199158 371.395691,472.502319 346.182800,484.665222 
	C344.769531,485.346954 343.414642,486.149689 341.469513,487.200226 
	C355.543121,497.040680 368.858765,506.469604 382.367523,515.613159 
	C383.714569,516.524902 386.540924,516.348083 388.168091,515.584351 
	C412.151062,504.327515 435.996307,492.777313 459.983032,481.528625 
	C474.061859,474.926208 480.675598,463.987457 480.670105,448.601471 
	C480.632141,342.277496 480.659363,235.953491 480.584717,129.629578 
	C480.581940,125.670143 480.268402,121.565727 479.211578,117.776573 
	C473.686035,97.964775 452.571808,89.235695 432.949005,98.589279 
	C339.093048,143.327515 245.270889,188.136642 151.377182,232.795456 
	C147.484406,234.646973 146.123520,236.821106 146.167084,241.112701 
	C146.386902,262.775208 146.266983,284.441193 146.266342,306.105957 
	C146.263901,388.265411 146.285141,470.424866 146.181824,552.584167 
	C146.177170,556.280334 147.185013,558.694153 150.180237,560.968140 
	C159.599548,568.119324 168.767166,575.601990 178.034424,582.953552 
	C182.391617,586.410034 186.753845,589.860168 192.259460,594.220581 
	C192.259460,590.562073 192.259506,588.469788 192.259460,586.377502 
	C192.257050,480.720123 192.276505,375.062744 192.164825,269.405487 
	C192.160736,265.543365 193.178696,263.503815 196.815277,261.849884 
	C211.071579,255.366013 225.156021,248.504242 239.977600,241.458771 
M128.904297,232.514206 
	C129.017426,225.697433 127.594879,219.693970 136.747986,215.389847 
	C228.870758,172.070404 320.648773,128.018143 412.597961,84.328171 
	C416.660492,82.397835 417.422516,80.169655 416.574280,76.195015 
	C411.979248,54.663616 389.798187,44.290279 368.831726,54.260944 
	C274.799622,98.978210 180.821442,143.808945 86.781929,188.510666 
	C83.798683,189.928741 82.675751,191.536987 82.678764,194.900772 
	C82.770775,297.876007 82.769501,400.851410 82.673248,503.826630 
	C82.670174,507.109192 83.965919,509.005035 86.362648,510.849518 
	C96.526779,518.671570 106.598663,526.613464 116.704697,534.511047 
	C120.439461,537.429626 124.175499,540.346619 128.904282,544.040222 
	C128.904282,439.630280 128.904282,336.569458 128.904297,232.514206 
M55.902534,486.580200 
	C58.718281,488.721954 61.534027,490.863739 65.066711,493.550842 
	C65.066711,490.366821 65.066757,488.376312 65.066704,486.385773 
	C65.064049,384.887390 65.111488,283.388885 64.914413,181.890869 
	C64.904305,176.681046 66.643166,174.435806 71.131149,172.304871 
	C163.716934,128.344254 256.208344,84.184830 348.791656,40.218975 
	C352.898071,38.268929 353.928375,36.212429 353.085571,31.857395 
	C349.057037,11.041181 326.287262,-0.147661 306.279083,9.361727 
	C211.915741,54.210346 117.606407,99.172623 23.237303,144.009125 
	C20.258118,145.424606 19.162525,147.034546 19.165798,150.402832 
	C19.263920,251.401138 19.259628,352.399536 19.172836,453.397888 
	C19.170076,456.610443 20.262291,458.593109 22.723171,460.493500 
	C33.669090,468.946350 44.486069,477.566193 55.902534,486.580200 
M417.060486,344.500000 
	C417.060486,290.311829 417.060486,236.123672 417.060486,181.022125 
	C413.837921,182.449142 411.718719,183.336121 409.643036,184.315353 
	C398.490692,189.576614 387.433533,195.051666 376.158569,200.034485 
	C372.167389,201.798340 370.957794,204.050537 370.968201,208.326523 
	C371.109802,266.486420 370.953125,324.647186 371.157288,382.806732 
	C371.193909,393.240875 367.169037,399.977631 357.648315,404.399628 
	C332.866913,415.909485 308.298126,427.877350 283.653107,439.680328 
	C281.953125,440.494476 280.323486,441.455505 278.687836,442.333862 
	C279.162018,443.231293 279.239441,443.623657 279.475861,443.790039 
	C292.556335,452.993530 305.602875,462.247498 318.821014,471.249420 
	C320.044250,472.082520 322.640106,471.884979 324.138367,471.183258 
	C350.846100,458.674042 377.432831,445.906006 404.161865,433.443085 
	C413.281006,429.191162 417.242004,422.463593 417.136078,412.491821 
	C416.898895,390.163483 417.061035,367.830872 417.060486,344.500000 
M1900.340820,279.500244 
	C1900.340942,253.346375 1900.349243,227.192520 1900.328735,201.038666 
	C1900.326538,198.210617 1900.338745,195.362701 1900.029907,192.558624 
	C1899.222534,185.229065 1893.541748,180.345688 1886.040039,180.330109 
	C1878.700928,180.314865 1872.804199,185.410400 1871.966309,192.562256 
	C1871.821533,193.797668 1871.945679,195.064575 1871.945679,197.213242 
	C1870.111328,195.664764 1868.993652,194.752701 1867.909912,193.801804 
	C1848.796997,177.032730 1820.482300,175.584763 1800.002686,190.550797 
	C1782.800903,203.121521 1774.936646,220.602478 1773.850952,241.522888 
	C1772.725220,263.212860 1778.452148,282.293854 1794.683350,297.556549 
	C1815.974121,317.576874 1849.160889,316.773346 1869.288452,295.660950 
	C1869.883545,295.036621 1870.611816,294.539246 1872.125610,293.274811 
	C1871.845581,298.989288 1871.849609,303.619690 1871.347412,308.194550 
	C1870.237427,318.305420 1864.567261,324.990692 1855.077637,328.316559 
	C1846.421387,331.350189 1837.428345,332.222961 1828.526001,329.975922 
	C1820.638306,327.985016 1813.001953,325.014771 1805.208130,322.629303 
	C1798.497925,320.575500 1792.953369,323.067932 1789.823853,329.294098 
	C1785.435059,338.025970 1788.841919,346.426147 1799.441040,350.064484 
	C1819.257080,356.866760 1839.538818,360.138153 1860.275513,354.215759 
	C1881.610718,348.122467 1896.185913,335.267487 1899.122437,312.376953 
	C1900.469971,301.872131 1899.991333,291.132996 1900.340820,279.500244 
M238.349213,415.106689 
	C243.406525,418.625885 248.585190,421.986450 253.473373,425.726654 
	C256.190796,427.805908 258.366333,427.990387 261.515839,426.475769 
	C287.478180,413.990753 313.471985,401.566254 339.602264,389.437927 
	C349.365021,384.906616 353.830017,377.864502 353.794739,367.105896 
	C353.630402,316.975830 353.719727,266.844910 353.718323,216.714294 
	C353.718262,215.111115 353.718323,213.507935 353.718323,211.335266 
	C351.743744,212.115463 350.360352,212.578278 349.048401,213.193466 
	C336.533447,219.061905 324.081024,225.067596 311.489410,230.765976 
	C308.270721,232.222595 307.215790,234.023102 307.230133,237.537506 
	C307.368195,271.345978 307.189392,305.155914 307.386169,338.963806 
	C307.445557,349.165222 303.251556,355.810364 293.972839,360.122437 
	C269.058014,371.701050 244.319992,383.660156 219.517883,395.481018 
	C217.926498,396.239502 216.387222,397.107361 214.293915,398.201141 
	C222.536957,403.989929 230.152817,409.338257 238.349213,415.106689 
M756.547791,183.909409 
	C752.272461,180.138504 747.291565,179.408844 742.058777,181.067307 
	C735.858337,183.032425 733.257507,188.069443 732.286621,194.590256 
	C730.775391,193.470612 729.728882,192.722275 728.710754,191.937088 
	C704.493042,173.258911 670.503967,177.347687 651.465088,201.233246 
	C632.716675,224.754562 631.567383,263.062897 648.869019,287.772827 
	C664.856506,310.606018 693.169800,318.447083 717.690491,306.472198 
	C722.935303,303.910828 727.542175,300.043274 732.469543,296.759735 
	C734.757629,306.172180 740.274475,310.566437 748.541992,309.641846 
	C756.345947,308.769073 761.053650,302.913330 761.064331,293.762909 
	C761.102417,261.128113 761.209290,228.492004 760.902100,195.860016 
	C760.866028,192.033875 758.419495,188.230423 756.547791,183.909409 
M1221.868408,268.496002 
	C1220.190430,264.642151 1218.512573,260.788330 1216.460205,256.074554 
	C1219.571411,256.074554 1221.362305,256.074524 1223.153076,256.074524 
	C1245.975342,256.074280 1268.797607,256.074463 1291.619873,256.072815 
	C1293.119141,256.072723 1294.623291,256.135925 1296.116699,256.038605 
	C1304.983887,255.460892 1310.041870,249.990570 1309.905151,241.052185 
	C1309.765137,231.906357 1307.281494,223.349930 1303.282593,215.171921 
	C1287.795776,183.499542 1252.363525,171.219345 1221.866821,187.526108 
	C1201.430420,198.453506 1191.275391,216.548981 1189.108765,239.213669 
	C1187.356689,257.542694 1190.671997,274.695953 1202.564941,289.472046 
	C1224.033691,316.145264 1266.394531,318.277802 1292.143433,301.140747 
	C1294.863892,299.330078 1297.381348,296.941162 1299.347046,294.333588 
	C1302.264648,290.463043 1302.662720,285.989319 1300.098022,281.669189 
	C1297.476318,277.252625 1293.392700,274.833618 1288.357178,275.893890 
	C1284.388062,276.729584 1280.428467,278.377808 1276.901733,280.419739 
	C1257.930908,291.402954 1234.945679,286.751923 1221.868408,268.496002 
M943.077576,196.746414 
	C943.068359,180.581589 943.089661,164.416656 943.034241,148.251999 
	C943.013367,142.180710 940.266357,137.580505 934.673706,135.186554 
	C929.199585,132.843323 923.864197,133.501617 919.271484,137.527222 
	C915.451904,140.875229 914.661316,145.345032 914.666748,150.215027 
	C914.719971,197.876953 914.696411,245.538971 914.699341,293.200958 
	C914.699402,294.366638 914.698853,295.536560 914.790405,296.697266 
	C915.437683,304.908325 921.843811,310.352905 930.049438,309.690948 
	C937.847900,309.061890 943.006165,303.309570 943.046875,294.750153 
	C943.138794,275.419159 943.037842,256.087280 943.113892,236.756149 
	C943.126282,233.609772 943.381897,230.415604 943.970947,227.328583 
	C946.619446,213.449142 958.475708,205.542145 974.769470,206.620331 
	C986.637329,207.405670 993.538574,215.013840 993.983887,229.636124 
	C994.637878,251.109268 994.508484,272.606506 994.690308,294.093658 
	C994.770935,303.622772 999.943420,309.575165 1008.398315,309.786133 
	C1016.926514,309.998962 1023.004333,303.816101 1023.031616,294.358276 
	C1023.096069,272.029053 1023.189697,249.694626 1022.753357,227.372452 
	C1022.621277,220.618179 1021.409424,213.728348 1019.626282,207.191345 
	C1013.356079,184.205597 988.798706,173.646881 965.340088,183.434357 
	C957.645264,186.644852 951.188232,191.464783 945.727234,197.719696 
	C944.967224,198.590271 943.707092,201.565277 943.077576,196.746414 
M1656.076538,234.374298 
	C1648.316284,185.173004 1594.056152,166.833069 1557.302979,190.367798 
	C1535.905273,204.069687 1527.207642,224.566956 1527.891235,249.539917 
	C1528.983887,289.449463 1563.972778,318.134369 1603.290649,311.273865 
	C1639.760986,304.910217 1662.250366,272.617645 1656.076538,234.374298 
M1054.191162,194.239487 
	C1054.097656,195.568024 1053.923340,196.896515 1053.922485,198.225082 
	C1053.903931,230.205475 1053.902588,262.185852 1053.906372,294.166260 
	C1053.906494,294.997589 1053.962036,295.832764 1054.051880,296.659637 
	C1054.884277,304.326324 1060.449951,309.576355 1067.925415,309.762329 
	C1075.402222,309.948334 1081.205444,304.973602 1082.289917,297.299835 
	C1082.614380,295.003815 1082.702759,292.658600 1082.706421,290.335602 
	C1082.737305,271.180695 1082.578735,252.024307 1082.767334,232.871231 
	C1082.915894,217.781357 1094.616211,206.852081 1110.396729,206.605682 
	C1127.515503,206.338409 1135.520142,213.646576 1135.943726,231.192337 
	C1136.446167,251.998322 1136.212524,272.821869 1136.321289,293.637695 
	C1136.373413,303.591034 1141.970459,309.846985 1150.706299,309.792419 
	C1159.132812,309.739807 1164.815308,303.412354 1164.903809,293.870789 
	C1164.965576,287.208771 1164.992188,280.544617 1164.898560,273.883331 
	C1164.651001,256.241669 1164.768555,238.578873 1163.878418,220.968079 
	C1163.309937,209.721298 1160.263672,198.878555 1151.833740,190.546478 
	C1141.189819,180.026398 1120.269043,176.577423 1105.079346,183.856033 
	C1097.059082,187.699173 1090.031738,193.614212 1082.881836,198.376770 
	C1080.992676,187.858093 1077.514404,183.508087 1069.765747,182.755066 
	C1062.309448,182.030487 1057.347534,185.485275 1054.191162,194.239487 
M1362.360718,266.500427 
	C1362.359497,256.337799 1362.266602,246.173843 1362.410156,236.013245 
	C1362.456787,232.714996 1362.707153,229.311203 1363.576294,226.151459 
	C1367.701050,211.155807 1383.039673,203.316940 1399.968506,207.349060 
	C1407.246216,209.082458 1412.275513,213.501724 1413.983032,220.750839 
	C1415.229004,226.040787 1415.900879,231.577057 1415.966431,237.013916 
	C1416.197510,256.169891 1415.963257,275.330994 1416.092651,294.488861 
	C1416.167969,305.626770 1425.261230,312.336090 1435.288086,308.935974 
	C1441.299438,306.897491 1444.672363,301.712433 1444.697266,293.992493 
	C1444.758423,275.000519 1444.883301,256.006073 1444.635132,237.017151 
	C1444.537476,229.555267 1443.977661,222.032074 1442.810913,214.666275 
	C1440.719727,201.462769 1435.586304,189.469955 1422.361572,184.148026 
	C1404.761719,177.065552 1387.727783,178.984375 1372.454956,190.960266 
	C1369.153320,193.549225 1366.214233,196.600540 1362.669312,199.840027 
	C1362.468384,198.240753 1362.342163,197.280624 1362.227905,196.319092 
	C1361.158203,187.325363 1355.368896,182.176025 1346.952026,182.734634 
	C1338.930542,183.267014 1333.911255,189.100281 1333.905762,198.031998 
	C1333.885742,230.185394 1333.812988,262.339325 1334.021973,294.491394 
	C1334.043335,297.774994 1335.184814,301.445496 1336.927368,304.236725 
	C1339.984619,309.133453 1346.196411,310.798737 1352.008667,309.250122 
	C1357.472168,307.794434 1361.721558,303.354187 1361.984619,297.470734 
	C1362.430786,287.494995 1362.267700,277.492004 1362.360718,266.500427 
M805.385071,195.885956 
	C790.264099,210.059769 784.593445,228.000595 784.990356,248.153198 
	C785.346924,266.257843 790.734314,282.578156 803.877014,295.610291 
	C819.449341,311.051483 838.721802,313.955566 859.419800,311.238342 
	C869.066956,309.971832 878.372192,307.383118 886.515991,301.742218 
	C890.939026,298.678467 894.311462,294.857086 893.756775,288.956085 
	C892.744080,278.184418 882.155640,273.766357 872.380798,279.492340 
	C867.770569,282.192932 862.553284,284.682343 857.352600,285.403412 
	C837.564453,288.147095 822.493713,279.388306 816.168762,262.360992 
	C809.405029,244.152283 815.121582,222.565277 829.286865,212.823410 
	C841.714233,204.276794 858.931213,204.486160 871.395935,213.271927 
	C876.067139,216.564438 881.161987,217.673126 886.445007,214.996552 
	C890.630554,212.876007 893.007812,206.353836 892.069885,200.503204 
	C890.980896,193.710220 886.233765,189.873993 880.651428,186.885086 
	C858.718994,175.141968 824.815674,179.044815 805.385071,195.885956 
M559.600586,285.685516 
	C561.239014,296.264679 566.541138,304.328308 577.003784,307.391357 
	C589.296387,310.990082 601.678894,311.910980 612.638794,303.035706 
	C613.022949,302.724579 613.327148,302.312164 613.656921,301.936707 
	C617.120361,297.993591 617.636780,291.982788 614.898621,287.518860 
	C612.346008,283.357635 608.559082,282.229950 602.622864,283.863403 
	C591.893677,286.815735 587.391479,283.506073 587.370911,272.541138 
	C587.335510,253.714005 587.357117,234.886734 587.354675,216.059525 
	C587.354492,214.595505 587.354614,213.131485 587.354614,211.054901 
	C593.463196,211.054901 599.085510,211.166000 604.701477,211.025162 
	C610.916809,210.869293 615.479187,207.396347 617.043640,201.937027 
	C619.510498,193.328690 613.684082,185.412033 604.457825,185.090454 
	C598.879700,184.896027 593.289307,185.054672 587.353088,185.054672 
	C587.353088,179.780182 587.408142,175.300339 587.341736,170.822296 
	C587.202026,161.400238 581.692017,155.333725 573.375122,155.357956 
	C564.737610,155.383118 559.001404,161.549927 558.908142,170.969879 
	C558.862610,175.567856 558.900269,180.166626 558.900269,185.045990 
	C555.035217,185.045990 551.885925,185.011047 548.737671,185.052704 
	C540.130066,185.166565 534.680115,190.167938 534.701599,197.893570 
	C534.724121,205.992584 540.095215,210.959137 548.972839,211.055359 
	C552.216858,211.090515 555.461548,211.061005 558.897949,211.061005 
	C558.897949,225.390274 558.830872,238.877853 558.919128,252.364395 
	C558.989929,263.183838 559.249084,274.002014 559.600586,285.685516 
M1742.411743,206.733765 
	C1743.848999,207.155746 1745.265381,207.678680 1746.727173,207.982941 
	C1754.736816,209.649948 1761.049072,206.398788 1763.126465,199.594193 
	C1765.552612,191.647186 1762.505615,184.786209 1754.624878,181.860580 
	C1751.457275,180.684692 1747.771484,180.280380 1744.371826,180.462418 
	C1730.337646,181.213882 1718.718018,186.879196 1710.174805,199.006195 
	C1709.804321,197.428528 1709.538574,196.485641 1709.364624,195.526123 
	C1707.826416,187.041260 1702.200806,182.248047 1694.296387,182.707550 
	C1686.464111,183.162857 1681.056763,188.870117 1680.959839,197.326462 
	C1680.801392,211.156418 1680.904541,224.989395 1680.902710,238.821106 
	C1680.900269,257.485626 1680.792114,276.151093 1680.944702,294.814362 
	C1681.037720,306.203247 1691.412476,313.043549 1701.324463,308.428680 
	C1708.241089,305.208435 1709.715088,299.041351 1709.715576,292.181854 
	C1709.716797,274.517212 1709.341553,256.840668 1709.905151,239.194046 
	C1710.117310,232.551117 1711.509644,225.554611 1714.107300,219.462769 
	C1719.094482,207.767258 1729.841797,203.236160 1742.411743,206.733765 
M1539.342651,415.924011 
	C1538.991577,414.129364 1538.653198,412.332153 1538.287354,410.540527 
	C1536.896973,403.728241 1536.518188,403.504028 1529.284668,405.385132 
	C1533.530396,425.300903 1537.778564,445.227539 1542.019043,465.118652 
	C1543.472290,465.118652 1544.329956,464.983673 1545.130371,465.140778 
	C1549.890259,466.074890 1552.012329,464.019012 1552.742065,459.334930 
	C1553.482178,454.585052 1554.897949,449.939606 1556.035645,445.252777 
	C1558.378662,435.599945 1560.733887,425.949982 1563.266479,415.549347 
	C1566.934570,430.251984 1570.393188,444.078094 1573.830688,457.909515 
	C1575.663086,465.283112 1575.646851,465.292633 1583.146484,465.079010 
	C1583.616455,465.065613 1584.081299,464.866241 1584.976440,464.650024 
	C1589.070435,444.855499 1593.187012,424.951630 1597.363525,404.757965 
	C1594.434326,404.757965 1592.328369,404.757965 1589.895874,404.757965 
	C1586.721313,421.402344 1583.572510,437.911774 1580.423706,454.421204 
	C1579.324219,453.576965 1579.042480,452.723724 1578.827148,451.854095 
	C1575.391235,437.972900 1571.986572,424.083923 1568.524048,410.209412 
	C1566.957275,403.931763 1566.906860,403.944336 1559.766724,405.148804 
	C1555.624634,421.675629 1551.447388,438.342285 1546.933350,456.353088 
	C1544.299561,442.138092 1541.946289,429.437195 1539.342651,415.924011 
M742.119629,444.289673 
	C738.118164,433.191345 734.117981,422.092529 730.114868,410.994781 
	C727.465576,403.650085 726.868103,403.341980 719.264771,405.233276 
	C719.264771,425.175232 719.264771,445.070953 719.264771,464.817200 
	C721.592163,464.817200 723.528259,464.817200 725.532532,464.817200 
	C725.532532,448.305908 725.532532,432.079102 725.532532,415.166565 
	C730.502197,428.706329 735.179382,441.659058 740.071777,454.529999 
	C740.730225,456.262360 742.472778,457.582672 743.713318,459.093781 
	C745.087036,457.520813 747.033142,456.168884 747.740051,454.338348 
	C751.810913,443.797546 755.576050,433.138916 759.478943,422.532776 
	C760.065430,420.938873 760.831299,419.410950 761.514160,417.852509 
	C761.728394,417.934143 761.942627,418.015808 762.156860,418.097443 
	C762.156860,433.637207 762.156860,449.176971 762.156860,464.801697 
	C764.500854,464.801697 766.558960,464.801697 768.777100,464.801697 
	C768.777100,444.639618 768.777100,424.780243 768.777100,404.812439 
	C765.692749,404.812439 762.940125,404.812439 760.016296,404.812439 
	C754.814575,419.375366 749.673645,433.767822 744.209717,449.064728 
	C743.326965,447.065430 742.876770,446.045898 742.119629,444.289673 
M1002.823975,452.223267 
	C1002.347778,448.021149 1002.985413,443.194397 1001.078735,439.794434 
	C999.213440,436.468170 994.754456,434.596344 991.401550,432.061615 
	C997.833862,428.990631 1001.006470,423.594269 999.595337,416.081177 
	C998.366211,409.537140 993.198181,405.553253 984.272583,404.935852 
	C976.686890,404.411133 969.036133,404.827484 961.312744,404.827484 
	C961.312744,424.959167 961.312744,444.854919 961.312744,464.546417 
	C970.079590,464.546417 978.575195,465.021210 986.990173,464.401703 
	C994.196533,463.871155 999.913086,460.205444 1002.823975,452.223267 
M1681.670532,412.663696 
	C1681.670532,430.085205 1681.670532,447.506714 1681.670532,464.871277 
	C1684.565063,464.871277 1686.682373,464.871277 1689.433105,464.871277 
	C1689.433105,455.443207 1689.433105,446.229218 1689.433105,436.902588 
	C1698.986694,436.902588 1707.900635,436.902588 1717.447510,436.902588 
	C1717.447510,446.364105 1717.447510,455.577789 1717.447510,464.838867 
	C1720.342529,464.838867 1722.599243,464.838867 1725.075928,464.838867 
	C1725.075928,444.683868 1725.075928,424.796478 1725.075928,404.941803 
	C1722.356079,404.941803 1719.950806,404.941803 1717.007202,404.941803 
	C1717.007202,413.379913 1717.007202,421.449768 1717.007202,429.361572 
	C1707.562012,429.361572 1698.667847,429.361572 1689.384277,429.361572 
	C1689.384277,421.017365 1689.384277,413.078278 1689.384277,404.917023 
	C1686.615967,404.917023 1684.261597,404.917023 1681.670532,404.917023 
	C1681.670532,407.422821 1681.670532,409.570801 1681.670532,412.663696 
M1235.572510,404.551361 
	C1232.327148,404.551361 1229.081787,404.551361 1226.092651,404.551361 
	C1226.092651,425.200684 1226.092651,445.078247 1226.092651,464.853821 
	C1228.638062,464.853821 1230.748169,464.853821 1233.484375,464.853821 
	C1233.484375,456.401764 1233.484375,448.189575 1233.484375,440.178711 
	C1240.776733,438.476257 1245.879395,439.565857 1248.716187,446.880859 
	C1250.561646,451.639496 1253.681396,455.904388 1256.234863,460.387848 
	C1259.369019,465.890961 1260.435181,466.275665 1267.128418,464.138580 
	C1262.325073,455.794189 1257.551147,447.501099 1252.637573,438.965271 
	C1253.968750,438.351501 1254.854614,437.962128 1255.724365,437.539062 
	C1263.567261,433.723816 1267.067993,427.002869 1265.764648,418.277527 
	C1264.626465,410.659149 1259.526611,406.030792 1250.507202,405.026520 
	C1245.892090,404.512604 1241.200439,404.687714 1235.572510,404.551361 
M647.362610,446.006592 
	C646.104553,443.732819 644.846436,441.459076 643.605652,439.216675 
	C646.256470,437.623779 648.687683,436.490662 650.732544,434.869995 
	C655.942688,430.740479 657.181824,425.010529 656.473328,418.739075 
	C655.773621,412.545654 652.568481,407.371185 646.501282,406.396637 
	C636.653137,404.814728 626.578857,404.640717 616.546570,403.868256 
	C616.546570,425.099152 616.546570,444.850128 616.546570,464.867096 
	C619.081482,464.867096 621.337341,464.867096 624.152039,464.867096 
	C624.152039,456.468903 624.152039,448.231842 624.152039,440.143768 
	C631.303162,438.595184 636.517700,439.426422 639.335815,446.844116 
	C641.085388,451.449280 644.648865,455.347229 646.561890,459.912994 
	C648.910461,465.518188 652.732056,465.881897 658.096008,464.564484 
	C654.541748,458.386200 651.157776,452.503906 647.362610,446.006592 
M824.286316,409.199188 
	C809.266479,397.806854 790.080566,403.476624 784.331177,421.143860 
	C781.189148,430.799042 781.357910,440.587524 785.084290,450.025940 
	C788.633362,459.015381 795.128418,464.900330 805.088867,465.966003 
	C815.050354,467.031799 823.031494,463.474701 828.743408,455.105011 
	C836.411621,443.869019 836.734253,420.062439 824.286316,409.199188 
M1313.647217,463.223419 
	C1327.756348,455.544586 1330.389771,434.802856 1325.560547,420.896942 
	C1321.693848,409.762817 1312.602905,403.246277 1301.442993,403.379486 
	C1289.879150,403.517517 1281.228149,410.179596 1277.662720,421.889618 
	C1275.072754,430.395660 1275.086670,438.988556 1277.738892,447.465179 
	C1282.802979,463.651062 1297.355347,470.242676 1313.647217,463.223419 
M1471.464478,404.551056 
	C1467.691040,404.551056 1463.917480,404.551056 1460.168945,404.551056 
	C1460.168945,425.031311 1460.168945,444.931213 1460.168945,464.825043 
	C1466.938965,464.825043 1473.448120,465.259705 1479.877930,464.729889 
	C1491.426392,463.778259 1499.164551,456.986115 1502.261230,445.795502 
	C1504.395630,438.082794 1504.361938,430.325836 1502.118774,422.647430 
	C1499.472290,413.588593 1493.567017,407.680695 1484.309937,405.654175 
	C1480.453735,404.810028 1476.395264,404.890869 1471.464478,404.551056 
M1209.159180,412.500671 
	C1208.603271,411.083832 1208.456909,409.162567 1207.428467,408.327698 
	C1196.366333,399.346283 1178.154663,402.827942 1170.382202,415.544006 
	C1163.859985,426.214233 1163.609009,437.730682 1167.783936,449.175537 
	C1173.694336,465.377716 1193.696045,471.527649 1207.933350,461.762909 
	C1209.415771,460.746185 1211.172485,458.834656 1211.241089,457.269958 
	C1211.580444,449.516205 1211.395752,441.739471 1211.395752,433.856079 
	C1204.427490,433.856079 1198.030884,433.856079 1191.254395,433.856079 
	C1191.356323,436.075256 1191.442871,437.958191 1191.553589,440.368286 
	C1195.991211,440.368286 1199.881836,440.368286 1204.014526,440.368286 
	C1204.014526,445.071686 1204.301025,449.249573 1203.868408,453.351532 
	C1203.703369,454.915588 1202.211060,456.965240 1200.773438,457.667603 
	C1191.686035,462.107605 1180.406860,458.123077 1176.235352,448.883453 
	C1172.223267,439.997070 1171.959839,430.789978 1175.808228,421.750458 
	C1180.636475,410.409241 1193.572266,406.669800 1203.591309,413.809509 
	C1206.065552,415.572693 1207.292603,415.122528 1209.159180,412.500671 
M1120.668213,404.536133 
	C1117.550293,404.066833 1117.213867,405.822083 1117.225342,408.386536 
	C1117.305176,426.205750 1117.262207,444.025543 1117.282959,461.845093 
	C1117.284058,462.794617 1117.506592,463.743835 1117.650391,464.887543 
	C1120.166382,464.887543 1122.426636,464.887543 1125.315918,464.887543 
	C1124.391846,453.168427 1123.698853,441.550140 1135.908203,434.602661 
	C1140.814209,443.091400 1145.811768,451.729126 1150.799683,460.372528 
	C1153.981812,465.886932 1155.029541,466.277954 1161.648071,464.189911 
	C1155.349731,453.362366 1149.237671,442.484497 1142.714355,431.859253 
	C1140.669800,428.529022 1141.017090,426.436951 1143.473389,423.641052 
	C1148.672729,417.722992 1153.516602,411.492767 1158.697021,405.157227 
	C1153.249878,403.591827 1149.729980,404.795258 1146.560547,408.992676 
	C1140.947876,416.426025 1134.721802,423.395020 1128.802002,430.599152 
	C1127.933105,431.656586 1127.337280,432.938232 1126.614990,434.116119 
	C1126.115723,433.734833 1125.616577,433.353546 1125.117310,432.972260 
	C1125.117310,424.695251 1125.003052,416.415771 1125.179810,408.142548 
	C1125.240845,405.282684 1124.333862,404.125977 1120.668213,404.536133 
M1348.109131,418.507660 
	C1348.109131,414.039276 1348.109131,409.570892 1348.109131,404.895355 
	C1345.364136,404.895355 1342.976929,404.895355 1340.868652,404.895355 
	C1340.868652,419.192535 1340.219482,433.175293 1341.062988,447.067352 
	C1341.809692,459.364868 1349.501099,465.811035 1361.280151,466.119843 
	C1373.672607,466.444672 1381.885620,460.687988 1382.917358,448.232666 
	C1384.102783,433.924255 1383.192505,419.442261 1383.192505,404.923218 
	C1381.275391,404.923218 1379.075562,404.923218 1376.661255,404.923218 
	C1376.661255,411.767029 1376.756226,418.242371 1376.636108,424.713715 
	C1376.500488,432.023438 1376.679077,439.390747 1375.807861,446.623016 
	C1374.501953,457.464355 1364.109619,462.835266 1355.200073,457.608704 
	C1349.285522,454.138977 1348.370605,448.046478 1348.172241,441.968384 
	C1347.928223,434.488007 1348.110840,426.993683 1348.109131,418.507660 
M688.498047,465.124329 
	C694.150208,465.124329 699.802429,465.124329 705.696411,465.124329 
	C705.696411,462.857758 705.696411,460.911591 705.696411,458.519043 
	C696.503662,458.519043 687.412720,458.519043 678.241882,458.519043 
	C678.241882,450.993042 678.241882,443.915710 678.241882,436.349548 
	C685.939819,436.349548 693.340149,436.349548 700.689331,436.349548 
	C700.689331,434.078949 700.689331,432.305511 700.689331,429.954895 
	C693.064697,429.954895 685.675232,429.954895 678.139404,429.954895 
	C678.139404,423.424652 678.139404,417.476166 678.139404,411.053467 
	C687.077271,411.053467 695.827698,411.053467 704.644714,411.053467 
	C704.644714,408.664032 704.644714,406.761200 704.644714,404.783295 
	C693.067505,404.783295 681.786438,404.783295 670.296936,404.783295 
	C670.296936,424.922424 670.296936,444.820923 670.296936,465.124176 
	C676.210266,465.124176 681.855530,465.124176 688.498047,465.124329 
M1023.050293,418.363617 
	C1017.874695,433.716858 1012.699097,449.070068 1007.504700,464.479004 
	C1012.825134,466.083038 1016.018982,465.244049 1017.002014,459.719635 
	C1017.579468,456.474548 1019.085144,453.404633 1019.838806,450.177795 
	C1020.486450,447.404541 1021.854309,446.245941 1024.702515,446.626709 
	C1026.173828,446.823395 1027.694092,446.630493 1029.190918,446.666809 
	C1033.663940,446.775299 1039.282349,445.320557 1042.284302,447.484924 
	C1045.241821,449.617310 1045.610107,455.406311 1047.003296,459.627625 
	C1049.057251,465.851410 1049.015259,465.865265 1056.287231,464.557770 
	C1056.287231,464.100983 1056.411255,463.589722 1056.269409,463.167877 
	C1049.970215,444.436249 1043.688599,425.698334 1037.223267,407.024017 
	C1036.844727,405.930634 1035.056885,404.909210 1033.757324,404.627808 
	C1029.703613,403.750000 1026.744629,404.787933 1025.916992,409.570770 
	C1025.441162,412.320099 1024.202271,414.937347 1023.050293,418.363617 
M1783.505005,409.880707 
	C1782.888916,408.176392 1782.272705,406.472076 1781.659302,404.775055 
	C1778.674194,404.775055 1775.905029,404.775055 1772.911255,404.775055 
	C1766.126953,424.774597 1759.386353,444.645050 1752.599609,464.651520 
	C1760.156128,465.542328 1760.153809,465.541565 1762.207642,459.184753 
	C1762.666870,457.763733 1763.162964,456.354584 1763.616821,454.931885 
	C1766.259644,446.644653 1766.257935,446.578613 1774.857300,446.670837 
	C1779.299316,446.718475 1784.811768,445.530304 1787.863647,447.691925 
	C1790.669067,449.679047 1790.856812,455.398254 1792.138794,459.491791 
	C1794.167358,465.968597 1794.435425,466.124542 1801.944214,464.294250 
	C1795.882080,446.382050 1789.829346,428.497742 1783.505005,409.880707 
M901.616821,404.553009 
	C899.148987,404.553009 896.681152,404.553009 894.181702,404.553009 
	C894.181702,424.919037 894.181702,444.822937 894.181702,464.812347 
	C906.058838,464.812347 917.627380,464.812347 929.412476,464.812347 
	C929.412476,462.654938 929.412476,460.792206 929.412476,458.407471 
	C920.009155,458.407471 910.930298,458.407471 901.656555,458.407471 
	C901.656555,450.980560 901.656555,444.079559 901.656555,436.561096 
	C909.280762,436.561096 916.667358,436.561096 924.433228,436.561096 
	C924.319275,434.029785 924.234009,432.136292 924.128662,429.797058 
	C916.325562,429.797058 909.062073,429.797058 901.735718,429.797058 
	C901.735718,423.410767 901.735718,417.503326 901.735718,411.033020 
	C910.794250,411.033020 919.532532,411.033020 928.377319,411.033020 
	C928.377319,408.597656 928.377319,406.738770 928.377319,404.553070 
	C919.535339,404.553070 911.060913,404.553070 901.616821,404.553009 
M868.287964,435.688232 
	C866.334656,442.402405 864.381348,449.116608 862.428040,455.830811 
	C856.916443,440.747772 852.477722,425.835205 848.067810,410.914154 
	C846.006836,403.940735 846.032166,403.933258 838.530212,404.982452 
	C838.468506,405.284027 838.281494,405.625488 838.362915,405.881500 
	C844.357971,424.717529 850.452942,443.522339 856.315002,462.399506 
	C857.341980,465.706696 859.564636,465.112701 861.796143,465.107910 
	C864.024292,465.103119 866.201172,465.688965 867.205444,462.331818 
	C870.918152,449.920563 875.017151,437.625122 878.944763,425.277802 
	C881.082581,418.557037 883.167419,411.819397 885.309753,404.982025 
	C877.716125,404.118164 877.723450,404.120331 875.817871,410.579468 
	C873.420898,418.704285 871.010620,426.825165 868.287964,435.688232 
M1064.600586,451.812134 
	C1073.530640,470.836761 1098.791382,469.251099 1105.531494,457.097198 
	C1104.345947,455.567261 1103.168823,454.048218 1101.983521,452.518677 
	C1091.080200,463.837158 1074.657104,460.683075 1070.404785,444.535919 
	C1068.262939,436.402374 1068.527222,428.333221 1072.083252,420.612396 
	C1075.798340,412.546417 1084.177368,408.457611 1092.318726,410.934143 
	C1095.231201,411.820068 1097.816040,413.783203 1100.750122,415.362152 
	C1101.957886,413.920715 1103.192139,412.447479 1104.382812,411.026367 
	C1093.145264,399.072296 1073.944214,401.656525 1065.842041,415.983582 
	C1059.417358,427.344177 1059.680908,439.195190 1064.600586,451.812134 
M1474.206299,298.813171 
	C1475.176270,303.076477 1477.201782,306.546295 1481.418701,308.348816 
	C1495.308960,314.286407 1506.743774,306.293365 1505.675049,291.377136 
	C1505.568359,289.889130 1505.367432,288.394592 1505.052490,286.937164 
	C1503.965454,281.906738 1500.957520,278.407043 1495.876221,277.584015 
	C1481.964478,275.330627 1472.993896,278.545959 1473.915283,294.966888 
	C1473.971069,295.962738 1474.027954,296.958496 1474.206299,298.813171 
M1644.840820,412.498566 
	C1644.840820,429.914612 1644.840820,447.330688 1644.840820,464.847748 
	C1647.673828,464.847748 1649.940796,464.847748 1652.753906,464.847748 
	C1652.753906,446.878540 1652.753906,429.158295 1652.753906,411.010376 
	C1659.049805,411.010376 1664.805786,411.010376 1670.635010,411.010376 
	C1670.635010,408.668365 1670.635010,406.768097 1670.635010,404.874756 
	C1655.775757,404.874756 1641.213379,404.874756 1626.279053,404.874756 
	C1626.382935,407.091888 1626.470825,408.967743 1626.591431,411.540314 
	C1632.947632,411.540314 1638.728760,411.540314 1644.840820,412.498566 
M1615.747803,461.036530 
	C1615.747803,442.334778 1615.747803,423.633026 1615.747803,404.782166 
	C1612.806396,404.782166 1610.541748,404.782166 1608.076782,404.782166 
	C1608.076782,424.899506 1608.076782,444.786682 1608.076782,465.198303 
	C1610.770996,463.799927 1615.216919,468.187592 1615.747803,461.036530 
M1818.344849,445.499756 
	C1818.344849,431.940643 1818.344849,418.381531 1818.344849,404.797485 
	C1815.449463,404.797485 1813.339600,404.797485 1811.162354,404.797485 
	C1811.162354,424.982880 1811.162354,444.963745 1811.162354,464.715942 
	C1813.729492,464.715942 1815.818726,464.715942 1818.344849,464.715942 
	C1818.344849,458.417328 1818.344849,452.458466 1818.344849,445.499756 
z"/>
<path fill="#3B3B3B" opacity="1.000000" stroke="none" 
	d="
M1.500000,1.000000 
	C1.998866,202.359177 1.997732,403.718353 1.998291,605.538818 
	C1.666651,605.833374 1.056173,605.684082 1.044441,605.497253 
	C0.961014,604.169128 1.000000,602.833313 1.000000,601.500000 
	C1.000000,401.333344 1.000000,201.166672 1.500000,1.000000 
z"/>
<path fill="#0087C1" opacity="1.000000" stroke="none" 
	d="
M239.640961,241.620819 
	C225.156021,248.504242 211.071579,255.366013 196.815277,261.849884 
	C193.178696,263.503815 192.160736,265.543365 192.164825,269.405487 
	C192.276505,375.062744 192.257050,480.720123 192.259460,586.377502 
	C192.259506,588.469788 192.259460,590.562073 192.259460,594.220581 
	C186.753845,589.860168 182.391617,586.410034 178.034424,582.953552 
	C168.767166,575.601990 159.599548,568.119324 150.180237,560.968140 
	C147.185013,558.694153 146.177170,556.280334 146.181824,552.584167 
	C146.285141,470.424866 146.263901,388.265411 146.266342,306.105957 
	C146.266983,284.441193 146.386902,262.775208 146.167084,241.112701 
	C146.123520,236.821106 147.484406,234.646973 151.377182,232.795456 
	C245.270889,188.136642 339.093048,143.327515 432.949005,98.589279 
	C452.571808,89.235695 473.686035,97.964775 479.211578,117.776573 
	C480.268402,121.565727 480.581940,125.670143 480.584717,129.629578 
	C480.659363,235.953491 480.632141,342.277496 480.670105,448.601471 
	C480.675598,463.987457 474.061859,474.926208 459.983032,481.528625 
	C435.996307,492.777313 412.151062,504.327515 388.168091,515.584351 
	C386.540924,516.348083 383.714569,516.524902 382.367523,515.613159 
	C368.858765,506.469604 355.543121,497.040680 341.469513,487.200226 
	C343.414642,486.149689 344.769531,485.346954 346.182800,484.665222 
	C371.395691,472.502319 396.542847,460.199158 421.873291,448.285828 
	C430.864288,444.057251 434.763306,437.346741 434.760864,427.740356 
	C434.738464,340.414703 434.764771,253.089066 434.735382,165.763412 
	C434.731934,155.523590 428.588837,151.798050 419.206573,156.255554 
	C359.456909,184.642639 299.719208,213.054825 239.640961,241.620819 
z"/>
<path fill="#DB0073" opacity="1.000000" stroke="none" 
	d="
M128.904297,233.011414 
	C128.904282,336.569458 128.904282,439.630280 128.904282,544.040222 
	C124.175499,540.346619 120.439461,537.429626 116.704697,534.511047 
	C106.598663,526.613464 96.526779,518.671570 86.362648,510.849518 
	C83.965919,509.005035 82.670174,507.109192 82.673248,503.826630 
	C82.769501,400.851410 82.770775,297.876007 82.678764,194.900772 
	C82.675751,191.536987 83.798683,189.928741 86.781929,188.510666 
	C180.821442,143.808945 274.799622,98.978210 368.831726,54.260944 
	C389.798187,44.290279 411.979248,54.663616 416.574280,76.195015 
	C417.422516,80.169655 416.660492,82.397835 412.597961,84.328171 
	C320.648773,128.018143 228.870758,172.070404 136.747986,215.389847 
	C127.594879,219.693970 129.017426,225.697433 128.904297,233.011414 
z"/>
<path fill="#F5CE32" opacity="1.000000" stroke="none" 
	d="
M55.626095,486.352936 
	C44.486069,477.566193 33.669090,468.946350 22.723171,460.493500 
	C20.262291,458.593109 19.170076,456.610443 19.172836,453.397888 
	C19.259628,352.399536 19.263920,251.401138 19.165798,150.402832 
	C19.162525,147.034546 20.258118,145.424606 23.237303,144.009125 
	C117.606407,99.172623 211.915741,54.210346 306.279083,9.361727 
	C326.287262,-0.147661 349.057037,11.041181 353.085571,31.857395 
	C353.928375,36.212429 352.898071,38.268929 348.791656,40.218975 
	C256.208344,84.184830 163.716934,128.344254 71.131149,172.304871 
	C66.643166,174.435806 64.904305,176.681046 64.914413,181.890869 
	C65.111488,283.388885 65.064049,384.887390 65.066704,486.385773 
	C65.066757,488.376312 65.066711,490.366821 65.066711,493.550842 
	C61.534027,490.863739 58.718281,488.721954 55.626095,486.352936 
z"/>
<path fill="#DB0073" opacity="1.000000" stroke="none" 
	d="
M417.060516,345.000000 
	C417.061035,367.830872 416.898895,390.163483 417.136078,412.491821 
	C417.242004,422.463593 413.281006,429.191162 404.161865,433.443085 
	C377.432831,445.906006 350.846100,458.674042 324.138367,471.183258 
	C322.640106,471.884979 320.044250,472.082520 318.821014,471.249420 
	C305.602875,462.247498 292.556335,452.993530 279.475861,443.790039 
	C279.239441,443.623657 279.162018,443.231293 278.687836,442.333862 
	C280.323486,441.455505 281.953125,440.494476 283.653107,439.680328 
	C308.298126,427.877350 332.866913,415.909485 357.648315,404.399628 
	C367.169037,399.977631 371.193909,393.240875 371.157288,382.806732 
	C370.953125,324.647186 371.109802,266.486420 370.968201,208.326523 
	C370.957794,204.050537 372.167389,201.798340 376.158569,200.034485 
	C387.433533,195.051666 398.490692,189.576614 409.643036,184.315353 
	C411.718719,183.336121 413.837921,182.449142 417.060486,181.022125 
	C417.060486,236.123672 417.060486,290.311829 417.060516,345.000000 
z"/>
<path fill="#FCFCFC" opacity="1.000000" stroke="none" 
	d="
M1900.340698,280.000183 
	C1899.991333,291.132996 1900.469971,301.872131 1899.122437,312.376953 
	C1896.185913,335.267487 1881.610718,348.122467 1860.275513,354.215759 
	C1839.538818,360.138153 1819.257080,356.866760 1799.441040,350.064484 
	C1788.841919,346.426147 1785.435059,338.025970 1789.823853,329.294098 
	C1792.953369,323.067932 1798.497925,320.575500 1805.208130,322.629303 
	C1813.001953,325.014771 1820.638306,327.985016 1828.526001,329.975922 
	C1837.428345,332.222961 1846.421387,331.350189 1855.077637,328.316559 
	C1864.567261,324.990692 1870.237427,318.305420 1871.347412,308.194550 
	C1871.849609,303.619690 1871.845581,298.989288 1872.125610,293.274811 
	C1870.611816,294.539246 1869.883545,295.036621 1869.288452,295.660950 
	C1849.160889,316.773346 1815.974121,317.576874 1794.683350,297.556549 
	C1778.452148,282.293854 1772.725220,263.212860 1773.850952,241.522888 
	C1774.936646,220.602478 1782.800903,203.121521 1800.002686,190.550797 
	C1820.482300,175.584763 1848.796997,177.032730 1867.909912,193.801804 
	C1868.993652,194.752701 1870.111328,195.664764 1871.945679,197.213242 
	C1871.945679,195.064575 1871.821533,193.797668 1871.966309,192.562256 
	C1872.804199,185.410400 1878.700928,180.314865 1886.040039,180.330109 
	C1893.541748,180.345688 1899.222534,185.229065 1900.029907,192.558624 
	C1900.338745,195.362701 1900.326538,198.210617 1900.328735,201.038666 
	C1900.349243,227.192520 1900.340942,253.346375 1900.340698,280.000183 
M1835.601074,285.992645 
	C1845.500854,286.122894 1854.352539,283.438293 1861.388062,276.142914 
	C1872.431030,264.692230 1874.603394,250.822128 1871.822876,235.848495 
	C1868.956909,220.413864 1857.382690,209.158691 1842.597534,206.908813 
	C1827.151611,204.558426 1813.214722,211.023651 1806.143188,224.726257 
	C1798.624268,239.295715 1798.712280,254.222153 1806.715698,268.645996 
	C1812.727295,279.480103 1822.208984,285.265900 1835.601074,285.992645 
z"/>
<path fill="#F4CD31" opacity="1.000000" stroke="none" 
	d="
M238.058960,414.896637 
	C230.152817,409.338257 222.536957,403.989929 214.293915,398.201141 
	C216.387222,397.107361 217.926498,396.239502 219.517883,395.481018 
	C244.319992,383.660156 269.058014,371.701050 293.972839,360.122437 
	C303.251556,355.810364 307.445557,349.165222 307.386169,338.963806 
	C307.189392,305.155914 307.368195,271.345978 307.230133,237.537506 
	C307.215790,234.023102 308.270721,232.222595 311.489410,230.765976 
	C324.081024,225.067596 336.533447,219.061905 349.048401,213.193466 
	C350.360352,212.578278 351.743744,212.115463 353.718323,211.335266 
	C353.718323,213.507935 353.718262,215.111115 353.718323,216.714294 
	C353.719727,266.844910 353.630402,316.975830 353.794739,367.105896 
	C353.830017,377.864502 349.365021,384.906616 339.602264,389.437927 
	C313.471985,401.566254 287.478180,413.990753 261.515839,426.475769 
	C258.366333,427.990387 256.190796,427.805908 253.473373,425.726654 
	C248.585190,421.986450 243.406525,418.625885 238.058960,414.896637 
z"/>
<path fill="#FCFCFC" opacity="1.000000" stroke="none" 
	d="
M756.819092,184.162933 
	C758.419495,188.230423 760.866028,192.033875 760.902100,195.860016 
	C761.209290,228.492004 761.102417,261.128113 761.064331,293.762909 
	C761.053650,302.913330 756.345947,308.769073 748.541992,309.641846 
	C740.274475,310.566437 734.757629,306.172180 732.469543,296.759735 
	C727.542175,300.043274 722.935303,303.910828 717.690491,306.472198 
	C693.169800,318.447083 664.856506,310.606018 648.869019,287.772827 
	C631.567383,263.062897 632.716675,224.754562 651.465088,201.233246 
	C670.503967,177.347687 704.493042,173.258911 728.710754,191.937088 
	C729.728882,192.722275 730.775391,193.470612 732.286621,194.590256 
	C733.257507,188.069443 735.858337,183.032425 742.058777,181.067307 
	C747.291565,179.408844 752.272461,180.138504 756.819092,184.162933 
M665.850403,259.448456 
	C670.002747,273.286835 678.309143,283.113159 693.088562,285.481873 
	C706.911438,287.697235 718.395752,283.077759 726.504822,271.313782 
	C736.026062,257.501160 736.125916,235.563568 726.857727,221.598343 
	C712.798889,200.414719 681.917114,201.561264 669.614746,223.810638 
	C663.526794,234.820953 662.681091,246.550125 665.850403,259.448456 
z"/>
<path fill="#FBFBFB" opacity="1.000000" stroke="none" 
	d="
M1222.058472,268.810852 
	C1234.945679,286.751923 1257.930908,291.402954 1276.901733,280.419739 
	C1280.428467,278.377808 1284.388062,276.729584 1288.357178,275.893890 
	C1293.392700,274.833618 1297.476318,277.252625 1300.098022,281.669189 
	C1302.662720,285.989319 1302.264648,290.463043 1299.347046,294.333588 
	C1297.381348,296.941162 1294.863892,299.330078 1292.143433,301.140747 
	C1266.394531,318.277802 1224.033691,316.145264 1202.564941,289.472046 
	C1190.671997,274.695953 1187.356689,257.542694 1189.108765,239.213669 
	C1191.275391,216.548981 1201.430420,198.453506 1221.866821,187.526108 
	C1252.363525,171.219345 1287.795776,183.499542 1303.282593,215.171921 
	C1307.281494,223.349930 1309.765137,231.906357 1309.905151,241.052185 
	C1310.041870,249.990570 1304.983887,255.460892 1296.116699,256.038605 
	C1294.623291,256.135925 1293.119141,256.072723 1291.619873,256.072815 
	C1268.797607,256.074463 1245.975342,256.074280 1223.153076,256.074524 
	C1221.362305,256.074524 1219.571411,256.074554 1216.460205,256.074554 
	C1218.512573,260.788330 1220.190430,264.642151 1222.058472,268.810852 
M1260.499268,232.326996 
	C1266.781250,232.326996 1273.063232,232.326996 1279.356201,232.326996 
	C1278.677856,216.980927 1264.963135,206.090302 1247.754395,206.589462 
	C1230.671387,207.084961 1217.911133,217.975250 1218.105225,232.327026 
	C1231.896606,232.327026 1245.698120,232.327026 1260.499268,232.326996 
z"/>
<path fill="#FDFDFD" opacity="1.000000" stroke="none" 
	d="
M943.078552,197.154755 
	C943.707092,201.565277 944.967224,198.590271 945.727234,197.719696 
	C951.188232,191.464783 957.645264,186.644852 965.340088,183.434357 
	C988.798706,173.646881 1013.356079,184.205597 1019.626282,207.191345 
	C1021.409424,213.728348 1022.621277,220.618179 1022.753357,227.372452 
	C1023.189697,249.694626 1023.096069,272.029053 1023.031616,294.358276 
	C1023.004333,303.816101 1016.926514,309.998962 1008.398315,309.786133 
	C999.943420,309.575165 994.770935,303.622772 994.690308,294.093658 
	C994.508484,272.606506 994.637878,251.109268 993.983887,229.636124 
	C993.538574,215.013840 986.637329,207.405670 974.769470,206.620331 
	C958.475708,205.542145 946.619446,213.449142 943.970947,227.328583 
	C943.381897,230.415604 943.126282,233.609772 943.113892,236.756149 
	C943.037842,256.087280 943.138794,275.419159 943.046875,294.750153 
	C943.006165,303.309570 937.847900,309.061890 930.049438,309.690948 
	C921.843811,310.352905 915.437683,304.908325 914.790405,296.697266 
	C914.698853,295.536560 914.699402,294.366638 914.699341,293.200958 
	C914.696411,245.538971 914.719971,197.876953 914.666748,150.215027 
	C914.661316,145.345032 915.451904,140.875229 919.271484,137.527222 
	C923.864197,133.501617 929.199585,132.843323 934.673706,135.186554 
	C940.266357,137.580505 943.013367,142.180710 943.034241,148.251999 
	C943.089661,164.416656 943.068359,180.581589 943.078552,197.154755 
z"/>
<path fill="#FBFBFB" opacity="1.000000" stroke="none" 
	d="
M1656.158691,234.808456 
	C1662.250366,272.617645 1639.760986,304.910217 1603.290649,311.273865 
	C1563.972778,318.134369 1528.983887,289.449463 1527.891235,249.539917 
	C1527.207642,224.566956 1535.905273,204.069687 1557.302979,190.367798 
	C1594.056152,166.833069 1648.316284,185.173004 1656.158691,234.808456 
M1622.375122,223.204529 
	C1606.801147,200.199417 1574.503418,201.126297 1561.351318,225.025131 
	C1556.163452,234.452438 1555.453369,244.642776 1557.069946,255.080948 
	C1559.544800,271.060883 1572.406006,283.902039 1587.659912,285.717712 
	C1604.219116,287.688751 1619.404907,278.965942 1625.406860,263.247437 
	C1630.514038,249.872955 1629.869629,236.546356 1622.375122,223.204529 
z"/>
<path fill="#FBFBFB" opacity="1.000000" stroke="none" 
	d="
M1054.315186,193.832916 
	C1057.347534,185.485275 1062.309448,182.030487 1069.765747,182.755066 
	C1077.514404,183.508087 1080.992676,187.858093 1082.881836,198.376770 
	C1090.031738,193.614212 1097.059082,187.699173 1105.079346,183.856033 
	C1120.269043,176.577423 1141.189819,180.026398 1151.833740,190.546478 
	C1160.263672,198.878555 1163.309937,209.721298 1163.878418,220.968079 
	C1164.768555,238.578873 1164.651001,256.241669 1164.898560,273.883331 
	C1164.992188,280.544617 1164.965576,287.208771 1164.903809,293.870789 
	C1164.815308,303.412354 1159.132812,309.739807 1150.706299,309.792419 
	C1141.970459,309.846985 1136.373413,303.591034 1136.321289,293.637695 
	C1136.212524,272.821869 1136.446167,251.998322 1135.943726,231.192337 
	C1135.520142,213.646576 1127.515503,206.338409 1110.396729,206.605682 
	C1094.616211,206.852081 1082.915894,217.781357 1082.767334,232.871231 
	C1082.578735,252.024307 1082.737305,271.180695 1082.706421,290.335602 
	C1082.702759,292.658600 1082.614380,295.003815 1082.289917,297.299835 
	C1081.205444,304.973602 1075.402222,309.948334 1067.925415,309.762329 
	C1060.449951,309.576355 1054.884277,304.326324 1054.051880,296.659637 
	C1053.962036,295.832764 1053.906494,294.997589 1053.906372,294.166260 
	C1053.902588,262.185852 1053.903931,230.205475 1053.922485,198.225082 
	C1053.923340,196.896515 1054.097656,195.568024 1054.315186,193.832916 
z"/>
<path fill="#FBFBFB" opacity="1.000000" stroke="none" 
	d="
M1362.360596,267.000458 
	C1362.267700,277.492004 1362.430786,287.494995 1361.984619,297.470734 
	C1361.721558,303.354187 1357.472168,307.794434 1352.008667,309.250122 
	C1346.196411,310.798737 1339.984619,309.133453 1336.927368,304.236725 
	C1335.184814,301.445496 1334.043335,297.774994 1334.021973,294.491394 
	C1333.812988,262.339325 1333.885742,230.185394 1333.905762,198.031998 
	C1333.911255,189.100281 1338.930542,183.267014 1346.952026,182.734634 
	C1355.368896,182.176025 1361.158203,187.325363 1362.227905,196.319092 
	C1362.342163,197.280624 1362.468384,198.240753 1362.669312,199.840027 
	C1366.214233,196.600540 1369.153320,193.549225 1372.454956,190.960266 
	C1387.727783,178.984375 1404.761719,177.065552 1422.361572,184.148026 
	C1435.586304,189.469955 1440.719727,201.462769 1442.810913,214.666275 
	C1443.977661,222.032074 1444.537476,229.555267 1444.635132,237.017151 
	C1444.883301,256.006073 1444.758423,275.000519 1444.697266,293.992493 
	C1444.672363,301.712433 1441.299438,306.897491 1435.288086,308.935974 
	C1425.261230,312.336090 1416.167969,305.626770 1416.092651,294.488861 
	C1415.963257,275.330994 1416.197510,256.169891 1415.966431,237.013916 
	C1415.900879,231.577057 1415.229004,226.040787 1413.983032,220.750839 
	C1412.275513,213.501724 1407.246216,209.082458 1399.968506,207.349060 
	C1383.039673,203.316940 1367.701050,211.155807 1363.576294,226.151459 
	C1362.707153,229.311203 1362.456787,232.714996 1362.410156,236.013245 
	C1362.266602,246.173843 1362.359497,256.337799 1362.360596,267.000458 
z"/>
<path fill="#FBFBFB" opacity="1.000000" stroke="none" 
	d="
M805.647522,195.650848 
	C824.815674,179.044815 858.718994,175.141968 880.651428,186.885086 
	C886.233765,189.873993 890.980896,193.710220 892.069885,200.503204 
	C893.007812,206.353836 890.630554,212.876007 886.445007,214.996552 
	C881.161987,217.673126 876.067139,216.564438 871.395935,213.271927 
	C858.931213,204.486160 841.714233,204.276794 829.286865,212.823410 
	C815.121582,222.565277 809.405029,244.152283 816.168762,262.360992 
	C822.493713,279.388306 837.564453,288.147095 857.352600,285.403412 
	C862.553284,284.682343 867.770569,282.192932 872.380798,279.492340 
	C882.155640,273.766357 892.744080,278.184418 893.756775,288.956085 
	C894.311462,294.857086 890.939026,298.678467 886.515991,301.742218 
	C878.372192,307.383118 869.066956,309.971832 859.419800,311.238342 
	C838.721802,313.955566 819.449341,311.051483 803.877014,295.610291 
	C790.734314,282.578156 785.346924,266.257843 784.990356,248.153198 
	C784.593445,228.000595 790.264099,210.059769 805.647522,195.650848 
z"/>
<path fill="#FCFCFC" opacity="1.000000" stroke="none" 
	d="
M559.512573,285.253143 
	C559.249084,274.002014 558.989929,263.183838 558.919128,252.364395 
	C558.830872,238.877853 558.897949,225.390274 558.897949,211.061005 
	C555.461548,211.061005 552.216858,211.090515 548.972839,211.055359 
	C540.095215,210.959137 534.724121,205.992584 534.701599,197.893570 
	C534.680115,190.167938 540.130066,185.166565 548.737671,185.052704 
	C551.885925,185.011047 555.035217,185.045990 558.900269,185.045990 
	C558.900269,180.166626 558.862610,175.567856 558.908142,170.969879 
	C559.001404,161.549927 564.737610,155.383118 573.375122,155.357956 
	C581.692017,155.333725 587.202026,161.400238 587.341736,170.822296 
	C587.408142,175.300339 587.353088,179.780182 587.353088,185.054672 
	C593.289307,185.054672 598.879700,184.896027 604.457825,185.090454 
	C613.684082,185.412033 619.510498,193.328690 617.043640,201.937027 
	C615.479187,207.396347 610.916809,210.869293 604.701477,211.025162 
	C599.085510,211.166000 593.463196,211.054901 587.354614,211.054901 
	C587.354614,213.131485 587.354492,214.595505 587.354675,216.059525 
	C587.357117,234.886734 587.335510,253.714005 587.370911,272.541138 
	C587.391479,283.506073 591.893677,286.815735 602.622864,283.863403 
	C608.559082,282.229950 612.346008,283.357635 614.898621,287.518860 
	C617.636780,291.982788 617.120361,297.993591 613.656921,301.936707 
	C613.327148,302.312164 613.022949,302.724579 612.638794,303.035706 
	C601.678894,311.910980 589.296387,310.990082 577.003784,307.391357 
	C566.541138,304.328308 561.239014,296.264679 559.512573,285.253143 
z"/>
<path fill="#FBFBFB" opacity="1.000000" stroke="none" 
	d="
M1741.991943,206.626129 
	C1729.841797,203.236160 1719.094482,207.767258 1714.107300,219.462769 
	C1711.509644,225.554611 1710.117310,232.551117 1709.905151,239.194046 
	C1709.341553,256.840668 1709.716797,274.517212 1709.715576,292.181854 
	C1709.715088,299.041351 1708.241089,305.208435 1701.324463,308.428680 
	C1691.412476,313.043549 1681.037720,306.203247 1680.944702,294.814362 
	C1680.792114,276.151093 1680.900269,257.485626 1680.902710,238.821106 
	C1680.904541,224.989395 1680.801392,211.156418 1680.959839,197.326462 
	C1681.056763,188.870117 1686.464111,183.162857 1694.296387,182.707550 
	C1702.200806,182.248047 1707.826416,187.041260 1709.364624,195.526123 
	C1709.538574,196.485641 1709.804321,197.428528 1710.174805,199.006195 
	C1718.718018,186.879196 1730.337646,181.213882 1744.371826,180.462418 
	C1747.771484,180.280380 1751.457275,180.684692 1754.624878,181.860580 
	C1762.505615,184.786209 1765.552612,191.647186 1763.126465,199.594193 
	C1761.049072,206.398788 1754.736816,209.649948 1746.727173,207.982941 
	C1745.265381,207.678680 1743.848999,207.155746 1741.991943,206.626129 
z"/>
<path fill="#F2F2F2" opacity="1.000000" stroke="none" 
	d="
M1539.467896,416.330139 
	C1541.946289,429.437195 1544.299561,442.138092 1546.933350,456.353088 
	C1551.447388,438.342285 1555.624634,421.675629 1559.766724,405.148804 
	C1566.906860,403.944336 1566.957275,403.931763 1568.524048,410.209412 
	C1571.986572,424.083923 1575.391235,437.972900 1578.827148,451.854095 
	C1579.042480,452.723724 1579.324219,453.576965 1580.423706,454.421204 
	C1583.572510,437.911774 1586.721313,421.402344 1589.895874,404.757965 
	C1592.328369,404.757965 1594.434326,404.757965 1597.363525,404.757965 
	C1593.187012,424.951630 1589.070435,444.855499 1584.976440,464.650024 
	C1584.081299,464.866241 1583.616455,465.065613 1583.146484,465.079010 
	C1575.646851,465.292633 1575.663086,465.283112 1573.830688,457.909515 
	C1570.393188,444.078094 1566.934570,430.251984 1563.266479,415.549347 
	C1560.733887,425.949982 1558.378662,435.599945 1556.035645,445.252777 
	C1554.897949,449.939606 1553.482178,454.585052 1552.742065,459.334930 
	C1552.012329,464.019012 1549.890259,466.074890 1545.130371,465.140778 
	C1544.329956,464.983673 1543.472290,465.118652 1542.019043,465.118652 
	C1537.778564,445.227539 1533.530396,425.300903 1529.284668,405.385132 
	C1536.518188,403.504028 1536.896973,403.728241 1538.287354,410.540527 
	C1538.653198,412.332153 1538.991577,414.129364 1539.467896,416.330139 
z"/>
<path fill="#F5F5F5" opacity="1.000000" stroke="none" 
	d="
M742.273132,444.658020 
	C742.876770,446.045898 743.326965,447.065430 744.209717,449.064728 
	C749.673645,433.767822 754.814575,419.375366 760.016296,404.812439 
	C762.940125,404.812439 765.692749,404.812439 768.777100,404.812439 
	C768.777100,424.780243 768.777100,444.639618 768.777100,464.801697 
	C766.558960,464.801697 764.500854,464.801697 762.156860,464.801697 
	C762.156860,449.176971 762.156860,433.637207 762.156860,418.097443 
	C761.942627,418.015808 761.728394,417.934143 761.514160,417.852509 
	C760.831299,419.410950 760.065430,420.938873 759.478943,422.532776 
	C755.576050,433.138916 751.810913,443.797546 747.740051,454.338348 
	C747.033142,456.168884 745.087036,457.520813 743.713318,459.093781 
	C742.472778,457.582672 740.730225,456.262360 740.071777,454.529999 
	C735.179382,441.659058 730.502197,428.706329 725.532532,415.166565 
	C725.532532,432.079102 725.532532,448.305908 725.532532,464.817200 
	C723.528259,464.817200 721.592163,464.817200 719.264771,464.817200 
	C719.264771,445.070953 719.264771,425.175232 719.264771,405.233276 
	C726.868103,403.341980 727.465576,403.650085 730.114868,410.994781 
	C734.117981,422.092529 738.118164,433.191345 742.273132,444.658020 
z"/>
<path fill="#EFEFEF" opacity="1.000000" stroke="none" 
	d="
M1002.712219,452.591919 
	C999.913086,460.205444 994.196533,463.871155 986.990173,464.401703 
	C978.575195,465.021210 970.079590,464.546417 961.312744,464.546417 
	C961.312744,444.854919 961.312744,424.959167 961.312744,404.827484 
	C969.036133,404.827484 976.686890,404.411133 984.272583,404.935852 
	C993.198181,405.553253 998.366211,409.537140 999.595337,416.081177 
	C1001.006470,423.594269 997.833862,428.990631 991.401550,432.061615 
	C994.754456,434.596344 999.213440,436.468170 1001.078735,439.794434 
	C1002.985413,443.194397 1002.347778,448.021149 1002.712219,452.591919 
M970.685974,459.002136 
	C976.769531,458.411011 982.976868,458.375793 988.898193,457.056549 
	C993.822205,455.959473 995.835632,451.612915 995.726257,446.651306 
	C995.616882,441.687378 992.880432,438.221558 988.139465,437.437836 
	C981.870483,436.401489 975.458679,436.229553 968.210388,435.609253 
	C968.770264,444.204803 969.248779,451.550964 970.685974,459.002136 
M968.850403,411.526459 
	C968.850403,417.637817 968.850403,423.749176 968.850403,430.641815 
	C974.634277,430.196350 979.962891,430.229370 985.102844,429.261292 
	C989.931763,428.351868 992.158020,424.767822 992.087280,419.711121 
	C992.014832,414.536194 988.968384,411.982697 984.448608,411.405914 
	C979.523804,410.777405 974.496155,410.954651 968.850403,411.526459 
z"/>
<path fill="#F2F2F2" opacity="1.000000" stroke="none" 
	d="
M1436.589600,451.521851 
	C1436.589600,436.077911 1436.589600,420.633972 1436.589600,404.868896 
	C1438.541138,404.868896 1440.760254,404.868896 1443.192871,404.868896 
	C1443.192871,424.878540 1443.192871,444.627594 1443.192871,464.548248 
	C1438.302124,465.994995 1435.037354,465.226685 1432.345459,460.156433 
	C1424.784790,445.915100 1416.611328,431.998993 1408.673462,417.958038 
	C1408.379883,417.438751 1408.023682,416.954803 1407.337769,415.904938 
	C1407.337769,432.642090 1407.337769,448.617981 1407.337769,464.858337 
	C1404.960083,464.858337 1402.706665,464.858337 1400.237427,464.858337 
	C1400.237427,444.835724 1400.237427,425.067871 1400.237427,405.083160 
	C1405.186890,403.649261 1408.565918,404.528351 1411.332153,409.734711 
	C1418.896484,423.971680 1427.088867,437.875061 1435.372314,452.435944 
	C1436.007812,453.183075 1436.303467,453.404877 1436.599121,453.626648 
	C1436.595947,452.925049 1436.592773,452.223450 1436.589600,451.521851 
z"/>
<path fill="#F4F4F4" opacity="1.000000" stroke="none" 
	d="
M1681.670532,412.191254 
	C1681.670532,409.570801 1681.670532,407.422821 1681.670532,404.917023 
	C1684.261597,404.917023 1686.615967,404.917023 1689.384277,404.917023 
	C1689.384277,413.078278 1689.384277,421.017365 1689.384277,429.361572 
	C1698.667847,429.361572 1707.562012,429.361572 1717.007202,429.361572 
	C1717.007202,421.449768 1717.007202,413.379913 1717.007202,404.941803 
	C1719.950806,404.941803 1722.356079,404.941803 1725.075928,404.941803 
	C1725.075928,424.796478 1725.075928,444.683868 1725.075928,464.838867 
	C1722.599243,464.838867 1720.342529,464.838867 1717.447510,464.838867 
	C1717.447510,455.577789 1717.447510,446.364105 1717.447510,436.902588 
	C1707.900635,436.902588 1698.986694,436.902588 1689.433105,436.902588 
	C1689.433105,446.229218 1689.433105,455.443207 1689.433105,464.871277 
	C1686.682373,464.871277 1684.565063,464.871277 1681.670532,464.871277 
	C1681.670532,447.506714 1681.670532,430.085205 1681.670532,412.191254 
z"/>
<path fill="#F4F4F4" opacity="1.000000" stroke="none" 
	d="
M1236.057861,404.551392 
	C1241.200439,404.687714 1245.892090,404.512604 1250.507202,405.026520 
	C1259.526611,406.030792 1264.626465,410.659149 1265.764648,418.277527 
	C1267.067993,427.002869 1263.567261,433.723816 1255.724365,437.539062 
	C1254.854614,437.962128 1253.968750,438.351501 1252.637573,438.965271 
	C1257.551147,447.501099 1262.325073,455.794189 1267.128418,464.138580 
	C1260.435181,466.275665 1259.369019,465.890961 1256.234863,460.387848 
	C1253.681396,455.904388 1250.561646,451.639496 1248.716187,446.880859 
	C1245.879395,439.565857 1240.776733,438.476257 1233.484375,440.178711 
	C1233.484375,448.189575 1233.484375,456.401764 1233.484375,464.853821 
	C1230.748169,464.853821 1228.638062,464.853821 1226.092651,464.853821 
	C1226.092651,445.078247 1226.092651,425.200684 1226.092651,404.551361 
	C1229.081787,404.551361 1232.327148,404.551361 1236.057861,404.551392 
M1254.551758,430.122253 
	C1258.558594,426.553833 1258.803589,421.980621 1257.461426,417.334045 
	C1256.096436,412.608582 1251.844482,411.416534 1247.638062,411.076599 
	C1243.084106,410.708618 1238.477539,410.993256 1233.722656,410.993256 
	C1233.722656,418.574188 1233.722656,425.748474 1233.722656,434.456207 
	C1240.864990,433.082092 1247.390259,431.826630 1254.551758,430.122253 
z"/>
<path fill="#F0F0F0" opacity="1.000000" stroke="none" 
	d="
M647.568237,446.314117 
	C651.157776,452.503906 654.541748,458.386200 658.096008,464.564484 
	C652.732056,465.881897 648.910461,465.518188 646.561890,459.912994 
	C644.648865,455.347229 641.085388,451.449280 639.335815,446.844116 
	C636.517700,439.426422 631.303162,438.595184 624.152039,440.143768 
	C624.152039,448.231842 624.152039,456.468903 624.152039,464.867096 
	C621.337341,464.867096 619.081482,464.867096 616.546570,464.867096 
	C616.546570,444.850128 616.546570,425.099152 616.546570,403.868256 
	C626.578857,404.640717 636.653137,404.814728 646.501282,406.396637 
	C652.568481,407.371185 655.773621,412.545654 656.473328,418.739075 
	C657.181824,425.010529 655.942688,430.740479 650.732544,434.869995 
	C648.687683,436.490662 646.256470,437.623779 643.605652,439.216675 
	C644.846436,441.459076 646.104553,443.732819 647.568237,446.314117 
M648.009033,416.837921 
	C641.867188,407.503693 632.600037,412.107513 624.386658,410.626343 
	C624.386658,418.645569 624.386658,425.724518 624.386658,433.010284 
	C628.800476,433.010284 632.945862,433.301270 637.036377,432.951508 
	C646.410828,432.149933 650.092407,426.952301 648.009033,416.837921 
z"/>
<path fill="#F1F1F1" opacity="1.000000" stroke="none" 
	d="
M824.553162,409.433929 
	C836.734253,420.062439 836.411621,443.869019 828.743408,455.105011 
	C823.031494,463.474701 815.050354,467.031799 805.088867,465.966003 
	C795.128418,464.900330 788.633362,459.015381 785.084290,450.025940 
	C781.357910,440.587524 781.189148,430.799042 784.331177,421.143860 
	C790.080566,403.476624 809.266479,397.806854 824.553162,409.433929 
M802.443542,411.213531 
	C797.129456,413.372375 793.907227,417.488373 792.170776,422.743774 
	C789.651245,430.369263 789.628235,438.141724 791.980042,445.793335 
	C794.731262,454.744293 800.495178,459.332825 808.349182,459.281036 
	C816.024963,459.230377 821.815613,454.349640 824.491699,445.449005 
	C826.700684,438.101898 826.744873,430.686584 824.371155,423.368530 
	C821.030640,413.069672 814.030579,409.014160 802.443542,411.213531 
z"/>
<path fill="#F1F1F1" opacity="1.000000" stroke="none" 
	d="
M1313.316650,463.396912 
	C1297.355347,470.242676 1282.802979,463.651062 1277.738892,447.465179 
	C1275.086670,438.988556 1275.072754,430.395660 1277.662720,421.889618 
	C1281.228149,410.179596 1289.879150,403.517517 1301.442993,403.379486 
	C1312.602905,403.246277 1321.693848,409.762817 1325.560547,420.896942 
	C1330.389771,434.802856 1327.756348,455.544586 1313.316650,463.396912 
M1317.888428,446.080017 
	C1320.443237,437.336456 1320.514282,428.626984 1316.695435,420.262451 
	C1313.957153,414.264557 1309.266113,410.558044 1302.341797,410.302979 
	C1295.442505,410.048859 1290.224121,413.132935 1287.355347,419.145203 
	C1282.169434,430.013367 1282.204468,441.142609 1288.266235,451.674622 
	C1293.870483,461.411713 1306.968628,462.107910 1313.978271,453.306396 
	C1315.505127,451.389282 1316.448120,449.007111 1317.888428,446.080017 
z"/>
<path fill="#F2F2F2" opacity="1.000000" stroke="none" 
	d="
M1471.946533,404.551086 
	C1476.395264,404.890869 1480.453735,404.810028 1484.309937,405.654175 
	C1493.567017,407.680695 1499.472290,413.588593 1502.118774,422.647430 
	C1504.361938,430.325836 1504.395630,438.082794 1502.261230,445.795502 
	C1499.164551,456.986115 1491.426392,463.778259 1479.877930,464.729889 
	C1473.448120,465.259705 1466.938965,464.825043 1460.168945,464.825043 
	C1460.168945,444.931213 1460.168945,425.031311 1460.168945,404.551056 
	C1463.917480,404.551056 1467.691040,404.551056 1471.946533,404.551086 
M1468.717163,458.672699 
	C1476.256958,458.915222 1483.864136,459.181702 1489.676392,453.141327 
	C1496.303345,446.254303 1497.781616,430.111450 1492.834839,420.635315 
	C1488.665161,412.647980 1480.249878,409.478790 1468.021606,411.404053 
	C1468.021606,426.931641 1468.021606,442.495026 1468.717163,458.672699 
z"/>
<path fill="#F1F1F1" opacity="1.000000" stroke="none" 
	d="
M1208.946533,412.766693 
	C1207.292603,415.122528 1206.065552,415.572693 1203.591309,413.809509 
	C1193.572266,406.669800 1180.636475,410.409241 1175.808228,421.750458 
	C1171.959839,430.789978 1172.223267,439.997070 1176.235352,448.883453 
	C1180.406860,458.123077 1191.686035,462.107605 1200.773438,457.667603 
	C1202.211060,456.965240 1203.703369,454.915588 1203.868408,453.351532 
	C1204.301025,449.249573 1204.014526,445.071686 1204.014526,440.368286 
	C1199.881836,440.368286 1195.991211,440.368286 1191.553589,440.368286 
	C1191.442871,437.958191 1191.356323,436.075256 1191.254395,433.856079 
	C1198.030884,433.856079 1204.427490,433.856079 1211.395752,433.856079 
	C1211.395752,441.739471 1211.580444,449.516205 1211.241089,457.269958 
	C1211.172485,458.834656 1209.415771,460.746185 1207.933350,461.762909 
	C1193.696045,471.527649 1173.694336,465.377716 1167.783936,449.175537 
	C1163.609009,437.730682 1163.859985,426.214233 1170.382202,415.544006 
	C1178.154663,402.827942 1196.366333,399.346283 1207.428467,408.327698 
	C1208.456909,409.162567 1208.603271,411.083832 1208.946533,412.766693 
z"/>
<path fill="#F0F0F0" opacity="1.000000" stroke="none" 
	d="
M1121.093872,404.536133 
	C1124.333862,404.125977 1125.240845,405.282684 1125.179810,408.142548 
	C1125.003052,416.415771 1125.117310,424.695251 1125.117310,432.972260 
	C1125.616577,433.353546 1126.115723,433.734833 1126.614990,434.116119 
	C1127.337280,432.938232 1127.933105,431.656586 1128.802002,430.599152 
	C1134.721802,423.395020 1140.947876,416.426025 1146.560547,408.992676 
	C1149.729980,404.795258 1153.249878,403.591827 1158.697021,405.157227 
	C1153.516602,411.492767 1148.672729,417.722992 1143.473389,423.641052 
	C1141.017090,426.436951 1140.669800,428.529022 1142.714355,431.859253 
	C1149.237671,442.484497 1155.349731,453.362366 1161.648071,464.189911 
	C1155.029541,466.277954 1153.981812,465.886932 1150.799683,460.372528 
	C1145.811768,451.729126 1140.814209,443.091400 1135.908203,434.602661 
	C1123.698853,441.550140 1124.391846,453.168427 1125.315918,464.887543 
	C1122.426636,464.887543 1120.166382,464.887543 1117.650391,464.887543 
	C1117.506592,463.743835 1117.284058,462.794617 1117.282959,461.845093 
	C1117.262207,444.025543 1117.305176,426.205750 1117.225342,408.386536 
	C1117.213867,405.822083 1117.550293,404.066833 1121.093872,404.536133 
z"/>
<path fill="#F2F2F2" opacity="1.000000" stroke="none" 
	d="
M1348.109131,419.006531 
	C1348.110840,426.993683 1347.928223,434.488007 1348.172241,441.968384 
	C1348.370605,448.046478 1349.285522,454.138977 1355.200073,457.608704 
	C1364.109619,462.835266 1374.501953,457.464355 1375.807861,446.623016 
	C1376.679077,439.390747 1376.500488,432.023438 1376.636108,424.713715 
	C1376.756226,418.242371 1376.661255,411.767029 1376.661255,404.923218 
	C1379.075562,404.923218 1381.275391,404.923218 1383.192505,404.923218 
	C1383.192505,419.442261 1384.102783,433.924255 1382.917358,448.232666 
	C1381.885620,460.687988 1373.672607,466.444672 1361.280151,466.119843 
	C1349.501099,465.811035 1341.809692,459.364868 1341.062988,447.067352 
	C1340.219482,433.175293 1340.868652,419.192535 1340.868652,404.895355 
	C1342.976929,404.895355 1345.364136,404.895355 1348.109131,404.895355 
	C1348.109131,409.570892 1348.109131,414.039276 1348.109131,419.006531 
z"/>
<path fill="#F2F2F2" opacity="1.000000" stroke="none" 
	d="
M687.999390,465.124268 
	C681.855530,465.124176 676.210266,465.124176 670.296936,465.124176 
	C670.296936,444.820923 670.296936,424.922424 670.296936,404.783295 
	C681.786438,404.783295 693.067505,404.783295 704.644714,404.783295 
	C704.644714,406.761200 704.644714,408.664032 704.644714,411.053467 
	C695.827698,411.053467 687.077271,411.053467 678.139404,411.053467 
	C678.139404,417.476166 678.139404,423.424652 678.139404,429.954895 
	C685.675232,429.954895 693.064697,429.954895 700.689331,429.954895 
	C700.689331,432.305511 700.689331,434.078949 700.689331,436.349548 
	C693.340149,436.349548 685.939819,436.349548 678.241882,436.349548 
	C678.241882,443.915710 678.241882,450.993042 678.241882,458.519043 
	C687.412720,458.519043 696.503662,458.519043 705.696411,458.519043 
	C705.696411,460.911591 705.696411,462.857758 705.696411,465.124329 
	C699.802429,465.124329 694.150208,465.124329 687.999390,465.124268 
z"/>
<path fill="#F1F1F1" opacity="1.000000" stroke="none" 
	d="
M1023.178589,417.988831 
	C1024.202271,414.937347 1025.441162,412.320099 1025.916992,409.570770 
	C1026.744629,404.787933 1029.703613,403.750000 1033.757324,404.627808 
	C1035.056885,404.909210 1036.844727,405.930634 1037.223267,407.024017 
	C1043.688599,425.698334 1049.970215,444.436249 1056.269409,463.167877 
	C1056.411255,463.589722 1056.287231,464.100983 1056.287231,464.557770 
	C1049.015259,465.865265 1049.057251,465.851410 1047.003296,459.627625 
	C1045.610107,455.406311 1045.241821,449.617310 1042.284302,447.484924 
	C1039.282349,445.320557 1033.663940,446.775299 1029.190918,446.666809 
	C1027.694092,446.630493 1026.173828,446.823395 1024.702515,446.626709 
	C1021.854309,446.245941 1020.486450,447.404541 1019.838806,450.177795 
	C1019.085144,453.404633 1017.579468,456.474548 1017.002014,459.719635 
	C1016.018982,465.244049 1012.825134,466.083038 1007.504700,464.479004 
	C1012.699097,449.070068 1017.874695,433.716858 1023.178589,417.988831 
M1031.491577,440.610840 
	C1034.554688,440.610840 1037.617920,440.610840 1041.130371,440.610840 
	C1038.042969,430.574432 1035.219116,421.394623 1031.979370,410.863281 
	C1028.771362,421.484650 1025.988403,430.698700 1022.994507,440.610779 
	C1025.989136,440.610779 1028.263916,440.610779 1031.491577,440.610840 
z"/>
<path fill="#F1F1F1" opacity="1.000000" stroke="none" 
	d="
M1783.640869,410.247070 
	C1789.829346,428.497742 1795.882080,446.382050 1801.944214,464.294250 
	C1794.435425,466.124542 1794.167358,465.968597 1792.138794,459.491791 
	C1790.856812,455.398254 1790.669067,449.679047 1787.863647,447.691925 
	C1784.811768,445.530304 1779.299316,446.718475 1774.857300,446.670837 
	C1766.257935,446.578613 1766.259644,446.644653 1763.616821,454.931885 
	C1763.162964,456.354584 1762.666870,457.763733 1762.207642,459.184753 
	C1760.153809,465.541565 1760.156128,465.542328 1752.599609,464.651520 
	C1759.386353,444.645050 1766.126953,424.774597 1772.911255,404.775055 
	C1775.905029,404.775055 1778.674194,404.775055 1781.659302,404.775055 
	C1782.272705,406.472076 1782.888916,408.176392 1783.640869,410.247070 
M1774.888428,418.434113 
	C1772.702515,425.641418 1770.516724,432.848755 1768.269409,440.258362 
	C1774.620850,440.258362 1780.165527,440.258362 1786.130005,440.258362 
	C1783.181885,430.498383 1780.366943,421.179321 1777.260986,410.896759 
	C1776.342163,413.701263 1775.692627,415.683533 1774.888428,418.434113 
z"/>
<path fill="#F5F5F5" opacity="1.000000" stroke="none" 
	d="
M902.101685,404.553040 
	C911.060913,404.553070 919.535339,404.553070 928.377319,404.553070 
	C928.377319,406.738770 928.377319,408.597656 928.377319,411.033020 
	C919.532532,411.033020 910.794250,411.033020 901.735718,411.033020 
	C901.735718,417.503326 901.735718,423.410767 901.735718,429.797058 
	C909.062073,429.797058 916.325562,429.797058 924.128662,429.797058 
	C924.234009,432.136292 924.319275,434.029785 924.433228,436.561096 
	C916.667358,436.561096 909.280762,436.561096 901.656555,436.561096 
	C901.656555,444.079559 901.656555,450.980560 901.656555,458.407471 
	C910.930298,458.407471 920.009155,458.407471 929.412476,458.407471 
	C929.412476,460.792206 929.412476,462.654938 929.412476,464.812347 
	C917.627380,464.812347 906.058838,464.812347 894.181702,464.812347 
	C894.181702,444.822937 894.181702,424.919037 894.181702,404.553009 
	C896.681152,404.553009 899.148987,404.553009 902.101685,404.553040 
z"/>
<path fill="#F2F2F2" opacity="1.000000" stroke="none" 
	d="
M868.447021,435.317993 
	C871.010620,426.825165 873.420898,418.704285 875.817871,410.579468 
	C877.723450,404.120331 877.716125,404.118164 885.309753,404.982025 
	C883.167419,411.819397 881.082581,418.557037 878.944763,425.277802 
	C875.017151,437.625122 870.918152,449.920563 867.205444,462.331818 
	C866.201172,465.688965 864.024292,465.103119 861.796143,465.107910 
	C859.564636,465.112701 857.341980,465.706696 856.315002,462.399506 
	C850.452942,443.522339 844.357971,424.717529 838.362915,405.881500 
	C838.281494,405.625488 838.468506,405.284027 838.537476,404.983948 
	C846.032166,403.933258 846.006836,403.940735 848.067810,410.914154 
	C852.477722,425.835205 856.916443,440.747772 862.428040,455.830811 
	C864.381348,449.116608 866.334656,442.402405 868.447021,435.317993 
z"/>
<path fill="#F0F0F0" opacity="1.000000" stroke="none" 
	d="
M1064.415771,451.482117 
	C1059.680908,439.195190 1059.417358,427.344177 1065.842041,415.983582 
	C1073.944214,401.656525 1093.145264,399.072296 1104.382812,411.026367 
	C1103.192139,412.447479 1101.957886,413.920715 1100.750122,415.362152 
	C1097.816040,413.783203 1095.231201,411.820068 1092.318726,410.934143 
	C1084.177368,408.457611 1075.798340,412.546417 1072.083252,420.612396 
	C1068.527222,428.333221 1068.262939,436.402374 1070.404785,444.535919 
	C1074.657104,460.683075 1091.080200,463.837158 1101.983521,452.518677 
	C1103.168823,454.048218 1104.345947,455.567261 1105.531494,457.097198 
	C1098.791382,469.251099 1073.530640,470.836761 1064.415771,451.482117 
z"/>
<path fill="#F8F8F8" opacity="1.000000" stroke="none" 
	d="
M1474.145264,298.383728 
	C1474.027954,296.958496 1473.971069,295.962738 1473.915283,294.966888 
	C1472.993896,278.545959 1481.964478,275.330627 1495.876221,277.584015 
	C1500.957520,278.407043 1503.965454,281.906738 1505.052490,286.937164 
	C1505.367432,288.394592 1505.568359,289.889130 1505.675049,291.377136 
	C1506.743774,306.293365 1495.308960,314.286407 1481.418701,308.348816 
	C1477.201782,306.546295 1475.176270,303.076477 1474.145264,298.383728 
z"/>
<path fill="#F3F3F3" opacity="1.000000" stroke="none" 
	d="
M1644.675293,412.019440 
	C1638.728760,411.540314 1632.947632,411.540314 1626.591431,411.540314 
	C1626.470825,408.967743 1626.382935,407.091888 1626.279053,404.874756 
	C1641.213379,404.874756 1655.775757,404.874756 1670.635010,404.874756 
	C1670.635010,406.768097 1670.635010,408.668365 1670.635010,411.010376 
	C1664.805786,411.010376 1659.049805,411.010376 1652.753906,411.010376 
	C1652.753906,429.158295 1652.753906,446.878540 1652.753906,464.847748 
	C1649.940796,464.847748 1647.673828,464.847748 1644.840820,464.847748 
	C1644.840820,447.330688 1644.840820,429.914612 1644.675293,412.019440 
z"/>
<path fill="#F2F2F2" opacity="1.000000" stroke="none" 
	d="
M1615.747559,461.479187 
	C1615.216919,468.187592 1610.770996,463.799927 1608.076782,465.198303 
	C1608.076782,444.786682 1608.076782,424.899506 1608.076782,404.782166 
	C1610.541748,404.782166 1612.806396,404.782166 1615.747803,404.782166 
	C1615.747803,423.633026 1615.747803,442.334778 1615.747559,461.479187 
z"/>
<path fill="#FBFBFB" opacity="1.000000" stroke="none" 
	d="
M1818.344849,445.999695 
	C1818.344849,452.458466 1818.344849,458.417328 1818.344849,464.715942 
	C1815.818726,464.715942 1813.729492,464.715942 1811.162354,464.715942 
	C1811.162354,444.963745 1811.162354,424.982880 1811.162354,404.797485 
	C1813.339600,404.797485 1815.449463,404.797485 1818.344849,404.797485 
	C1818.344849,418.381531 1818.344849,431.940643 1818.344849,445.999695 
z"/>
<path fill="#0D0D0D" opacity="1.000000" stroke="none" 
	d="
M1835.149658,285.932922 
	C1822.208984,285.265900 1812.727295,279.480103 1806.715698,268.645996 
	C1798.712280,254.222153 1798.624268,239.295715 1806.143188,224.726257 
	C1813.214722,211.023651 1827.151611,204.558426 1842.597534,206.908813 
	C1857.382690,209.158691 1868.956909,220.413864 1871.822876,235.848495 
	C1874.603394,250.822128 1872.431030,264.692230 1861.388062,276.142914 
	C1854.352539,283.438293 1845.500854,286.122894 1835.149658,285.932922 
z"/>
<path fill="#111111" opacity="1.000000" stroke="none" 
	d="
M665.750854,259.050598 
	C662.681091,246.550125 663.526794,234.820953 669.614746,223.810638 
	C681.917114,201.561264 712.798889,200.414719 726.857727,221.598343 
	C736.125916,235.563568 736.026062,257.501160 726.504822,271.313782 
	C718.395752,283.077759 706.911438,287.697235 693.088562,285.481873 
	C678.309143,283.113159 670.002747,273.286835 665.750854,259.050598 
z"/>
<path fill="#121212" opacity="1.000000" stroke="none" 
	d="
M1259.999512,232.327011 
	C1245.698120,232.327026 1231.896606,232.327026 1218.105225,232.327026 
	C1217.911133,217.975250 1230.671387,207.084961 1247.754395,206.589462 
	C1264.963135,206.090302 1278.677856,216.980927 1279.356201,232.326996 
	C1273.063232,232.326996 1266.781250,232.326996 1259.999512,232.327011 
z"/>
<path fill="#0F0F0F" opacity="1.000000" stroke="none" 
	d="
M1622.582153,223.509460 
	C1629.869629,236.546356 1630.514038,249.872955 1625.406860,263.247437 
	C1619.404907,278.965942 1604.219116,287.688751 1587.659912,285.717712 
	C1572.406006,283.902039 1559.544800,271.060883 1557.069946,255.080948 
	C1555.453369,244.642776 1556.163452,234.452438 1561.351318,225.025131 
	C1574.503418,201.126297 1606.801147,200.199417 1622.582153,223.509460 
z"/>
<path fill="#171717" opacity="1.000000" stroke="none" 
	d="
M970.206665,458.949646 
	C969.248779,451.550964 968.770264,444.204803 968.210388,435.609253 
	C975.458679,436.229553 981.870483,436.401489 988.139465,437.437836 
	C992.880432,438.221558 995.616882,441.687378 995.726257,446.651306 
	C995.835632,451.612915 993.822205,455.959473 988.898193,457.056549 
	C982.976868,458.375793 976.769531,458.411011 970.206665,458.949646 
z"/>
<path fill="#141414" opacity="1.000000" stroke="none" 
	d="
M969.181885,411.153534 
	C974.496155,410.954651 979.523804,410.777405 984.448608,411.405914 
	C988.968384,411.982697 992.014832,414.536194 992.087280,419.711121 
	C992.158020,424.767822 989.931763,428.351868 985.102844,429.261292 
	C979.962891,430.229370 974.634277,430.196350 968.850403,430.641815 
	C968.850403,423.749176 968.850403,417.637817 969.181885,411.153534 
z"/>
<path fill="#0E0E0E" opacity="1.000000" stroke="none" 
	d="
M1436.317871,451.742371 
	C1436.592773,452.223450 1436.595947,452.925049 1436.599121,453.626648 
	C1436.303467,453.404877 1436.007812,453.183075 1435.611572,452.687561 
	C1435.689453,452.263519 1435.867920,452.113190 1436.317871,451.742371 
z"/>
<path fill="#171717" opacity="1.000000" stroke="none" 
	d="
M1254.233643,430.346741 
	C1247.390259,431.826630 1240.864990,433.082092 1233.722656,434.456207 
	C1233.722656,425.748474 1233.722656,418.574188 1233.722656,410.993256 
	C1238.477539,410.993256 1243.084106,410.708618 1247.638062,411.076599 
	C1251.844482,411.416534 1256.096436,412.608582 1257.461426,417.334045 
	C1258.803589,421.980621 1258.558594,426.553833 1254.233643,430.346741 
z"/>
<path fill="#171717" opacity="1.000000" stroke="none" 
	d="
M648.140259,417.213135 
	C650.092407,426.952301 646.410828,432.149933 637.036377,432.951508 
	C632.945862,433.301270 628.800476,433.010284 624.386658,433.010284 
	C624.386658,425.724518 624.386658,418.645569 624.386658,410.626343 
	C632.600037,412.107513 641.867188,407.503693 648.140259,417.213135 
z"/>
<path fill="#141414" opacity="1.000000" stroke="none" 
	d="
M802.847717,411.080872 
	C814.030579,409.014160 821.030640,413.069672 824.371155,423.368530 
	C826.744873,430.686584 826.700684,438.101898 824.491699,445.449005 
	C821.815613,454.349640 816.024963,459.230377 808.349182,459.281036 
	C800.495178,459.332825 794.731262,454.744293 791.980042,445.793335 
	C789.628235,438.141724 789.651245,430.369263 792.170776,422.743774 
	C793.907227,417.488373 797.129456,413.372375 802.847717,411.080872 
z"/>
<path fill="#131313" opacity="1.000000" stroke="none" 
	d="
M1317.774170,446.459534 
	C1316.448120,449.007111 1315.505127,451.389282 1313.978271,453.306396 
	C1306.968628,462.107910 1293.870483,461.411713 1288.266235,451.674622 
	C1282.204468,441.142609 1282.169434,430.013367 1287.355347,419.145203 
	C1290.224121,413.132935 1295.442505,410.048859 1302.341797,410.302979 
	C1309.266113,410.558044 1313.957153,414.264557 1316.695435,420.262451 
	C1320.514282,428.626984 1320.443237,437.336456 1317.774170,446.459534 
z"/>
<path fill="#121212" opacity="1.000000" stroke="none" 
	d="
M1468.369385,458.365540 
	C1468.021606,442.495026 1468.021606,426.931641 1468.021606,411.404053 
	C1480.249878,409.478790 1488.665161,412.647980 1492.834839,420.635315 
	C1497.781616,430.111450 1496.303345,446.254303 1489.676392,453.141327 
	C1483.864136,459.181702 1476.256958,458.915222 1468.369385,458.365540 
z"/>
<path fill="#202020" opacity="1.000000" stroke="none" 
	d="
M1031.015137,440.610809 
	C1028.263916,440.610779 1025.989136,440.610779 1022.994507,440.610779 
	C1025.988403,430.698700 1028.771362,421.484650 1031.979370,410.863281 
	C1035.219116,421.394623 1038.042969,430.574432 1041.130371,440.610840 
	C1037.617920,440.610840 1034.554688,440.610840 1031.015137,440.610809 
z"/>
<path fill="#1D1D1D" opacity="1.000000" stroke="none" 
	d="
M1774.965820,418.049988 
	C1775.692627,415.683533 1776.342163,413.701263 1777.260986,410.896759 
	C1780.366943,421.179321 1783.181885,430.498383 1786.130005,440.258362 
	C1780.165527,440.258362 1774.620850,440.258362 1768.269409,440.258362 
	C1770.516724,432.848755 1772.702515,425.641418 1774.965820,418.049988 
z"/>
</svg>