<svg version="1.1" id="Layer_1" xmlns="http://www.w3.org/2000/svg" xmlns:xlink="http://www.w3.org/1999/xlink" x="0px" y="0px"
	 width="100%" viewBox="0 0 1905 605" enable-background="new 0 0 1905 605" xml:space="preserve">
<path fill="#FEFEFE" opacity="1.000000" stroke="none" 
	d="
M1258.000000,606.000000 
	C838.666687,606.000000 419.833344,606.000000 1.000000,606.000000 
	C1.000000,404.333344 1.000000,202.666672 1.000000,1.000000 
	C636.000000,1.000000 1271.000000,1.000000 1906.000000,1.000000 
	C1906.000000,202.666672 1906.000000,404.333344 1906.000000,606.000000 
	C1690.166626,606.000000 1474.333374,606.000000 1258.000000,606.000000 
M132.967377,256.503265 
	C132.967407,357.832397 132.994186,459.161560 132.870804,560.490540 
	C132.865799,564.594604 134.074387,567.150940 137.303513,569.639893 
	C150.103195,579.505798 162.671326,589.671875 175.340836,599.707092 
	C176.318771,600.481689 177.417587,601.103760 179.192810,602.283630 
	C179.192810,599.529419 179.192810,597.591309 179.192810,595.653259 
	C179.192810,488.824066 179.213928,381.994873 179.110458,275.165802 
	C179.106583,271.173859 180.159775,269.023254 183.946732,267.227722 
	C258.443359,231.905975 332.863586,196.422989 407.302643,160.979797 
	C417.515717,156.116974 423.577667,159.859131 423.582184,171.213989 
	C423.616974,259.043915 423.584747,346.873840 423.622711,434.703766 
	C423.626953,444.563324 419.440613,451.332153 410.392670,455.618835 
	C385.259521,467.526123 360.270020,479.736664 335.227936,491.836090 
	C333.630219,492.608032 332.068024,493.453461 330.010986,494.510468 
	C331.558685,495.813995 332.610657,496.836823 333.793457,497.674988 
	C345.619080,506.054596 357.546814,514.293335 369.250183,522.839783 
	C372.145172,524.953857 374.311340,524.791016 377.335907,523.323242 
	C400.712036,511.979004 424.062317,500.570587 447.641663,489.659821 
	C463.039459,482.534882 469.947021,471.056915 469.911438,454.118469 
	C469.700897,353.956116 469.807983,253.793106 469.807129,153.630310 
	C469.807068,146.130630 469.922455,138.628357 469.765045,131.131882 
	C469.529053,119.891167 464.964447,110.579819 455.597290,104.412209 
	C444.168427,96.887093 432.226501,97.429848 419.979034,103.300919 
	C328.822449,146.998642 237.696838,190.764465 146.257828,233.864655 
	C135.862564,238.764511 130.545288,244.050995 132.967377,256.503265 
M68.802948,340.499969 
	C68.802971,397.331268 68.830612,454.162628 68.732666,510.993744 
	C68.726944,514.314758 69.673492,516.478882 72.327515,518.519775 
	C85.139145,528.371643 97.792572,538.429138 110.520477,548.390198 
	C111.752052,549.354065 113.109543,550.157104 115.192741,551.564636 
	C115.192741,548.616699 115.192741,546.666992 115.192741,544.717224 
	C115.192741,440.388000 115.239182,336.058655 115.057930,231.729752 
	C115.048698,226.416687 116.762383,223.956421 121.448273,221.727066 
	C214.822845,177.303177 308.103882,132.682678 401.452332,88.203789 
	C404.836334,86.591377 406.108429,85.025795 405.382202,81.060394 
	C401.429871,59.479767 378.911041,47.683788 359.086975,57.131531 
	C263.774445,102.555557 168.487289,148.033005 73.134163,193.371674 
	C69.732765,194.988998 68.707344,196.842163 68.717606,200.505646 
	C68.847450,246.836792 68.802917,293.168427 68.802948,340.499969 
M280.344513,70.841187 
	C299.591187,61.677467 318.801178,52.435143 338.120789,43.427860 
	C341.319183,41.936672 342.083557,40.202946 341.498169,36.880589 
	C337.487244,14.116993 314.834869,2.738576 293.267822,13.007456 
	C198.528976,58.116123 103.837875,103.325035 9.089551,148.413727 
	C5.988869,149.889282 4.748210,151.537933 4.752128,155.127075 
	C4.863105,256.784088 4.853826,358.441223 4.785676,460.098328 
	C4.783489,463.359985 5.566887,465.647308 8.277797,467.729706 
	C21.224829,477.674927 34.002087,487.840973 46.864193,497.897186 
	C47.944134,498.741516 49.205536,499.353729 51.146957,500.541321 
	C51.146957,497.408875 51.146961,495.274048 51.146961,493.139221 
	C51.146954,390.815491 51.179256,288.491730 51.038620,186.168198 
	C51.032467,181.691742 52.297752,179.495926 56.408859,177.543945 
	C130.877991,142.185410 205.260254,106.643906 280.344513,70.841187 
M391.699799,192.208282 
	C382.679657,196.503830 373.745209,200.994934 364.599091,205.003021 
	C360.694916,206.713959 359.352661,208.849106 359.365112,213.206665 
	C359.533508,272.037872 359.394592,330.869934 359.554016,389.701202 
	C359.582733,400.307068 355.206360,407.177185 345.590942,411.645355 
	C320.371185,423.364655 295.333588,435.476074 270.231476,447.448181 
	C268.815765,448.123413 267.472809,448.951172 265.480225,450.046387 
	C279.725311,460.026733 293.289307,469.636475 307.038818,478.973083 
	C308.216766,479.772919 310.860107,479.252136 312.430359,478.512177 
	C339.249298,465.874573 365.953552,452.992706 392.806213,440.427887 
	C401.928864,436.159210 405.861938,429.348267 405.851349,419.460632 
	C405.769623,343.129517 405.808044,266.798309 405.797150,190.467102 
	C405.796936,189.076828 405.647888,187.686600 405.535431,185.722336 
	C400.767212,187.965988 396.576965,189.937683 391.699799,192.208282 
M1870.990479,356.569733 
	C1889.516113,347.521667 1899.342896,332.418976 1899.690063,312.087494 
	C1900.321167,275.117645 1900.090210,238.133041 1900.206665,201.154572 
	C1900.209717,200.158417 1900.093872,199.159668 1899.996826,198.165726 
	C1899.237915,190.387833 1893.357788,185.005615 1885.671997,185.043106 
	C1878.177612,185.079666 1872.501709,190.268433 1871.589355,197.898010 
	C1871.464600,198.940582 1871.257935,199.973343 1871.000244,201.556030 
	C1869.518066,200.350998 1868.484985,199.560379 1867.505737,198.707733 
	C1843.952759,178.200211 1807.931396,181.258743 1788.168579,205.450500 
	C1768.630859,229.366669 1766.997681,267.048279 1784.381470,292.834229 
	C1800.012329,316.020050 1830.194458,324.703430 1854.352783,312.444855 
	C1860.408813,309.371826 1865.579956,304.554718 1871.006104,300.648376 
	C1873.560181,320.025177 1867.091553,331.347290 1851.689941,335.315796 
	C1846.146240,336.744263 1839.962646,337.786926 1834.458618,336.814026 
	C1824.560059,335.064362 1814.933716,331.729828 1805.232300,328.923737 
	C1797.746338,326.758484 1792.180298,328.854889 1788.865723,335.344971 
	C1785.234009,342.455750 1786.391602,349.025452 1793.150757,353.198547 
	C1797.716064,356.017212 1803.038086,357.883392 1808.256958,359.322235 
	C1829.148804,365.082092 1849.941406,365.858856 1870.990479,356.569733 
M211.979568,412.495636 
	C221.777557,419.404205 231.491882,426.437927 241.455612,433.098511 
	C243.124130,434.213867 246.307449,434.637085 248.059921,433.817413 
	C275.210663,421.118591 302.243896,408.168335 329.296753,395.260468 
	C337.808716,391.199097 341.909637,384.561859 341.889923,374.989014 
	C341.784454,323.840576 341.843445,272.691803 341.828094,221.543137 
	C341.827637,220.011108 341.634308,218.479156 341.479767,216.189316 
	C326.945709,223.077347 313.333130,229.676941 299.569885,235.945709 
	C296.186707,237.486649 295.029724,239.309692 295.046661,243.039230 
	C295.200806,277.026581 294.984955,311.015991 295.228851,345.002258 
	C295.302185,355.218384 291.285950,361.910248 281.989227,366.254852 
	C256.948334,377.956909 232.080658,390.029755 207.150787,401.969116 
	C205.434067,402.791260 203.771332,403.726135 202.063446,404.619080 
	C202.536026,405.432922 202.630692,405.799927 202.867203,405.972260 
	C205.692551,408.030945 208.538986,410.060699 211.979568,412.495636 
M699.474976,186.866302 
	C676.361816,181.723755 656.887024,187.837646 641.920471,206.312775 
	C622.784912,229.934265 621.873474,268.983032 639.447632,293.777802 
	C655.719543,316.735291 684.332703,324.540833 708.750427,312.340729 
	C713.973022,309.731293 718.572632,305.874939 723.489563,302.572723 
	C725.765564,311.901276 731.526672,316.593323 739.484924,315.689545 
	C746.878296,314.849915 752.167603,309.171326 752.185303,301.487274 
	C752.264099,267.343536 752.294556,233.199234 752.173706,199.055725 
	C752.138916,189.225021 743.317932,183.013596 733.845215,185.701294 
	C727.099365,187.615280 724.395508,192.785767 723.497925,198.237350 
	C715.696167,194.471695 707.986633,190.750534 699.474976,186.866302 
M987.548157,249.499771 
	C987.578552,266.990173 987.416870,284.483917 987.723572,301.969513 
	C987.868225,310.214172 993.990234,315.779541 1001.817322,315.796051 
	C1009.602234,315.812469 1016.069336,310.105591 1016.099670,302.084259 
	C1016.193604,277.270966 1016.195618,252.448441 1015.576965,227.645874 
	C1015.336365,218.000732 1012.873962,208.584320 1007.498657,200.167877 
	C996.476135,182.909683 970.804565,182.064529 957.594543,188.767441 
	C949.808777,192.717987 942.965637,198.526276 935.804382,203.426666 
	C935.804382,202.779160 935.804443,201.174133 935.804382,199.569092 
	C935.804138,184.409790 935.856445,169.250214 935.782532,154.091278 
	C935.742432,145.874634 931.647705,140.293152 924.854919,138.803574 
	C914.540955,136.541840 906.982727,143.073853 906.972900,154.485779 
	C906.931274,202.795639 906.950073,251.105545 906.978394,299.415436 
	C906.979431,301.233429 907.113403,303.095764 907.518372,304.861053 
	C908.910645,310.931122 913.586426,314.996429 919.738220,315.688660 
	C928.762451,316.704102 935.723145,310.115875 935.772461,300.168640 
	C935.872314,280.012238 935.767456,259.854919 935.814209,239.698166 
	C935.862671,218.801758 952.413269,208.089340 972.466370,212.597504 
	C979.863892,214.260529 984.434509,219.478699 985.693298,226.685394 
	C986.944214,233.846390 986.979736,241.219681 987.548157,249.499771 
M1289.920410,282.305481 
	C1283.838867,280.056580 1278.423340,281.984528 1273.384644,285.235046 
	C1264.581055,290.914276 1254.905640,292.546722 1244.715210,291.606384 
	C1228.203247,290.082764 1213.720093,276.784332 1212.252686,261.677612 
	C1214.095459,261.677612 1215.902466,261.677582 1217.709595,261.677582 
	C1240.856079,261.677582 1264.002441,261.693451 1287.148926,261.653107 
	C1289.465210,261.649078 1291.823242,261.519470 1294.089233,261.076538 
	C1301.220459,259.682678 1305.286011,254.544586 1305.278931,247.327728 
	C1305.269653,237.819138 1302.865356,228.900467 1298.705200,220.419022 
	C1284.415894,191.287735 1253.063965,177.786057 1223.865356,189.116592 
	C1199.780884,198.462662 1186.954590,217.155670 1183.827393,242.498993 
	C1181.483398,261.496307 1184.421997,279.515106 1196.851440,294.759460 
	C1212.998779,314.563690 1234.756104,320.165222 1259.128906,317.365448 
	C1271.354614,315.961090 1282.827026,311.830383 1292.081055,303.251312 
	C1299.346191,296.516144 1298.602539,288.424011 1289.920410,282.305481 
M1633.806152,201.686234 
	C1613.623169,184.045380 1584.348877,179.966888 1561.056885,191.550735 
	C1535.649292,204.186783 1522.248657,228.945160 1525.252563,259.357605 
	C1530.574463,313.235962 1587.849731,331.721832 1625.505981,308.077240 
	C1662.810181,284.653656 1663.969238,228.595703 1633.806152,201.686234 
M1361.721436,225.465332 
	C1368.790527,212.945389 1382.173218,209.617538 1396.057983,212.507431 
	C1406.682617,214.718750 1411.633057,222.289047 1411.984375,237.573669 
	C1412.443604,257.556274 1412.104492,277.556427 1412.244507,297.548096 
	C1412.266357,300.668213 1412.506592,303.957794 1413.518799,306.865051 
	C1415.757446,313.294556 1422.455322,316.780548 1429.180176,315.584534 
	C1436.214233,314.333527 1440.923218,308.699646 1440.952148,301.000793 
	C1441.034058,279.174591 1441.241943,257.343079 1440.838135,235.524078 
	C1440.700684,228.103149 1439.408203,220.592361 1437.720337,213.337479 
	C1435.198486,202.498978 1429.435547,193.372757 1418.797607,189.052307 
	C1403.111816,182.681808 1387.458618,183.278336 1372.943970,192.664169 
	C1367.742798,196.027618 1363.274536,200.524490 1358.154419,204.766937 
	C1358.092163,203.699219 1358.029053,202.781525 1357.986572,201.862869 
	C1357.603027,193.567062 1352.490112,188.014206 1344.899780,187.654861 
	C1336.274170,187.246506 1330.609131,191.970337 1329.556396,200.551880 
	C1329.293823,202.691574 1329.207397,204.864761 1329.205322,207.022705 
	C1329.181641,231.348389 1329.175781,255.674118 1329.199097,279.999817 
	C1329.205933,287.160614 1328.982544,294.344269 1329.468628,301.476257 
	C1330.083984,310.505035 1336.118530,316.050873 1344.198730,315.771301 
	C1352.566040,315.481812 1357.967285,309.364532 1357.977661,300.071472 
	C1357.998779,281.244080 1357.724365,262.410889 1358.138306,243.592560 
	C1358.266968,237.750244 1360.222656,231.948120 1361.721436,225.465332 
M1076.219238,265.500061 
	C1076.219238,259.169098 1076.219116,252.838120 1076.219116,246.507141 
	C1076.219116,245.007690 1076.276123,243.505768 1076.210693,242.009171 
	C1075.339111,222.068863 1089.956665,207.836990 1113.974609,212.406830 
	C1121.892456,213.913345 1126.989746,219.232010 1128.634399,227.059250 
	C1129.822388,232.713089 1130.401001,238.584244 1130.468994,244.367691 
	C1130.690186,263.191498 1130.523071,282.019562 1130.567383,300.845856 
	C1130.583496,307.712921 1134.046509,312.905884 1139.708252,314.898132 
	C1149.102173,318.203644 1158.613403,312.304108 1158.889771,302.191559 
	C1159.376343,284.379272 1159.307617,266.546021 1159.151611,248.724380 
	C1159.074585,239.918076 1158.764893,231.059586 1157.702393,222.329147 
	C1156.195068,209.943405 1152.044556,198.567123 1140.972290,191.281479 
	C1125.873169,181.346329 1101.823242,183.342056 1086.658081,195.661789 
	C1083.273804,198.411163 1080.190308,201.530762 1076.469482,204.936523 
	C1076.245605,202.643311 1076.161011,201.022888 1075.918701,199.426392 
	C1074.912720,192.797882 1069.612183,187.990814 1062.992798,187.645584 
	C1053.665039,187.159073 1047.648682,192.829819 1047.584595,202.555679 
	C1047.471436,219.715271 1047.551758,236.876129 1047.551880,254.036469 
	C1047.551880,269.530762 1047.581665,285.025116 1047.539673,300.519287 
	C1047.522095,306.967163 1050.072388,311.913757 1056.020996,314.577515 
	C1065.197021,318.686554 1075.452637,312.678131 1075.923950,302.472931 
	C1076.476685,290.502991 1076.159302,278.492828 1076.219238,265.500061 
M815.843079,222.343994 
	C828.977295,209.504379 848.286377,207.980652 863.724792,218.565536 
	C868.952148,222.149506 875.754089,222.570831 879.638367,219.551315 
	C883.698792,216.394836 885.639526,209.134201 883.882202,203.546707 
	C881.919678,197.306595 877.202942,193.493240 871.564087,191.202805 
	C851.947327,183.234695 831.940369,182.100815 812.369873,190.802521 
	C792.619324,199.584290 781.648315,215.712494 777.801575,236.702454 
	C774.887390,252.603989 775.970276,268.273956 782.864258,283.084656 
	C792.864746,304.569000 809.760010,316.407928 833.555969,317.859863 
	C848.966248,318.800110 863.801819,316.586395 877.305542,308.530792 
	C881.523193,306.014832 885.263733,302.859711 885.856567,297.516449 
	C886.451599,292.153107 884.921692,287.332611 880.119812,284.586029 
	C874.589233,281.422607 868.999573,282.179749 863.729126,285.873291 
	C849.842468,295.604980 828.255127,293.503815 816.427856,281.357819 
	C801.664124,266.196320 801.176270,240.090271 815.843079,222.343994 
M577.219360,262.499023 
	C577.219360,247.241379 577.219360,231.983734 577.219360,216.305496 
	C579.738037,216.305496 581.542786,216.328568 583.346741,216.300751 
	C587.343201,216.239151 591.353821,216.341339 595.332336,216.034653 
	C602.875854,215.453140 607.841858,210.165512 607.796692,203.077713 
	C607.752197,196.082306 602.493286,190.345428 595.299622,189.987625 
	C589.396301,189.694000 583.466675,189.927780 577.210144,189.927780 
	C577.210144,183.994202 577.363098,178.845200 577.175903,173.708588 
	C576.857544,164.971146 570.189270,159.222046 561.576294,160.036499 
	C554.560791,160.699875 549.256226,165.906906 548.831055,173.115814 
	C548.511414,178.536087 548.767822,183.990341 548.767822,189.923279 
	C544.149719,189.923279 540.333496,189.707947 536.549438,189.964844 
	C526.413940,190.652924 520.900330,200.954056 525.939026,209.657990 
	C528.280518,213.702820 531.852478,215.860153 536.554260,216.076172 
	C540.454529,216.255371 544.354736,216.436172 548.551697,216.629959 
	C548.551697,219.060532 548.545837,220.870789 548.552551,222.681030 
	C548.630676,243.677399 548.616394,264.674713 548.828918,285.669739 
	C548.939819,296.620117 552.201233,306.570953 562.743347,311.460968 
	C575.158386,317.219666 588.138611,318.383850 600.458374,310.642853 
	C606.641724,306.757538 608.467590,300.066833 605.574585,294.141144 
	C603.131836,289.137665 598.970825,287.942505 591.340942,290.052979 
	C582.641113,292.459381 577.645447,288.982056 577.274475,279.996002 
	C577.047791,274.505341 577.224060,268.998016 577.219360,262.499023 
M1756.879395,188.508392 
	C1749.729492,183.502548 1741.985229,184.836884 1734.271606,186.506287 
	C1723.609985,188.813660 1715.217651,194.716064 1708.321533,204.218201 
	C1708.060181,202.167191 1707.951416,201.086609 1707.781494,200.015717 
	C1706.553101,192.272232 1701.102905,187.616531 1693.329224,187.655045 
	C1685.816772,187.692261 1680.464600,192.281403 1679.284912,199.850037 
	C1678.979126,201.811569 1678.967651,203.832321 1678.966431,205.825958 
	C1678.948120,236.304062 1678.940186,266.782196 1678.979492,297.260254 
	C1678.982666,299.742584 1679.081421,302.280823 1679.595215,304.695312 
	C1680.850952,310.596069 1685.329224,314.661560 1691.199463,315.612549 
	C1700.296753,317.086365 1707.813843,310.458496 1707.915283,300.362213 
	C1708.097656,282.210419 1707.840942,264.053894 1708.069092,245.903137 
	C1708.133301,240.795593 1708.740112,235.573700 1709.982910,230.626526 
	C1712.888428,219.060974 1721.807373,210.836761 1732.011475,210.557526 
	C1736.195435,210.443024 1740.445679,211.993500 1744.632812,212.933456 
	C1752.045654,214.597534 1758.237183,212.374298 1761.063354,206.902298 
	C1764.414795,200.413300 1763.204590,194.339233 1756.879395,188.508392 
M1572.547363,442.851990 
	C1570.172974,433.665314 1567.705811,424.501038 1565.479736,415.278534 
	C1564.795410,412.443085 1563.772095,411.141174 1560.537964,411.098358 
	C1557.184814,411.054016 1556.733765,412.999817 1556.172119,415.316223 
	C1552.721802,429.548798 1549.274902,443.782196 1545.812988,458.011932 
	C1545.508545,459.263519 1545.102417,460.490387 1544.743408,461.728729 
	C1541.101074,446.940979 1538.330322,432.236481 1535.520874,417.539398 
	C1534.163452,410.437897 1534.091553,410.418793 1526.284790,411.934570 
	C1530.550659,432.042206 1534.814575,452.140839 1539.046265,472.086914 
	C1548.334961,472.783936 1548.325684,472.781677 1550.344116,464.467987 
	C1551.483032,459.776733 1552.673950,455.098145 1553.813354,450.407013 
	C1555.941895,441.643860 1558.049927,432.875702 1560.166504,424.109650 
	C1560.424805,424.134705 1560.683228,424.159760 1560.941650,424.184814 
	C1564.953735,440.244568 1568.965820,456.304321 1572.978760,472.367706 
	C1574.423462,472.367706 1575.274780,472.244415 1576.078613,472.387848 
	C1581.000122,473.266174 1582.974854,471.216583 1583.817383,466.271545 
	C1585.717773,455.117737 1588.312866,444.083008 1590.585205,432.991608 
	C1592.035278,425.914398 1593.413696,418.822540 1594.809204,411.812988 
	C1589.409180,410.117523 1586.632202,411.394623 1586.311523,416.873871 
	C1586.147461,419.676544 1585.303223,422.438782 1584.775024,425.220917 
	C1582.457642,437.429016 1580.143433,449.637695 1577.828247,461.846191 
	C1577.519653,461.883850 1577.211060,461.921539 1576.902588,461.959198 
	C1575.518677,455.857117 1574.134888,449.755005 1572.547363,442.851990 
M731.069458,445.237610 
	C727.787781,436.170441 724.517944,427.098938 721.220764,418.037415 
	C718.488098,410.527161 718.473816,410.532349 709.974854,411.677917 
	C709.974854,431.729767 709.974854,451.813202 709.974854,472.109406 
	C712.238770,472.109406 714.307617,472.109406 716.894897,472.109406 
	C716.894897,456.787506 716.894897,441.723328 716.894897,426.659149 
	C718.473450,427.893341 719.166809,429.289062 719.702148,430.742981 
	C723.550964,441.195648 727.276001,451.695526 731.287292,462.085022 
	C731.932678,463.756744 733.809021,464.953217 735.116333,466.369354 
	C736.375000,464.874390 738.147034,463.576477 738.808655,461.852386 
	C742.978577,450.985718 746.894836,440.021820 750.916504,429.098022 
	C751.358582,427.897156 751.938293,426.746979 752.454102,425.573273 
	C752.810120,425.701752 753.166138,425.830261 753.522156,425.958740 
	C753.522156,441.313477 753.522156,456.668182 753.522156,472.059692 
	C755.999207,472.059692 758.084351,472.059692 760.270874,472.059692 
	C760.270874,451.704041 760.270874,431.668488 760.270874,411.683807 
	C751.617859,410.538391 751.606445,410.534302 748.911621,418.074554 
	C746.113953,425.902252 743.345215,433.740326 740.556580,441.571259 
	C738.934753,446.125305 737.298523,450.674225 735.193542,456.552795 
	C733.578186,452.121002 732.458008,449.047760 731.069458,445.237610 
M991.728882,431.952087 
	C995.012085,421.806763 990.963928,413.987305 980.444153,412.380768 
	C971.830627,411.065369 962.978821,411.310486 953.992676,410.851562 
	C953.992676,431.788818 953.992676,451.864227 953.992676,471.811188 
	C963.003235,471.811188 971.777527,472.003052 980.533936,471.690765 
	C983.063782,471.600525 985.706787,470.367859 988.012207,469.127808 
	C994.231079,465.782806 996.703552,460.298645 996.353333,453.351379 
	C996.011536,446.569092 992.095703,442.828003 986.017456,440.809021 
	C985.253845,440.555420 984.537231,440.160248 983.798828,439.830688 
	C984.291443,440.234375 984.784058,440.638062 985.276672,441.041748 
	C987.309998,438.241608 989.343262,435.441437 991.728882,431.952087 
M1439.825928,413.049469 
	C1437.671753,412.256836 1435.517700,411.464203 1432.627930,410.400879 
	C1432.627930,427.773285 1432.627930,443.829102 1432.627930,460.570496 
	C1423.873047,445.345367 1415.285767,430.943146 1407.292847,416.218231 
	C1404.562622,411.188751 1401.315063,410.347015 1396.366577,411.827057 
	C1396.366577,431.925354 1396.366577,451.840027 1396.366577,471.948486 
	C1398.949951,471.948486 1401.295166,471.948486 1403.410645,471.948486 
	C1403.410645,455.495117 1403.410645,439.464172 1403.410645,422.739227 
	C1404.100342,423.889099 1404.510986,424.541504 1404.890503,425.211670 
	C1412.839478,439.249054 1421.024536,453.160828 1428.602661,467.395721 
	C1431.303955,472.470001 1434.637939,473.269104 1439.839600,471.771210 
	C1439.839600,452.510132 1439.839600,433.230804 1439.825928,413.049469 
M606.509094,427.503174 
	C606.509094,442.278351 606.509094,457.053528 606.509094,471.925079 
	C609.351624,471.925079 611.696045,471.925079 614.391235,471.925079 
	C614.391235,463.402588 614.391235,455.307922 614.391235,447.280487 
	C624.674927,445.606689 624.801331,445.666687 629.592834,454.089539 
	C632.059265,458.425354 634.932739,462.584564 636.898621,467.136139 
	C639.260681,472.605133 643.014526,473.221100 648.464355,471.724579 
	C643.470154,463.058868 638.629211,454.659149 633.673706,446.060547 
	C635.478394,445.219666 636.839539,444.648987 638.142822,443.967590 
	C644.998962,440.382965 648.110107,433.539978 646.835388,424.924805 
	C645.830994,418.136993 641.009399,412.829010 633.403137,412.205078 
	C624.693481,411.490601 615.880066,412.039490 606.509155,412.039490 
	C606.509155,416.613739 606.509155,421.559784 606.509094,427.503174 
M1228.269287,464.328979 
	C1228.269287,458.582977 1228.269287,452.836945 1228.269287,447.187805 
	C1238.780273,445.924896 1238.784424,445.922485 1243.370605,453.924652 
	C1246.015137,458.539154 1248.636475,463.166840 1251.280640,467.781555 
	C1254.328003,473.099762 1255.711060,473.567139 1262.130615,471.344666 
	C1257.324707,463.003693 1252.538330,454.696442 1247.627930,446.174103 
	C1249.678955,445.119476 1251.489258,444.326202 1253.160400,443.305267 
	C1260.043701,439.100342 1261.671875,432.563629 1260.742554,425.155365 
	C1259.876343,418.250427 1255.659302,413.547302 1248.991577,412.646637 
	C1239.731689,411.395752 1230.309448,411.347595 1220.845337,410.777863 
	C1220.845337,431.969360 1220.845337,452.002563 1220.845337,472.009949 
	C1223.421997,472.009949 1225.658691,472.009949 1227.780396,472.009949 
	C1228.004761,471.364532 1228.195190,471.062073 1228.202881,470.755066 
	C1228.248413,468.926880 1228.251709,467.097595 1228.269287,464.328979 
M777.770020,423.295227 
	C772.498474,434.620026 772.188049,446.177856 776.783203,457.694763 
	C780.807617,467.781311 788.489136,473.239105 799.449219,473.561523 
	C809.713623,473.863495 818.746521,467.820526 822.873962,457.916748 
	C826.657776,448.837494 827.064087,439.414124 824.451416,430.016327 
	C821.548889,419.576385 815.116028,412.364746 803.967163,410.657654 
	C792.834778,408.953125 784.046082,412.858307 777.770020,423.295227 
M1313.145264,467.662689 
	C1325.424316,457.676849 1326.095337,432.250702 1317.151489,420.197083 
	C1306.437866,405.758453 1283.627686,407.136078 1275.285522,423.042786 
	C1269.555054,433.969635 1269.396606,445.529907 1273.737427,456.918091 
	C1280.126343,473.678741 1298.023682,478.694092 1313.145264,467.662689 
M1492.476440,464.971863 
	C1501.667847,454.450470 1503.455444,434.989777 1496.299316,423.355530 
	C1489.768066,412.737366 1472.546997,407.799011 1456.909180,412.022095 
	C1456.909180,432.064087 1456.909180,452.085266 1456.909180,472.315430 
	C1463.104614,472.315430 1468.915405,472.481567 1474.712524,472.271210 
	C1481.203979,472.035645 1487.101440,469.991150 1492.476440,464.971863 
M1179.114380,464.858521 
	C1166.507935,459.435516 1165.234863,437.789734 1170.680664,427.534790 
	C1174.688843,419.987091 1182.271484,415.684174 1190.526489,417.384430 
	C1194.127808,418.126190 1197.449097,420.228088 1201.454956,421.952148 
	C1202.367676,420.912537 1203.633911,419.470398 1204.869995,418.062531 
	C1193.537598,405.487610 1172.339722,408.422211 1163.988403,423.716614 
	C1157.858032,434.943756 1157.818726,446.863831 1162.973267,458.386993 
	C1169.713989,473.455444 1189.214722,478.404663 1202.817749,468.904480 
	C1204.085938,468.018738 1205.781494,466.546722 1205.823486,465.298096 
	C1206.095093,457.221405 1205.962646,449.131104 1205.962646,441.204285 
	C1198.865234,441.204285 1192.447876,441.204285 1186.194214,441.204285 
	C1186.194214,443.353821 1186.194214,445.138489 1186.194214,447.605530 
	C1190.503906,447.605530 1194.551392,447.605530 1198.760498,447.605530 
	C1198.760498,450.618927 1198.760376,452.946991 1198.760498,455.275055 
	C1198.760620,464.445801 1195.435913,467.501526 1186.152466,466.619507 
	C1184.031982,466.418030 1181.964478,465.659241 1179.114380,464.858521 
M1111.142212,446.499969 
	C1111.142212,454.943512 1111.142212,463.387085 1111.142212,471.962341 
	C1114.046509,471.962341 1116.406494,471.962341 1119.343506,471.962341 
	C1117.937378,459.944244 1118.082397,448.689941 1129.929932,441.605011 
	C1134.843506,450.095245 1140.118164,458.400970 1144.533325,467.140839 
	C1147.195068,472.409760 1150.637329,473.271027 1156.052246,471.736633 
	C1150.551636,462.287750 1145.220215,453.113495 1139.872925,443.948486 
	C1134.457520,434.666718 1134.445435,434.666534 1141.121582,426.466339 
	C1145.036133,421.658142 1148.970215,416.865814 1153.118530,411.793457 
	C1147.340332,410.279602 1143.525513,411.441895 1140.735718,415.926422 
	C1139.255127,418.306335 1137.173462,420.312164 1135.364380,422.487946 
	C1130.309326,428.567505 1125.254883,434.647461 1120.200195,440.727295 
	C1119.842896,440.605713 1119.485718,440.484161 1119.128418,440.362579 
	C1119.128418,430.844025 1119.128418,421.325439 1119.128418,411.661560 
	C1116.142822,411.661560 1113.791626,411.661560 1111.142212,411.661560 
	C1111.142212,423.224365 1111.142212,434.362152 1111.142212,446.499969 
M1715.078979,436.768677 
	C1706.008057,436.768677 1696.937012,436.768677 1687.504517,436.768677 
	C1687.504517,428.101868 1687.504517,419.985748 1687.504517,411.551971 
	C1684.908936,411.551971 1682.685547,411.551971 1680.202393,411.551971 
	C1680.202393,431.826172 1680.202393,451.872833 1680.202393,472.039062 
	C1682.742798,472.039062 1684.980591,472.039062 1687.741699,472.039062 
	C1687.741699,462.479584 1687.741699,453.248749 1687.741699,444.033081 
	C1697.347046,444.033081 1706.421997,444.033081 1716.040283,444.033081 
	C1716.040283,453.549713 1716.040283,462.776520 1716.040283,472.111572 
	C1718.861206,472.111572 1721.125854,472.111572 1723.536133,472.111572 
	C1723.536133,451.788422 1723.536133,431.734192 1723.536133,411.494171 
	C1720.972778,411.494171 1718.724487,411.494171 1715.729736,411.494171 
	C1715.729736,419.860077 1715.729736,427.969238 1715.078979,436.768677 
M1344.998413,456.959717 
	C1344.610718,453.334991 1343.934692,449.713928 1343.888672,446.084900 
	C1343.743774,434.653839 1343.835205,423.219818 1343.835205,411.632904 
	C1340.938965,411.632904 1338.571655,411.632904 1336.768555,411.632904 
	C1336.768555,426.634247 1335.938843,441.301758 1337.029419,455.825043 
	C1337.911987,467.578094 1346.139771,473.575043 1357.867798,473.637817 
	C1369.279907,473.698914 1377.789917,467.795593 1378.700928,456.387390 
	C1379.882690,441.588196 1378.989502,426.623322 1378.989502,411.493347 
	C1377.177246,411.493347 1375.100464,411.493347 1372.503174,411.493347 
	C1372.503174,414.360687 1372.538452,416.984497 1372.497192,419.607117 
	C1372.322021,430.744904 1372.472412,441.902832 1371.817383,453.013000 
	C1371.346313,461.003418 1366.950806,465.480774 1360.184082,466.555939 
	C1353.365479,467.639343 1348.559326,464.797211 1344.998413,456.959717 
M671.498901,443.719940 
	C678.084900,443.719940 684.670837,443.719940 691.238342,443.719940 
	C691.238342,441.078674 691.238342,439.183075 691.238342,436.884399 
	C683.601624,436.884399 676.341614,436.884399 668.856812,436.884399 
	C668.856812,430.420654 668.856812,424.365692 668.856812,417.710785 
	C677.945007,417.710785 686.814575,417.710785 695.591492,417.710785 
	C695.591492,415.326752 695.591492,413.553101 695.591492,411.509155 
	C683.961365,411.509155 672.577332,411.509155 661.156494,411.509155 
	C661.156494,431.900696 661.156494,452.070068 661.156494,472.127258 
	C673.177246,472.127258 684.790955,472.127258 696.562378,472.127258 
	C696.562378,469.992767 696.562378,468.099915 696.562378,465.769775 
	C687.211426,465.769775 678.128906,465.769775 668.640320,465.769775 
	C668.640320,458.714325 668.593323,452.090912 668.720947,445.470886 
	C668.732361,444.879456 669.877075,444.309906 671.498901,443.719940 
M1041.993164,447.336731 
	C1038.325684,436.478882 1034.485107,425.674683 1031.090454,414.732147 
	C1029.999756,411.216309 1027.879761,411.285522 1025.091309,411.170319 
	C1022.162231,411.049255 1020.686218,411.929382 1019.731262,414.873993 
	C1015.222717,428.775787 1010.457214,442.594208 1005.791077,456.444977 
	C1004.065063,461.568298 1002.360291,466.698700 1000.638977,471.846405 
	C1006.256042,473.382080 1009.323975,472.157043 1010.318909,466.456329 
	C1011.050781,462.263184 1012.840149,458.254639 1014.241516,453.905487 
	C1017.169983,453.905487 1019.982849,453.855591 1022.793274,453.916931 
	C1027.254883,454.014252 1032.885010,452.595612 1035.845459,454.774231 
	C1038.794067,456.944092 1039.119873,462.736938 1040.493286,466.974457 
	C1042.516602,473.217346 1042.496460,473.239502 1050.191162,471.599915 
	C1047.532593,463.728149 1044.890991,455.906616 1041.993164,447.336731 
M1787.496826,454.762177 
	C1789.330933,460.609161 1791.165161,466.456177 1792.903564,471.998199 
	C1795.843506,471.998199 1798.243042,471.998199 1801.186035,471.998199 
	C1794.677979,452.786530 1788.241699,434.100494 1782.084473,415.322968 
	C1780.976074,411.942566 1779.301025,411.142639 1775.988037,411.117706 
	C1772.671875,411.092773 1771.410889,412.367645 1770.430664,415.340240 
	C1764.543091,433.193909 1758.450806,450.980011 1752.454346,468.797943 
	C1752.113159,469.811768 1752.012939,470.906677 1751.813232,471.900635 
	C1757.364624,473.563812 1760.232178,471.787354 1761.162964,466.301453 
	C1761.714355,463.050873 1762.830444,459.827209 1764.188477,456.815002 
	C1764.759644,455.548035 1766.585449,454.081085 1767.885132,454.037994 
	C1774.199341,453.828735 1780.528320,454.071259 1787.496826,454.762177 
M896.726685,465.834015 
	C895.769531,465.250549 893.998169,464.691071 893.980286,464.079987 
	C893.781677,457.329895 893.855286,450.571777 893.855286,443.355225 
	C901.953369,443.355225 909.353333,443.355225 916.783813,443.355225 
	C916.783813,441.095917 916.783813,439.321899 916.783813,437.053314 
	C909.156311,437.053314 901.746399,437.053314 894.093933,437.053314 
	C894.093933,430.494019 894.093933,424.429535 894.093933,417.849670 
	C903.104858,417.849670 911.990662,417.849670 920.938721,417.849670 
	C920.938721,415.427490 920.938721,413.522675 920.938721,411.553711 
	C909.183899,411.553711 897.772705,411.553711 886.258789,411.553711 
	C886.258789,431.907776 886.258789,451.944000 886.258789,471.966980 
	C898.313049,471.966980 910.018982,471.966980 921.790649,471.966980 
	C921.790649,469.807281 921.790649,468.047913 921.790649,465.834473 
	C913.609863,465.834473 905.651123,465.834473 896.726685,465.834015 
M840.829102,420.478638 
	C837.822937,410.533875 837.822937,410.533875 830.283386,411.739899 
	C830.283386,412.209900 830.162292,412.727814 830.300842,413.163116 
	C836.258850,431.880341 842.321716,450.564819 848.143372,469.324188 
	C849.200562,472.730713 851.431458,472.337891 853.922058,472.397217 
	C856.557922,472.459991 858.479370,472.351440 859.493591,469.036774 
	C865.141663,450.578217 871.091431,432.212006 876.908630,413.804901 
	C877.127502,413.112213 877.043213,412.323700 877.086609,411.756775 
	C871.400635,409.867920 869.170227,412.108215 867.783325,417.329437 
	C864.109802,431.158783 859.857300,444.834534 855.810791,458.564209 
	C855.381104,460.021942 854.790100,461.432098 853.756226,464.300659 
	C849.203796,448.916992 845.111450,435.087738 840.829102,420.478638 
M1058.923584,460.499542 
	C1068.891846,476.163940 1089.039795,478.192749 1099.694458,464.391479 
	C1098.373901,463.009003 1097.027954,461.599976 1095.607910,460.113342 
	C1094.298218,461.208344 1093.315186,462.092987 1092.268921,462.894989 
	C1083.656494,469.496857 1072.145630,467.673126 1066.894531,458.224182 
	C1060.901733,447.440796 1060.878296,436.105499 1067.000732,425.341919 
	C1072.013062,416.529755 1082.920776,414.570740 1091.231689,420.330383 
	C1092.164307,420.976685 1093.075928,421.653168 1094.286133,422.523438 
	C1095.716553,420.895111 1096.977783,419.459290 1098.196045,418.072571 
	C1089.239258,407.743713 1072.897827,407.740753 1063.308838,417.710510 
	C1053.733276,427.666412 1051.770142,445.275574 1058.923584,460.499542 
M1502.074707,293.512390 
	C1499.898560,284.732605 1495.007202,281.963196 1483.228027,282.841827 
	C1476.348389,283.354980 1472.148560,286.864685 1470.962158,293.092346 
	C1469.030518,303.231812 1471.405151,310.913116 1477.410278,313.938477 
	C1477.854980,314.162445 1478.301392,314.392059 1478.767822,314.562134 
	C1493.142212,319.803192 1503.585571,311.995544 1502.515503,296.805450 
	C1502.457275,295.978821 1502.307617,295.158630 1502.074707,293.512390 
M1634.544922,411.223846 
	C1631.257202,411.223846 1627.969482,411.223846 1624.429932,411.223846 
	C1624.429932,413.686462 1624.429932,415.571960 1624.429932,417.913574 
	C1630.650391,417.913574 1636.588135,417.913574 1642.937012,417.913574 
	C1642.937012,436.300751 1642.937012,454.234741 1642.937012,472.065430 
	C1645.635376,472.065430 1647.906738,472.065430 1650.735107,472.065430 
	C1650.735107,453.895447 1650.735107,436.029907 1650.735107,417.781677 
	C1657.062500,417.781677 1662.832031,417.781677 1668.718384,417.781677 
	C1668.718384,415.491425 1668.718384,413.600464 1668.718384,411.223877 
	C1657.453003,411.223877 1646.492920,411.223877 1634.544922,411.223846 
M1608.622803,472.330872 
	C1610.055176,472.219971 1611.487671,472.109100 1612.848145,472.003784 
	C1612.848145,451.613373 1612.848145,431.613403 1612.848145,411.477020 
	C1610.336182,411.477020 1608.222290,411.477020 1606.100220,411.477020 
	C1605.883423,412.117157 1605.592529,412.576630 1605.591675,413.036621 
	C1605.557251,431.829620 1605.514526,450.622894 1605.634644,469.415070 
	C1605.640869,470.390594 1607.063599,471.357086 1608.622803,472.330872 
M1809.916260,413.868744 
	C1809.916260,433.238159 1809.916260,452.607544 1809.916260,472.102081 
	C1812.862427,472.102081 1815.122192,472.102081 1817.579224,472.102081 
	C1817.579224,451.821991 1817.579224,431.807251 1817.579224,410.538788 
	C1814.670532,411.457764 1812.304932,412.205139 1809.916260,413.868744 
z"/>
<path fill="#0289C3" opacity="1.000000" stroke="none" 
	d="
M132.967377,256.004578 
	C130.545288,244.050995 135.862564,238.764511 146.257828,233.864655 
	C237.696838,190.764465 328.822449,146.998642 419.979034,103.300919 
	C432.226501,97.429848 444.168427,96.887093 455.597290,104.412209 
	C464.964447,110.579819 469.529053,119.891167 469.765045,131.131882 
	C469.922455,138.628357 469.807068,146.130630 469.807129,153.630310 
	C469.807983,253.793106 469.700897,353.956116 469.911438,454.118469 
	C469.947021,471.056915 463.039459,482.534882 447.641663,489.659821 
	C424.062317,500.570587 400.712036,511.979004 377.335907,523.323242 
	C374.311340,524.791016 372.145172,524.953857 369.250183,522.839783 
	C357.546814,514.293335 345.619080,506.054596 333.793457,497.674988 
	C332.610657,496.836823 331.558685,495.813995 330.010986,494.510468 
	C332.068024,493.453461 333.630219,492.608032 335.227936,491.836090 
	C360.270020,479.736664 385.259521,467.526123 410.392670,455.618835 
	C419.440613,451.332153 423.626953,444.563324 423.622711,434.703766 
	C423.584747,346.873840 423.616974,259.043915 423.582184,171.213989 
	C423.577667,159.859131 417.515717,156.116974 407.302643,160.979797 
	C332.863586,196.422989 258.443359,231.905975 183.946732,267.227722 
	C180.159775,269.023254 179.106583,271.173859 179.110458,275.165802 
	C179.213928,381.994873 179.192810,488.824066 179.192810,595.653259 
	C179.192810,597.591309 179.192810,599.529419 179.192810,602.283630 
	C177.417587,601.103760 176.318771,600.481689 175.340836,599.707092 
	C162.671326,589.671875 150.103195,579.505798 137.303513,569.639893 
	C134.074387,567.150940 132.865799,564.594604 132.870804,560.490540 
	C132.994186,459.161560 132.967407,357.832397 132.967377,256.004578 
z"/>
<path fill="#DD0275" opacity="1.000000" stroke="none" 
	d="
M68.802917,339.999939 
	C68.802917,293.168427 68.847450,246.836792 68.717606,200.505646 
	C68.707344,196.842163 69.732765,194.988998 73.134163,193.371674 
	C168.487289,148.033005 263.774445,102.555557 359.086975,57.131531 
	C378.911041,47.683788 401.429871,59.479767 405.382202,81.060394 
	C406.108429,85.025795 404.836334,86.591377 401.452332,88.203789 
	C308.103882,132.682678 214.822845,177.303177 121.448273,221.727066 
	C116.762383,223.956421 115.048698,226.416687 115.057930,231.729752 
	C115.239182,336.058655 115.192741,440.388000 115.192741,544.717224 
	C115.192741,546.666992 115.192741,548.616699 115.192741,551.564636 
	C113.109543,550.157104 111.752052,549.354065 110.520477,548.390198 
	C97.792572,538.429138 85.139145,528.371643 72.327515,518.519775 
	C69.673492,516.478882 68.726944,514.314758 68.732666,510.993744 
	C68.830612,454.162628 68.802971,397.331268 68.802917,339.999939 
z"/>
<path fill="#F8D033" opacity="1.000000" stroke="none" 
	d="
M280.002777,70.991302 
	C205.260254,106.643906 130.877991,142.185410 56.408859,177.543945 
	C52.297752,179.495926 51.032467,181.691742 51.038620,186.168198 
	C51.179256,288.491730 51.146954,390.815491 51.146961,493.139221 
	C51.146961,495.274048 51.146957,497.408875 51.146957,500.541321 
	C49.205536,499.353729 47.944134,498.741516 46.864193,497.897186 
	C34.002087,487.840973 21.224829,477.674927 8.277797,467.729706 
	C5.566887,465.647308 4.783489,463.359985 4.785676,460.098328 
	C4.853826,358.441223 4.863105,256.784088 4.752128,155.127075 
	C4.748210,151.537933 5.988869,149.889282 9.089551,148.413727 
	C103.837875,103.325035 198.528976,58.116123 293.267822,13.007456 
	C314.834869,2.738576 337.487244,14.116993 341.498169,36.880589 
	C342.083557,40.202946 341.319183,41.936672 338.120789,43.427860 
	C318.801178,52.435143 299.591187,61.677467 280.002777,70.991302 
z"/>
<path fill="#DD0275" opacity="1.000000" stroke="none" 
	d="
M392.043274,192.058838 
	C396.576965,189.937683 400.767212,187.965988 405.535431,185.722336 
	C405.647888,187.686600 405.796936,189.076828 405.797150,190.467102 
	C405.808044,266.798309 405.769623,343.129517 405.851349,419.460632 
	C405.861938,429.348267 401.928864,436.159210 392.806213,440.427887 
	C365.953552,452.992706 339.249298,465.874573 312.430359,478.512177 
	C310.860107,479.252136 308.216766,479.772919 307.038818,478.973083 
	C293.289307,469.636475 279.725311,460.026733 265.480225,450.046387 
	C267.472809,448.951172 268.815765,448.123413 270.231476,447.448181 
	C295.333588,435.476074 320.371185,423.364655 345.590942,411.645355 
	C355.206360,407.177185 359.582733,400.307068 359.554016,389.701202 
	C359.394592,330.869934 359.533508,272.037872 359.365112,213.206665 
	C359.352661,208.849106 360.694916,206.713959 364.599091,205.003021 
	C373.745209,200.994934 382.679657,196.503830 392.043274,192.058838 
z"/>
<path fill="#030303" opacity="1.000000" stroke="none" 
	d="
M1870.641602,356.713165 
	C1849.941406,365.858856 1829.148804,365.082092 1808.256958,359.322235 
	C1803.038086,357.883392 1797.716064,356.017212 1793.150757,353.198547 
	C1786.391602,349.025452 1785.234009,342.455750 1788.865723,335.344971 
	C1792.180298,328.854889 1797.746338,326.758484 1805.232300,328.923737 
	C1814.933716,331.729828 1824.560059,335.064362 1834.458618,336.814026 
	C1839.962646,337.786926 1846.146240,336.744263 1851.689941,335.315796 
	C1867.091553,331.347290 1873.560181,320.025177 1871.006104,300.648376 
	C1865.579956,304.554718 1860.408813,309.371826 1854.352783,312.444855 
	C1830.194458,324.703430 1800.012329,316.020050 1784.381470,292.834229 
	C1766.997681,267.048279 1768.630859,229.366669 1788.168579,205.450500 
	C1807.931396,181.258743 1843.952759,178.200211 1867.505737,198.707733 
	C1868.484985,199.560379 1869.518066,200.350998 1871.000244,201.556030 
	C1871.257935,199.973343 1871.464600,198.940582 1871.589355,197.898010 
	C1872.501709,190.268433 1878.177612,185.079666 1885.671997,185.043106 
	C1893.357788,185.005615 1899.237915,190.387833 1899.996826,198.165726 
	C1900.093872,199.159668 1900.209717,200.158417 1900.206665,201.154572 
	C1900.090210,238.133041 1900.321167,275.117645 1899.690063,312.087494 
	C1899.342896,332.418976 1889.516113,347.521667 1870.641602,356.713165 
M1838.218262,291.720703 
	C1844.418701,289.607178 1851.393188,288.660065 1856.671997,285.157501 
	C1871.445923,275.355133 1876.671021,253.177856 1869.614624,234.773270 
	C1862.291260,215.672653 1842.130981,206.455048 1823.056030,213.946579 
	C1808.912964,219.501251 1802.244873,231.006378 1800.370483,245.484161 
	C1797.205933,269.928436 1812.179688,292.528534 1838.218262,291.720703 
z"/>
<path fill="#F8D135" opacity="1.000000" stroke="none" 
	d="
M211.679733,412.296814 
	C208.538986,410.060699 205.692551,408.030945 202.867203,405.972260 
	C202.630692,405.799927 202.536026,405.432922 202.063446,404.619080 
	C203.771332,403.726135 205.434067,402.791260 207.150787,401.969116 
	C232.080658,390.029755 256.948334,377.956909 281.989227,366.254852 
	C291.285950,361.910248 295.302185,355.218384 295.228851,345.002258 
	C294.984955,311.015991 295.200806,277.026581 295.046661,243.039230 
	C295.029724,239.309692 296.186707,237.486649 299.569885,235.945709 
	C313.333130,229.676941 326.945709,223.077347 341.479767,216.189316 
	C341.634308,218.479156 341.827637,220.011108 341.828094,221.543137 
	C341.843445,272.691803 341.784454,323.840576 341.889923,374.989014 
	C341.909637,384.561859 337.808716,391.199097 329.296753,395.260468 
	C302.243896,408.168335 275.210663,421.118591 248.059921,433.817413 
	C246.307449,434.637085 243.124130,434.213867 241.455612,433.098511 
	C231.491882,426.437927 221.777557,419.404205 211.679733,412.296814 
z"/>
<path fill="#040404" opacity="1.000000" stroke="none" 
	d="
M699.876038,186.947845 
	C707.986633,190.750534 715.696167,194.471695 723.497925,198.237350 
	C724.395508,192.785767 727.099365,187.615280 733.845215,185.701294 
	C743.317932,183.013596 752.138916,189.225021 752.173706,199.055725 
	C752.294556,233.199234 752.264099,267.343536 752.185303,301.487274 
	C752.167603,309.171326 746.878296,314.849915 739.484924,315.689545 
	C731.526672,316.593323 725.765564,311.901276 723.489563,302.572723 
	C718.572632,305.874939 713.973022,309.731293 708.750427,312.340729 
	C684.332703,324.540833 655.719543,316.735291 639.447632,293.777802 
	C621.873474,268.983032 622.784912,229.934265 641.920471,206.312775 
	C656.887024,187.837646 676.361816,181.723755 699.876038,186.947845 
M680.182434,290.621735 
	C699.039124,295.346100 715.869080,285.885773 722.109863,267.589966 
	C726.198669,255.602798 725.807861,243.612213 720.709106,232.012421 
	C710.741882,209.336853 681.076416,204.284805 664.791931,222.441269 
	C657.549438,230.516312 654.845886,240.316177 654.604126,250.971069 
	C654.178650,269.725220 663.516174,284.568909 680.182434,290.621735 
z"/>
<path fill="#040404" opacity="1.000000" stroke="none" 
	d="
M987.548218,248.999817 
	C986.979736,241.219681 986.944214,233.846390 985.693298,226.685394 
	C984.434509,219.478699 979.863892,214.260529 972.466370,212.597504 
	C952.413269,208.089340 935.862671,218.801758 935.814209,239.698166 
	C935.767456,259.854919 935.872314,280.012238 935.772461,300.168640 
	C935.723145,310.115875 928.762451,316.704102 919.738220,315.688660 
	C913.586426,314.996429 908.910645,310.931122 907.518372,304.861053 
	C907.113403,303.095764 906.979431,301.233429 906.978394,299.415436 
	C906.950073,251.105545 906.931274,202.795639 906.972900,154.485779 
	C906.982727,143.073853 914.540955,136.541840 924.854919,138.803574 
	C931.647705,140.293152 935.742432,145.874634 935.782532,154.091278 
	C935.856445,169.250214 935.804138,184.409790 935.804382,199.569092 
	C935.804443,201.174133 935.804382,202.779160 935.804382,203.426666 
	C942.965637,198.526276 949.808777,192.717987 957.594543,188.767441 
	C970.804565,182.064529 996.476135,182.909683 1007.498657,200.167877 
	C1012.873962,208.584320 1015.336365,218.000732 1015.576965,227.645874 
	C1016.195618,252.448441 1016.193604,277.270966 1016.099670,302.084259 
	C1016.069336,310.105591 1009.602234,315.812469 1001.817322,315.796051 
	C993.990234,315.779541 987.868225,310.214172 987.723572,301.969513 
	C987.416870,284.483917 987.578552,266.990173 987.548218,248.999817 
z"/>
<path fill="#040404" opacity="1.000000" stroke="none" 
	d="
M1290.245239,282.503479 
	C1298.602539,288.424011 1299.346191,296.516144 1292.081055,303.251312 
	C1282.827026,311.830383 1271.354614,315.961090 1259.128906,317.365448 
	C1234.756104,320.165222 1212.998779,314.563690 1196.851440,294.759460 
	C1184.421997,279.515106 1181.483398,261.496307 1183.827393,242.498993 
	C1186.954590,217.155670 1199.780884,198.462662 1223.865356,189.116592 
	C1253.063965,177.786057 1284.415894,191.287735 1298.705200,220.419022 
	C1302.865356,228.900467 1305.269653,237.819138 1305.278931,247.327728 
	C1305.286011,254.544586 1301.220459,259.682678 1294.089233,261.076538 
	C1291.823242,261.519470 1289.465210,261.649078 1287.148926,261.653107 
	C1264.002441,261.693451 1240.856079,261.677582 1217.709595,261.677582 
	C1215.902466,261.677582 1214.095459,261.677612 1212.252686,261.677612 
	C1213.720093,276.784332 1228.203247,290.082764 1244.715210,291.606384 
	C1254.905640,292.546722 1264.581055,290.914276 1273.384644,285.235046 
	C1278.423340,281.984528 1283.838867,280.056580 1290.245239,282.503479 
M1243.514893,211.654694 
	C1242.020630,211.724091 1240.523804,211.760406 1239.032349,211.868027 
	C1224.521362,212.915192 1212.919434,224.099365 1212.593140,237.445877 
	C1233.169312,237.445877 1253.742310,237.445877 1274.658081,237.445877 
	C1274.733887,231.623032 1272.748047,226.888443 1269.092285,222.796066 
	C1262.536499,215.457306 1254.366821,211.631165 1243.514893,211.654694 
z"/>
<path fill="#040404" opacity="1.000000" stroke="none" 
	d="
M1634.080200,201.913269 
	C1663.969238,228.595703 1662.810181,284.653656 1625.505981,308.077240 
	C1587.849731,331.721832 1530.574463,313.235962 1525.252563,259.357605 
	C1522.248657,228.945160 1535.649292,204.186783 1561.056885,191.550735 
	C1584.348877,179.966888 1613.623169,184.045380 1634.080200,201.913269 
M1624.828003,264.074677 
	C1625.162231,257.467072 1626.360352,250.768280 1625.674072,244.268448 
	C1623.318604,221.960236 1602.428101,207.209030 1581.329102,212.658279 
	C1566.487427,216.491470 1557.672241,226.547546 1554.756470,241.287018 
	C1551.453735,257.983704 1554.289795,273.404510 1568.493042,284.439697 
	C1588.719238,300.154510 1616.099243,290.403534 1624.828003,264.074677 
z"/>
<path fill="#050505" opacity="1.000000" stroke="none" 
	d="
M1361.531738,225.796463 
	C1360.222656,231.948120 1358.266968,237.750244 1358.138306,243.592560 
	C1357.724365,262.410889 1357.998779,281.244080 1357.977661,300.071472 
	C1357.967285,309.364532 1352.566040,315.481812 1344.198730,315.771301 
	C1336.118530,316.050873 1330.083984,310.505035 1329.468628,301.476257 
	C1328.982544,294.344269 1329.205933,287.160614 1329.199097,279.999817 
	C1329.175781,255.674118 1329.181641,231.348389 1329.205322,207.022705 
	C1329.207397,204.864761 1329.293823,202.691574 1329.556396,200.551880 
	C1330.609131,191.970337 1336.274170,187.246506 1344.899780,187.654861 
	C1352.490112,188.014206 1357.603027,193.567062 1357.986572,201.862869 
	C1358.029053,202.781525 1358.092163,203.699219 1358.154419,204.766937 
	C1363.274536,200.524490 1367.742798,196.027618 1372.943970,192.664169 
	C1387.458618,183.278336 1403.111816,182.681808 1418.797607,189.052307 
	C1429.435547,193.372757 1435.198486,202.498978 1437.720337,213.337479 
	C1439.408203,220.592361 1440.700684,228.103149 1440.838135,235.524078 
	C1441.241943,257.343079 1441.034058,279.174591 1440.952148,301.000793 
	C1440.923218,308.699646 1436.214233,314.333527 1429.180176,315.584534 
	C1422.455322,316.780548 1415.757446,313.294556 1413.518799,306.865051 
	C1412.506592,303.957794 1412.266357,300.668213 1412.244507,297.548096 
	C1412.104492,277.556427 1412.443604,257.556274 1411.984375,237.573669 
	C1411.633057,222.289047 1406.682617,214.718750 1396.057983,212.507431 
	C1382.173218,209.617538 1368.790527,212.945389 1361.531738,225.796463 
z"/>
<path fill="#030303" opacity="1.000000" stroke="none" 
	d="
M1076.219238,266.000092 
	C1076.159302,278.492828 1076.476685,290.502991 1075.923950,302.472931 
	C1075.452637,312.678131 1065.197021,318.686554 1056.020996,314.577515 
	C1050.072388,311.913757 1047.522095,306.967163 1047.539673,300.519287 
	C1047.581665,285.025116 1047.551880,269.530762 1047.551880,254.036469 
	C1047.551758,236.876129 1047.471436,219.715271 1047.584595,202.555679 
	C1047.648682,192.829819 1053.665039,187.159073 1062.992798,187.645584 
	C1069.612183,187.990814 1074.912720,192.797882 1075.918701,199.426392 
	C1076.161011,201.022888 1076.245605,202.643311 1076.469482,204.936523 
	C1080.190308,201.530762 1083.273804,198.411163 1086.658081,195.661789 
	C1101.823242,183.342056 1125.873169,181.346329 1140.972290,191.281479 
	C1152.044556,198.567123 1156.195068,209.943405 1157.702393,222.329147 
	C1158.764893,231.059586 1159.074585,239.918076 1159.151611,248.724380 
	C1159.307617,266.546021 1159.376343,284.379272 1158.889771,302.191559 
	C1158.613403,312.304108 1149.102173,318.203644 1139.708252,314.898132 
	C1134.046509,312.905884 1130.583496,307.712921 1130.567383,300.845856 
	C1130.523071,282.019562 1130.690186,263.191498 1130.468994,244.367691 
	C1130.401001,238.584244 1129.822388,232.713089 1128.634399,227.059250 
	C1126.989746,219.232010 1121.892456,213.913345 1113.974609,212.406830 
	C1089.956665,207.836990 1075.339111,222.068863 1076.210693,242.009171 
	C1076.276123,243.505768 1076.219116,245.007690 1076.219116,246.507141 
	C1076.219116,252.838120 1076.219238,259.169098 1076.219238,266.000092 
z"/>
<path fill="#040404" opacity="1.000000" stroke="none" 
	d="
M815.588867,222.600891 
	C801.176270,240.090271 801.664124,266.196320 816.427856,281.357819 
	C828.255127,293.503815 849.842468,295.604980 863.729126,285.873291 
	C868.999573,282.179749 874.589233,281.422607 880.119812,284.586029 
	C884.921692,287.332611 886.451599,292.153107 885.856567,297.516449 
	C885.263733,302.859711 881.523193,306.014832 877.305542,308.530792 
	C863.801819,316.586395 848.966248,318.800110 833.555969,317.859863 
	C809.760010,316.407928 792.864746,304.569000 782.864258,283.084656 
	C775.970276,268.273956 774.887390,252.603989 777.801575,236.702454 
	C781.648315,215.712494 792.619324,199.584290 812.369873,190.802521 
	C831.940369,182.100815 851.947327,183.234695 871.564087,191.202805 
	C877.202942,193.493240 881.919678,197.306595 883.882202,203.546707 
	C885.639526,209.134201 883.698792,216.394836 879.638367,219.551315 
	C875.754089,222.570831 868.952148,222.149506 863.724792,218.565536 
	C848.286377,207.980652 828.977295,209.504379 815.588867,222.600891 
z"/>
<path fill="#030303" opacity="1.000000" stroke="none" 
	d="
M577.219360,262.998596 
	C577.224060,268.998016 577.047791,274.505341 577.274475,279.996002 
	C577.645447,288.982056 582.641113,292.459381 591.340942,290.052979 
	C598.970825,287.942505 603.131836,289.137665 605.574585,294.141144 
	C608.467590,300.066833 606.641724,306.757538 600.458374,310.642853 
	C588.138611,318.383850 575.158386,317.219666 562.743347,311.460968 
	C552.201233,306.570953 548.939819,296.620117 548.828918,285.669739 
	C548.616394,264.674713 548.630676,243.677399 548.552551,222.681030 
	C548.545837,220.870789 548.551697,219.060532 548.551697,216.629959 
	C544.354736,216.436172 540.454529,216.255371 536.554260,216.076172 
	C531.852478,215.860153 528.280518,213.702820 525.939026,209.657990 
	C520.900330,200.954056 526.413940,190.652924 536.549438,189.964844 
	C540.333496,189.707947 544.149719,189.923279 548.767822,189.923279 
	C548.767822,183.990341 548.511414,178.536087 548.831055,173.115814 
	C549.256226,165.906906 554.560791,160.699875 561.576294,160.036499 
	C570.189270,159.222046 576.857544,164.971146 577.175903,173.708588 
	C577.363098,178.845200 577.210144,183.994202 577.210144,189.927780 
	C583.466675,189.927780 589.396301,189.694000 595.299622,189.987625 
	C602.493286,190.345428 607.752197,196.082306 607.796692,203.077713 
	C607.841858,210.165512 602.875854,215.453140 595.332336,216.034653 
	C591.353821,216.341339 587.343201,216.239151 583.346741,216.300751 
	C581.542786,216.328568 579.738037,216.305496 577.219360,216.305496 
	C577.219360,231.983734 577.219360,247.241379 577.219360,262.998596 
z"/>
<path fill="#040404" opacity="1.000000" stroke="none" 
	d="
M1757.182007,188.723907 
	C1763.204590,194.339233 1764.414795,200.413300 1761.063354,206.902298 
	C1758.237183,212.374298 1752.045654,214.597534 1744.632812,212.933456 
	C1740.445679,211.993500 1736.195435,210.443024 1732.011475,210.557526 
	C1721.807373,210.836761 1712.888428,219.060974 1709.982910,230.626526 
	C1708.740112,235.573700 1708.133301,240.795593 1708.069092,245.903137 
	C1707.840942,264.053894 1708.097656,282.210419 1707.915283,300.362213 
	C1707.813843,310.458496 1700.296753,317.086365 1691.199463,315.612549 
	C1685.329224,314.661560 1680.850952,310.596069 1679.595215,304.695312 
	C1679.081421,302.280823 1678.982666,299.742584 1678.979492,297.260254 
	C1678.940186,266.782196 1678.948120,236.304062 1678.966431,205.825958 
	C1678.967651,203.832321 1678.979126,201.811569 1679.284912,199.850037 
	C1680.464600,192.281403 1685.816772,187.692261 1693.329224,187.655045 
	C1701.102905,187.616531 1706.553101,192.272232 1707.781494,200.015717 
	C1707.951416,201.086609 1708.060181,202.167191 1708.321533,204.218201 
	C1715.217651,194.716064 1723.609985,188.813660 1734.271606,186.506287 
	C1741.985229,184.836884 1749.729492,183.502548 1757.182007,188.723907 
z"/>
<path fill="#111111" opacity="1.000000" stroke="none" 
	d="
M1572.649170,443.252441 
	C1574.134888,449.755005 1575.518677,455.857117 1576.902588,461.959198 
	C1577.211060,461.921539 1577.519653,461.883850 1577.828247,461.846191 
	C1580.143433,449.637695 1582.457642,437.429016 1584.775024,425.220917 
	C1585.303223,422.438782 1586.147461,419.676544 1586.311523,416.873871 
	C1586.632202,411.394623 1589.409180,410.117523 1594.809204,411.812988 
	C1593.413696,418.822540 1592.035278,425.914398 1590.585205,432.991608 
	C1588.312866,444.083008 1585.717773,455.117737 1583.817383,466.271545 
	C1582.974854,471.216583 1581.000122,473.266174 1576.078613,472.387848 
	C1575.274780,472.244415 1574.423462,472.367706 1572.978760,472.367706 
	C1568.965820,456.304321 1564.953735,440.244568 1560.941650,424.184814 
	C1560.683228,424.159760 1560.424805,424.134705 1560.166504,424.109650 
	C1558.049927,432.875702 1555.941895,441.643860 1553.813354,450.407013 
	C1552.673950,455.098145 1551.483032,459.776733 1550.344116,464.467987 
	C1548.325684,472.781677 1548.334961,472.783936 1539.046265,472.086914 
	C1534.814575,452.140839 1530.550659,432.042206 1526.284790,411.934570 
	C1534.091553,410.418793 1534.163452,410.437897 1535.520874,417.539398 
	C1538.330322,432.236481 1541.101074,446.940979 1544.743408,461.728729 
	C1545.102417,460.490387 1545.508545,459.263519 1545.812988,458.011932 
	C1549.274902,443.782196 1552.721802,429.548798 1556.172119,415.316223 
	C1556.733765,412.999817 1557.184814,411.054016 1560.537964,411.098358 
	C1563.772095,411.141174 1564.795410,412.443085 1565.479736,415.278534 
	C1567.705811,424.501038 1570.172974,433.665314 1572.649170,443.252441 
z"/>
<path fill="#131313" opacity="1.000000" stroke="none" 
	d="
M731.203613,445.606049 
	C732.458008,449.047760 733.578186,452.121002 735.193542,456.552795 
	C737.298523,450.674225 738.934753,446.125305 740.556580,441.571259 
	C743.345215,433.740326 746.113953,425.902252 748.911621,418.074554 
	C751.606445,410.534302 751.617859,410.538391 760.270874,411.683807 
	C760.270874,431.668488 760.270874,451.704041 760.270874,472.059692 
	C758.084351,472.059692 755.999207,472.059692 753.522156,472.059692 
	C753.522156,456.668182 753.522156,441.313477 753.522156,425.958740 
	C753.166138,425.830261 752.810120,425.701752 752.454102,425.573273 
	C751.938293,426.746979 751.358582,427.897156 750.916504,429.098022 
	C746.894836,440.021820 742.978577,450.985718 738.808655,461.852386 
	C738.147034,463.576477 736.375000,464.874390 735.116333,466.369354 
	C733.809021,464.953217 731.932678,463.756744 731.287292,462.085022 
	C727.276001,451.695526 723.550964,441.195648 719.702148,430.742981 
	C719.166809,429.289062 718.473450,427.893341 716.894897,426.659149 
	C716.894897,441.723328 716.894897,456.787506 716.894897,472.109406 
	C714.307617,472.109406 712.238770,472.109406 709.974854,472.109406 
	C709.974854,451.813202 709.974854,431.729767 709.974854,411.677917 
	C718.473816,410.532349 718.488098,410.527161 721.220764,418.037415 
	C724.517944,427.098938 727.787781,436.170441 731.203613,445.606049 
z"/>
<path fill="#101010" opacity="1.000000" stroke="none" 
	d="
M991.552734,432.296692 
	C989.343262,435.441437 987.309998,438.241608 985.276672,441.041748 
	C984.784058,440.638062 984.291443,440.234375 983.798828,439.830688 
	C984.537231,440.160248 985.253845,440.555420 986.017456,440.809021 
	C992.095703,442.828003 996.011536,446.569092 996.353333,453.351379 
	C996.703552,460.298645 994.231079,465.782806 988.012207,469.127808 
	C985.706787,470.367859 983.063782,471.600525 980.533936,471.690765 
	C971.777527,472.003052 963.003235,471.811188 953.992676,471.811188 
	C953.992676,451.864227 953.992676,431.788818 953.992676,410.851562 
	C962.978821,411.310486 971.830627,411.065369 980.444153,412.380768 
	C990.963928,413.987305 995.012085,421.806763 991.552734,432.296692 
M966.471863,443.068268 
	C965.019592,443.135284 963.567322,443.202271 962.019287,443.273712 
	C962.019287,451.055908 962.019287,458.549713 962.019287,466.862183 
	C968.721191,466.159393 975.060791,466.057983 981.115173,464.692291 
	C986.553711,463.465454 989.182434,458.640594 988.725159,453.327393 
	C988.307373,448.473602 985.312073,445.079590 979.781189,444.105774 
	C975.724792,443.391571 971.543152,443.388367 966.471863,443.068268 
M966.470825,417.703949 
	C964.892944,417.703949 963.315063,417.703949 962.060303,417.703949 
	C962.060303,424.700195 962.060303,430.919922 962.060303,437.212585 
	C966.166748,437.212585 969.819214,437.237335 973.470947,437.196259 
	C974.462280,437.185120 975.461182,437.028656 976.439758,436.847778 
	C981.987671,435.822144 985.125183,432.249847 985.134033,426.990814 
	C985.142761,421.805939 982.410217,418.839874 976.420105,418.036835 
	C973.472656,417.641693 970.451355,417.797424 966.470825,417.703949 
z"/>
<path fill="#111111" opacity="1.000000" stroke="none" 
	d="
M1439.832764,413.500488 
	C1439.839600,433.230804 1439.839600,452.510132 1439.839600,471.771210 
	C1434.637939,473.269104 1431.303955,472.470001 1428.602661,467.395721 
	C1421.024536,453.160828 1412.839478,439.249054 1404.890503,425.211670 
	C1404.510986,424.541504 1404.100342,423.889099 1403.410645,422.739227 
	C1403.410645,439.464172 1403.410645,455.495117 1403.410645,471.948486 
	C1401.295166,471.948486 1398.949951,471.948486 1396.366577,471.948486 
	C1396.366577,451.840027 1396.366577,431.925354 1396.366577,411.827057 
	C1401.315063,410.347015 1404.562622,411.188751 1407.292847,416.218231 
	C1415.285767,430.943146 1423.873047,445.345367 1432.627930,460.570496 
	C1432.627930,443.829102 1432.627930,427.773285 1432.627930,410.400879 
	C1435.517700,411.464203 1437.671753,412.256836 1439.832764,413.500488 
z"/>
<path fill="#0E0E0E" opacity="1.000000" stroke="none" 
	d="
M606.509155,427.004517 
	C606.509155,421.559784 606.509155,416.613739 606.509155,412.039490 
	C615.880066,412.039490 624.693481,411.490601 633.403137,412.205078 
	C641.009399,412.829010 645.830994,418.136993 646.835388,424.924805 
	C648.110107,433.539978 644.998962,440.382965 638.142822,443.967590 
	C636.839539,444.648987 635.478394,445.219666 633.673706,446.060547 
	C638.629211,454.659149 643.470154,463.058868 648.464355,471.724579 
	C643.014526,473.221100 639.260681,472.605133 636.898621,467.136139 
	C634.932739,462.584564 632.059265,458.425354 629.592834,454.089539 
	C624.801331,445.666687 624.674927,445.606689 614.391235,447.280487 
	C614.391235,455.307922 614.391235,463.402588 614.391235,471.925079 
	C611.696045,471.925079 609.351624,471.925079 606.509094,471.925079 
	C606.509094,457.053528 606.509094,442.278351 606.509155,427.004517 
M635.939392,420.441345 
	C629.219055,416.270416 621.879211,418.127197 614.576904,417.661530 
	C614.576904,425.471161 614.576904,432.678345 614.576904,439.912567 
	C619.540222,439.912567 624.214478,440.355621 628.774292,439.821533 
	C638.666138,438.662933 642.391357,429.289001 635.939392,420.441345 
z"/>
<path fill="#0D0D0D" opacity="1.000000" stroke="none" 
	d="
M1228.269287,464.798828 
	C1228.251709,467.097595 1228.248413,468.926880 1228.202881,470.755066 
	C1228.195190,471.062073 1228.004761,471.364532 1227.780396,472.009949 
	C1225.658691,472.009949 1223.421997,472.009949 1220.845337,472.009949 
	C1220.845337,452.002563 1220.845337,431.969360 1220.845337,410.777863 
	C1230.309448,411.347595 1239.731689,411.395752 1248.991577,412.646637 
	C1255.659302,413.547302 1259.876343,418.250427 1260.742554,425.155365 
	C1261.671875,432.563629 1260.043701,439.100342 1253.160400,443.305267 
	C1251.489258,444.326202 1249.678955,445.119476 1247.627930,446.174103 
	C1252.538330,454.696442 1257.324707,463.003693 1262.130615,471.344666 
	C1255.711060,473.567139 1254.328003,473.099762 1251.280640,467.781555 
	C1248.636475,463.166840 1246.015137,458.539154 1243.370605,453.924652 
	C1238.784424,445.922485 1238.780273,445.924896 1228.269287,447.187805 
	C1228.269287,452.836945 1228.269287,458.582977 1228.269287,464.798828 
M1228.230469,421.704224 
	C1228.230469,427.786682 1228.230469,433.869141 1228.230469,440.887756 
	C1234.814087,440.180603 1240.673706,440.130829 1246.219360,438.786102 
	C1251.362671,437.538971 1253.315308,433.236847 1253.060181,427.459930 
	C1252.834717,422.353577 1250.123047,419.234009 1245.304932,418.550537 
	C1240.403198,417.855225 1235.389038,417.821198 1230.425415,417.840027 
	C1229.690552,417.842804 1228.962769,419.729980 1228.230469,421.704224 
z"/>
<path fill="#0D0D0D" opacity="1.000000" stroke="none" 
	d="
M777.936096,422.964325 
	C784.046082,412.858307 792.834778,408.953125 803.967163,410.657654 
	C815.116028,412.364746 821.548889,419.576385 824.451416,430.016327 
	C827.064087,439.414124 826.657776,448.837494 822.873962,457.916748 
	C818.746521,467.820526 809.713623,473.863495 799.449219,473.561523 
	C788.489136,473.239105 780.807617,467.781311 776.783203,457.694763 
	C772.188049,446.177856 772.498474,434.620026 777.936096,422.964325 
M817.167725,448.472260 
	C818.551819,440.888580 817.961121,433.499237 814.546509,426.531921 
	C811.681519,420.685944 806.888367,417.347168 800.309937,417.102997 
	C793.697754,416.857574 788.491028,419.817505 785.582153,425.627075 
	C779.988220,436.799347 779.947266,448.301270 786.351501,459.078094 
	C792.686768,469.738739 807.308716,469.312775 813.524536,458.580109 
	C815.159119,455.757812 815.890564,452.412445 817.167725,448.472260 
z"/>
<path fill="#0D0D0D" opacity="1.000000" stroke="none" 
	d="
M1312.868408,467.891052 
	C1298.023682,478.694092 1280.126343,473.678741 1273.737427,456.918091 
	C1269.396606,445.529907 1269.555054,433.969635 1275.285522,423.042786 
	C1283.627686,407.136078 1306.437866,405.758453 1317.151489,420.197083 
	C1326.095337,432.250702 1325.424316,457.676849 1312.868408,467.891052 
M1281.779541,427.528229 
	C1277.839966,437.260620 1277.923096,447.009583 1282.142212,456.572845 
	C1284.902588,462.829285 1289.816406,466.645752 1296.848755,466.706696 
	C1303.872192,466.767609 1308.805420,463.036469 1311.777466,456.871399 
	C1316.027222,448.055756 1316.059326,438.870117 1313.138306,429.709137 
	C1310.895508,422.675720 1306.196045,417.884918 1298.576660,417.168579 
	C1290.965454,416.453003 1285.531372,420.105896 1281.779541,427.528229 
z"/>
<path fill="#0C0C0C" opacity="1.000000" stroke="none" 
	d="
M1492.221680,465.224854 
	C1487.101440,469.991150 1481.203979,472.035645 1474.712524,472.271210 
	C1468.915405,472.481567 1463.104614,472.315430 1456.909180,472.315430 
	C1456.909180,452.085266 1456.909180,432.064087 1456.909180,412.022095 
	C1472.546997,407.799011 1489.768066,412.737366 1496.299316,423.355530 
	C1503.455444,434.989777 1501.667847,454.450470 1492.221680,465.224854 
M1478.271484,465.101624 
	C1491.235962,462.222778 1494.599854,445.553253 1491.470459,432.511627 
	C1488.691895,420.931458 1478.909546,415.819641 1464.647461,418.213135 
	C1464.647461,434.057159 1464.647461,449.914825 1464.647461,466.314514 
	C1469.223145,465.955597 1473.344482,465.632324 1478.271484,465.101624 
z"/>
<path fill="#0D0D0D" opacity="1.000000" stroke="none" 
	d="
M1179.493408,465.007751 
	C1181.964478,465.659241 1184.031982,466.418030 1186.152466,466.619507 
	C1195.435913,467.501526 1198.760620,464.445801 1198.760498,455.275055 
	C1198.760376,452.946991 1198.760498,450.618927 1198.760498,447.605530 
	C1194.551392,447.605530 1190.503906,447.605530 1186.194214,447.605530 
	C1186.194214,445.138489 1186.194214,443.353821 1186.194214,441.204285 
	C1192.447876,441.204285 1198.865234,441.204285 1205.962646,441.204285 
	C1205.962646,449.131104 1206.095093,457.221405 1205.823486,465.298096 
	C1205.781494,466.546722 1204.085938,468.018738 1202.817749,468.904480 
	C1189.214722,478.404663 1169.713989,473.455444 1162.973267,458.386993 
	C1157.818726,446.863831 1157.858032,434.943756 1163.988403,423.716614 
	C1172.339722,408.422211 1193.537598,405.487610 1204.869995,418.062531 
	C1203.633911,419.470398 1202.367676,420.912537 1201.454956,421.952148 
	C1197.449097,420.228088 1194.127808,418.126190 1190.526489,417.384430 
	C1182.271484,415.684174 1174.688843,419.987091 1170.680664,427.534790 
	C1165.234863,437.789734 1166.507935,459.435516 1179.493408,465.007751 
z"/>
<path fill="#111111" opacity="1.000000" stroke="none" 
	d="
M1111.142212,445.999939 
	C1111.142212,434.362152 1111.142212,423.224365 1111.142212,411.661560 
	C1113.791626,411.661560 1116.142822,411.661560 1119.128418,411.661560 
	C1119.128418,421.325439 1119.128418,430.844025 1119.128418,440.362579 
	C1119.485718,440.484161 1119.842896,440.605713 1120.200195,440.727295 
	C1125.254883,434.647461 1130.309326,428.567505 1135.364380,422.487946 
	C1137.173462,420.312164 1139.255127,418.306335 1140.735718,415.926422 
	C1143.525513,411.441895 1147.340332,410.279602 1153.118530,411.793457 
	C1148.970215,416.865814 1145.036133,421.658142 1141.121582,426.466339 
	C1134.445435,434.666534 1134.457520,434.666718 1139.872925,443.948486 
	C1145.220215,453.113495 1150.551636,462.287750 1156.052246,471.736633 
	C1150.637329,473.271027 1147.195068,472.409760 1144.533325,467.140839 
	C1140.118164,458.400970 1134.843506,450.095245 1129.929932,441.605011 
	C1118.082397,448.689941 1117.937378,459.944244 1119.343506,471.962341 
	C1116.406494,471.962341 1114.046509,471.962341 1111.142212,471.962341 
	C1111.142212,463.387085 1111.142212,454.943512 1111.142212,445.999939 
z"/>
<path fill="#141414" opacity="1.000000" stroke="none" 
	d="
M1715.404297,436.423523 
	C1715.729736,427.969238 1715.729736,419.860077 1715.729736,411.494171 
	C1718.724487,411.494171 1720.972778,411.494171 1723.536133,411.494171 
	C1723.536133,431.734192 1723.536133,451.788422 1723.536133,472.111572 
	C1721.125854,472.111572 1718.861206,472.111572 1716.040283,472.111572 
	C1716.040283,462.776520 1716.040283,453.549713 1716.040283,444.033081 
	C1706.421997,444.033081 1697.347046,444.033081 1687.741699,444.033081 
	C1687.741699,453.248749 1687.741699,462.479584 1687.741699,472.039062 
	C1684.980591,472.039062 1682.742798,472.039062 1680.202393,472.039062 
	C1680.202393,451.872833 1680.202393,431.826172 1680.202393,411.551971 
	C1682.685547,411.551971 1684.908936,411.551971 1687.504517,411.551971 
	C1687.504517,419.985748 1687.504517,428.101868 1687.504517,436.768677 
	C1696.937012,436.768677 1706.008057,436.768677 1715.404297,436.423523 
z"/>
<path fill="#0F0F0F" opacity="1.000000" stroke="none" 
	d="
M1345.128296,457.344727 
	C1348.559326,464.797211 1353.365479,467.639343 1360.184082,466.555939 
	C1366.950806,465.480774 1371.346313,461.003418 1371.817383,453.013000 
	C1372.472412,441.902832 1372.322021,430.744904 1372.497192,419.607117 
	C1372.538452,416.984497 1372.503174,414.360687 1372.503174,411.493347 
	C1375.100464,411.493347 1377.177246,411.493347 1378.989502,411.493347 
	C1378.989502,426.623322 1379.882690,441.588196 1378.700928,456.387390 
	C1377.789917,467.795593 1369.279907,473.698914 1357.867798,473.637817 
	C1346.139771,473.575043 1337.911987,467.578094 1337.029419,455.825043 
	C1335.938843,441.301758 1336.768555,426.634247 1336.768555,411.632904 
	C1338.571655,411.632904 1340.938965,411.632904 1343.835205,411.632904 
	C1343.835205,423.219818 1343.743774,434.653839 1343.888672,446.084900 
	C1343.934692,449.713928 1344.610718,453.334991 1345.128296,457.344727 
z"/>
<path fill="#111111" opacity="1.000000" stroke="none" 
	d="
M670.997192,443.725067 
	C669.877075,444.309906 668.732361,444.879456 668.720947,445.470886 
	C668.593323,452.090912 668.640320,458.714325 668.640320,465.769775 
	C678.128906,465.769775 687.211426,465.769775 696.562378,465.769775 
	C696.562378,468.099915 696.562378,469.992767 696.562378,472.127258 
	C684.790955,472.127258 673.177246,472.127258 661.156494,472.127258 
	C661.156494,452.070068 661.156494,431.900696 661.156494,411.509155 
	C672.577332,411.509155 683.961365,411.509155 695.591492,411.509155 
	C695.591492,413.553101 695.591492,415.326752 695.591492,417.710785 
	C686.814575,417.710785 677.945007,417.710785 668.856812,417.710785 
	C668.856812,424.365692 668.856812,430.420654 668.856812,436.884399 
	C676.341614,436.884399 683.601624,436.884399 691.238342,436.884399 
	C691.238342,439.183075 691.238342,441.078674 691.238342,443.719940 
	C684.670837,443.719940 678.084900,443.719940 670.997192,443.725067 
z"/>
<path fill="#0F0F0F" opacity="1.000000" stroke="none" 
	d="
M1042.121338,447.710876 
	C1044.890991,455.906616 1047.532593,463.728149 1050.191162,471.599915 
	C1042.496460,473.239502 1042.516602,473.217346 1040.493286,466.974457 
	C1039.119873,462.736938 1038.794067,456.944092 1035.845459,454.774231 
	C1032.885010,452.595612 1027.254883,454.014252 1022.793274,453.916931 
	C1019.982849,453.855591 1017.169983,453.905487 1014.241516,453.905487 
	C1012.840149,458.254639 1011.050781,462.263184 1010.318909,466.456329 
	C1009.323975,472.157043 1006.256042,473.382080 1000.638977,471.846405 
	C1002.360291,466.698700 1004.065063,461.568298 1005.791077,456.444977 
	C1010.457214,442.594208 1015.222717,428.775787 1019.731262,414.873993 
	C1020.686218,411.929382 1022.162231,411.049255 1025.091309,411.170319 
	C1027.879761,411.285522 1029.999756,411.216309 1031.090454,414.732147 
	C1034.485107,425.674683 1038.325684,436.478882 1042.121338,447.710876 
M1029.094238,430.330353 
	C1028.095093,427.057678 1027.095947,423.784973 1026.096802,420.512299 
	C1025.523682,420.587219 1024.950439,420.662109 1024.377319,420.737030 
	C1021.725769,429.543884 1019.074219,438.350769 1016.399719,447.233978 
	C1022.806091,447.233978 1028.319458,447.233978 1034.344849,447.233978 
	C1032.561157,441.487885 1030.948486,436.292297 1029.094238,430.330353 
z"/>
<path fill="#0F0F0F" opacity="1.000000" stroke="none" 
	d="
M1787.174561,454.457977 
	C1780.528320,454.071259 1774.199341,453.828735 1767.885132,454.037994 
	C1766.585449,454.081085 1764.759644,455.548035 1764.188477,456.815002 
	C1762.830444,459.827209 1761.714355,463.050873 1761.162964,466.301453 
	C1760.232178,471.787354 1757.364624,473.563812 1751.813232,471.900635 
	C1752.012939,470.906677 1752.113159,469.811768 1752.454346,468.797943 
	C1758.450806,450.980011 1764.543091,433.193909 1770.430664,415.340240 
	C1771.410889,412.367645 1772.671875,411.092773 1775.988037,411.117706 
	C1779.301025,411.142639 1780.976074,411.942566 1782.084473,415.322968 
	C1788.241699,434.100494 1794.677979,452.786530 1801.186035,471.998199 
	C1798.243042,471.998199 1795.843506,471.998199 1792.903564,471.998199 
	C1791.165161,466.456177 1789.330933,460.609161 1787.174561,454.457977 
M1775.891724,419.062531 
	C1772.954102,428.423340 1770.016602,437.784149 1767.027466,447.309509 
	C1773.535522,447.309509 1779.076538,447.309509 1785.075806,447.309509 
	C1782.132568,437.493286 1779.329590,428.144897 1775.891724,419.062531 
z"/>
<path fill="#101010" opacity="1.000000" stroke="none" 
	d="
M897.209595,465.834229 
	C905.651123,465.834473 913.609863,465.834473 921.790649,465.834473 
	C921.790649,468.047913 921.790649,469.807281 921.790649,471.966980 
	C910.018982,471.966980 898.313049,471.966980 886.258789,471.966980 
	C886.258789,451.944000 886.258789,431.907776 886.258789,411.553711 
	C897.772705,411.553711 909.183899,411.553711 920.938721,411.553711 
	C920.938721,413.522675 920.938721,415.427490 920.938721,417.849670 
	C911.990662,417.849670 903.104858,417.849670 894.093933,417.849670 
	C894.093933,424.429535 894.093933,430.494019 894.093933,437.053314 
	C901.746399,437.053314 909.156311,437.053314 916.783813,437.053314 
	C916.783813,439.321899 916.783813,441.095917 916.783813,443.355225 
	C909.353333,443.355225 901.953369,443.355225 893.855286,443.355225 
	C893.855286,450.571777 893.781677,457.329895 893.980286,464.079987 
	C893.998169,464.691071 895.769531,465.250549 897.209595,465.834229 
z"/>
<path fill="#111111" opacity="1.000000" stroke="none" 
	d="
M840.924072,420.868561 
	C845.111450,435.087738 849.203796,448.916992 853.756226,464.300659 
	C854.790100,461.432098 855.381104,460.021942 855.810791,458.564209 
	C859.857300,444.834534 864.109802,431.158783 867.783325,417.329437 
	C869.170227,412.108215 871.400635,409.867920 877.086609,411.756775 
	C877.043213,412.323700 877.127502,413.112213 876.908630,413.804901 
	C871.091431,432.212006 865.141663,450.578217 859.493591,469.036774 
	C858.479370,472.351440 856.557922,472.459991 853.922058,472.397217 
	C851.431458,472.337891 849.200562,472.730713 848.143372,469.324188 
	C842.321716,450.564819 836.258850,431.880341 830.300842,413.163116 
	C830.162292,412.727814 830.283386,412.209900 830.283386,411.739899 
	C837.822937,410.533875 837.822937,410.533875 840.924072,420.868561 
z"/>
<path fill="#0E0E0E" opacity="1.000000" stroke="none" 
	d="
M1058.768799,460.160522 
	C1051.770142,445.275574 1053.733276,427.666412 1063.308838,417.710510 
	C1072.897827,407.740753 1089.239258,407.743713 1098.196045,418.072571 
	C1096.977783,419.459290 1095.716553,420.895111 1094.286133,422.523438 
	C1093.075928,421.653168 1092.164307,420.976685 1091.231689,420.330383 
	C1082.920776,414.570740 1072.013062,416.529755 1067.000732,425.341919 
	C1060.878296,436.105499 1060.901733,447.440796 1066.894531,458.224182 
	C1072.145630,467.673126 1083.656494,469.496857 1092.268921,462.894989 
	C1093.315186,462.092987 1094.298218,461.208344 1095.607910,460.113342 
	C1097.027954,461.599976 1098.373901,463.009003 1099.694458,464.391479 
	C1089.039795,478.192749 1068.891846,476.163940 1058.768799,460.160522 
z"/>
<path fill="#060606" opacity="1.000000" stroke="none" 
	d="
M1502.137573,293.923889 
	C1502.307617,295.158630 1502.457275,295.978821 1502.515503,296.805450 
	C1503.585571,311.995544 1493.142212,319.803192 1478.767822,314.562134 
	C1478.301392,314.392059 1477.854980,314.162445 1477.410278,313.938477 
	C1471.405151,310.913116 1469.030518,303.231812 1470.962158,293.092346 
	C1472.148560,286.864685 1476.348389,283.354980 1483.228027,282.841827 
	C1495.007202,281.963196 1499.898560,284.732605 1502.137573,293.923889 
z"/>
<path fill="#141414" opacity="1.000000" stroke="none" 
	d="
M1635.038818,411.223877 
	C1646.492920,411.223877 1657.453003,411.223877 1668.718384,411.223877 
	C1668.718384,413.600464 1668.718384,415.491425 1668.718384,417.781677 
	C1662.832031,417.781677 1657.062500,417.781677 1650.735107,417.781677 
	C1650.735107,436.029907 1650.735107,453.895447 1650.735107,472.065430 
	C1647.906738,472.065430 1645.635376,472.065430 1642.937012,472.065430 
	C1642.937012,454.234741 1642.937012,436.300751 1642.937012,417.913574 
	C1636.588135,417.913574 1630.650391,417.913574 1624.429932,417.913574 
	C1624.429932,415.571960 1624.429932,413.686462 1624.429932,411.223846 
	C1627.969482,411.223846 1631.257202,411.223846 1635.038818,411.223877 
z"/>
<path fill="#070707" opacity="1.000000" stroke="none" 
	d="
M1608.224854,472.329346 
	C1607.063599,471.357086 1605.640869,470.390594 1605.634644,469.415070 
	C1605.514526,450.622894 1605.557251,431.829620 1605.591675,413.036621 
	C1605.592529,412.576630 1605.883423,412.117157 1606.100220,411.477020 
	C1608.222290,411.477020 1610.336182,411.477020 1612.848145,411.477020 
	C1612.848145,431.613403 1612.848145,451.613373 1612.848145,472.003784 
	C1611.487671,472.109100 1610.055176,472.219971 1608.224854,472.329346 
z"/>
<path fill="#111111" opacity="1.000000" stroke="none" 
	d="
M1809.927856,413.410614 
	C1812.304932,412.205139 1814.670532,411.457764 1817.579224,410.538788 
	C1817.579224,431.807251 1817.579224,451.821991 1817.579224,472.102081 
	C1815.122192,472.102081 1812.862427,472.102081 1809.916260,472.102081 
	C1809.916260,452.607544 1809.916260,433.238159 1809.927856,413.410614 
z"/>
<path fill="#FCFCFC" opacity="1.000000" stroke="none" 
	d="
M1837.775391,291.772797 
	C1812.179688,292.528534 1797.205933,269.928436 1800.370483,245.484161 
	C1802.244873,231.006378 1808.912964,219.501251 1823.056030,213.946579 
	C1842.130981,206.455048 1862.291260,215.672653 1869.614624,234.773270 
	C1876.671021,253.177856 1871.445923,275.355133 1856.671997,285.157501 
	C1851.393188,288.660065 1844.418701,289.607178 1837.775391,291.772797 
z"/>
<path fill="#FCFCFC" opacity="1.000000" stroke="none" 
	d="
M679.808655,290.465393 
	C663.516174,284.568909 654.178650,269.725220 654.604126,250.971069 
	C654.845886,240.316177 657.549438,230.516312 664.791931,222.441269 
	C681.076416,204.284805 710.741882,209.336853 720.709106,232.012421 
	C725.807861,243.612213 726.198669,255.602798 722.109863,267.589966 
	C715.869080,285.885773 699.039124,295.346100 679.808655,290.465393 
z"/>
<path fill="#F7F7F7" opacity="1.000000" stroke="none" 
	d="
M1243.991333,211.654449 
	C1254.366821,211.631165 1262.536499,215.457306 1269.092285,222.796066 
	C1272.748047,226.888443 1274.733887,231.623032 1274.658081,237.445877 
	C1253.742310,237.445877 1233.169312,237.445877 1212.593140,237.445877 
	C1212.919434,224.099365 1224.521362,212.915192 1239.032349,211.868027 
	C1240.523804,211.760406 1242.020630,211.724091 1243.991333,211.654449 
z"/>
<path fill="#FCFCFC" opacity="1.000000" stroke="none" 
	d="
M1624.725464,264.473633 
	C1616.099243,290.403534 1588.719238,300.154510 1568.493042,284.439697 
	C1554.289795,273.404510 1551.453735,257.983704 1554.756470,241.287018 
	C1557.672241,226.547546 1566.487427,216.491470 1581.329102,212.658279 
	C1602.428101,207.209030 1623.318604,221.960236 1625.674072,244.268448 
	C1626.360352,250.768280 1625.162231,257.467072 1624.725464,264.473633 
z"/>
<path fill="#F9F9F9" opacity="1.000000" stroke="none" 
	d="
M966.944580,443.068268 
	C971.543152,443.388367 975.724792,443.391571 979.781189,444.105774 
	C985.312073,445.079590 988.307373,448.473602 988.725159,453.327393 
	C989.182434,458.640594 986.553711,463.465454 981.115173,464.692291 
	C975.060791,466.057983 968.721191,466.159393 962.019287,466.862183 
	C962.019287,458.549713 962.019287,451.055908 962.019287,443.273712 
	C963.567322,443.202271 965.019592,443.135284 966.944580,443.068268 
z"/>
<path fill="#FAFAFA" opacity="1.000000" stroke="none" 
	d="
M966.967163,417.703918 
	C970.451355,417.797424 973.472656,417.641693 976.420105,418.036835 
	C982.410217,418.839874 985.142761,421.805939 985.134033,426.990814 
	C985.125183,432.249847 981.987671,435.822144 976.439758,436.847778 
	C975.461182,437.028656 974.462280,437.185120 973.470947,437.196259 
	C969.819214,437.237335 966.166748,437.212585 962.060303,437.212585 
	C962.060303,430.919922 962.060303,424.700195 962.060303,417.703949 
	C963.315063,417.703949 964.892944,417.703949 966.967163,417.703918 
z"/>
<path fill="#F7F7F7" opacity="1.000000" stroke="none" 
	d="
M636.231201,420.713928 
	C642.391357,429.289001 638.666138,438.662933 628.774292,439.821533 
	C624.214478,440.355621 619.540222,439.912567 614.576904,439.912567 
	C614.576904,432.678345 614.576904,425.471161 614.576904,417.661530 
	C621.879211,418.127197 629.219055,416.270416 636.231201,420.713928 
z"/>
<path fill="#F7F7F7" opacity="1.000000" stroke="none" 
	d="
M1228.231201,421.224792 
	C1228.962769,419.729980 1229.690552,417.842804 1230.425415,417.840027 
	C1235.389038,417.821198 1240.403198,417.855225 1245.304932,418.550537 
	C1250.123047,419.234009 1252.834717,422.353577 1253.060181,427.459930 
	C1253.315308,433.236847 1251.362671,437.538971 1246.219360,438.786102 
	C1240.673706,440.130829 1234.814087,440.180603 1228.230469,440.887756 
	C1228.230469,433.869141 1228.230469,427.786682 1228.231201,421.224792 
z"/>
<path fill="#FAFAFA" opacity="1.000000" stroke="none" 
	d="
M817.102234,448.889771 
	C815.890564,452.412445 815.159119,455.757812 813.524536,458.580109 
	C807.308716,469.312775 792.686768,469.738739 786.351501,459.078094 
	C779.947266,448.301270 779.988220,436.799347 785.582153,425.627075 
	C788.491028,419.817505 793.697754,416.857574 800.309937,417.102997 
	C806.888367,417.347168 811.681519,420.685944 814.546509,426.531921 
	C817.961121,433.499237 818.551819,440.888580 817.102234,448.889771 
z"/>
<path fill="#F9F9F9" opacity="1.000000" stroke="none" 
	d="
M1281.933350,427.180328 
	C1285.531372,420.105896 1290.965454,416.453003 1298.576660,417.168579 
	C1306.196045,417.884918 1310.895508,422.675720 1313.138306,429.709137 
	C1316.059326,438.870117 1316.027222,448.055756 1311.777466,456.871399 
	C1308.805420,463.036469 1303.872192,466.767609 1296.848755,466.706696 
	C1289.816406,466.645752 1284.902588,462.829285 1282.142212,456.572845 
	C1277.923096,447.009583 1277.839966,437.260620 1281.933350,427.180328 
z"/>
<path fill="#F7F7F7" opacity="1.000000" stroke="none" 
	d="
M1477.868652,465.205322 
	C1473.344482,465.632324 1469.223145,465.955597 1464.647461,466.314514 
	C1464.647461,449.914825 1464.647461,434.057159 1464.647461,418.213135 
	C1478.909546,415.819641 1488.691895,420.931458 1491.470459,432.511627 
	C1494.599854,445.553253 1491.235962,462.222778 1477.868652,465.205322 
z"/>
<path fill="#EEEEEE" opacity="1.000000" stroke="none" 
	d="
M1029.214966,430.713501 
	C1030.948486,436.292297 1032.561157,441.487885 1034.344849,447.233978 
	C1028.319458,447.233978 1022.806091,447.233978 1016.399719,447.233978 
	C1019.074219,438.350769 1021.725769,429.543884 1024.377319,420.737030 
	C1024.950439,420.662109 1025.523682,420.587219 1026.096802,420.512299 
	C1027.095947,423.784973 1028.095093,427.057678 1029.214966,430.713501 
z"/>
<path fill="#ECECEC" opacity="1.000000" stroke="none" 
	d="
M1776.209106,418.929504 
	C1779.329590,428.144897 1782.132568,437.493286 1785.075806,447.309509 
	C1779.076538,447.309509 1773.535522,447.309509 1767.027466,447.309509 
	C1770.016602,437.784149 1772.954102,428.423340 1776.209106,418.929504 
z"/>
</svg>