<svg width="274" height="204" viewBox="0 0 274 204" fill="none" xmlns="http://www.w3.org/2000/svg">
<path d="M8.45455 93V23.1818H32.0455C37.5 23.1818 41.9773 24.1136 45.4773 25.9773C48.9773 27.8182 51.5682 30.3523 53.25 33.5795C54.9318 36.8068 55.7727 40.4773 55.7727 44.5909C55.7727 48.7045 54.9318 52.3523 53.25 55.5341C51.5682 58.7159 48.9886 61.2159 45.5114 63.0341C42.0341 64.8295 37.5909 65.7273 32.1818 65.7273H13.0909V58.0909H31.9091C35.6364 58.0909 38.6364 57.5455 40.9091 56.4545C43.2045 55.3636 44.8636 53.8182 45.8864 51.8182C46.9318 49.7955 47.4545 47.3864 47.4545 44.5909C47.4545 41.7955 46.9318 39.3523 45.8864 37.2614C44.8409 35.1705 43.1705 33.5568 40.875 32.4205C38.5795 31.2614 35.5455 30.6818 31.7727 30.6818H16.9091V93H8.45455ZM41.3182 61.6364L58.5 93H48.6818L31.7727 61.6364H41.3182ZM69.8608 23.1818H79.9517L103.679 81.1364H104.497L128.224 23.1818H138.315V93H130.406V39.9545H129.724L107.906 93H100.27L78.4517 39.9545H77.7699V93H69.8608V23.1818Z" fill="#852525"/>
<path d="M140.455 200V130.182H164.864C169.727 130.182 173.739 131.023 176.898 132.705C180.057 134.364 182.409 136.602 183.955 139.42C185.5 142.216 186.273 145.318 186.273 148.727C186.273 151.727 185.739 154.205 184.67 156.159C183.625 158.114 182.239 159.659 180.511 160.795C178.807 161.932 176.955 162.773 174.955 163.318V164C177.091 164.136 179.239 164.886 181.398 166.25C183.557 167.614 185.364 169.568 186.818 172.114C188.273 174.659 189 177.773 189 181.455C189 184.955 188.205 188.102 186.614 190.898C185.023 193.693 182.511 195.909 179.08 197.545C175.648 199.182 171.182 200 165.682 200H140.455ZM148.909 192.5H165.682C171.205 192.5 175.125 191.432 177.443 189.295C179.784 187.136 180.955 184.523 180.955 181.455C180.955 179.091 180.352 176.909 179.148 174.909C177.943 172.886 176.227 171.273 174 170.068C171.773 168.841 169.136 168.227 166.091 168.227H148.909V192.5ZM148.909 160.864H164.591C167.136 160.864 169.432 160.364 171.477 159.364C173.545 158.364 175.182 156.955 176.386 155.136C177.614 153.318 178.227 151.182 178.227 148.727C178.227 145.659 177.159 143.057 175.023 140.92C172.886 138.761 169.5 137.682 164.864 137.682H148.909V160.864ZM250.619 152C249.869 149.705 248.881 147.648 247.653 145.83C246.449 143.989 245.006 142.42 243.324 141.125C241.665 139.83 239.778 138.841 237.665 138.159C235.551 137.477 233.233 137.136 230.71 137.136C226.574 137.136 222.813 138.205 219.426 140.341C216.04 142.477 213.347 145.625 211.347 149.784C209.347 153.943 208.347 159.045 208.347 165.091C208.347 171.136 209.358 176.239 211.381 180.398C213.403 184.557 216.142 187.705 219.597 189.841C223.051 191.977 226.938 193.045 231.256 193.045C235.256 193.045 238.778 192.193 241.824 190.489C244.892 188.761 247.278 186.33 248.983 183.193C250.71 180.034 251.574 176.318 251.574 172.045L254.165 172.591H233.165V165.091H259.756V172.591C259.756 178.341 258.528 183.341 256.074 187.591C253.642 191.841 250.278 195.136 245.983 197.477C241.71 199.795 236.801 200.955 231.256 200.955C225.074 200.955 219.642 199.5 214.96 196.591C210.301 193.682 206.665 189.545 204.051 184.182C201.46 178.818 200.165 172.455 200.165 165.091C200.165 159.568 200.903 154.602 202.381 150.193C203.881 145.761 205.994 141.989 208.722 138.875C211.449 135.761 214.676 133.375 218.403 131.716C222.131 130.057 226.233 129.227 230.71 129.227C234.392 129.227 237.824 129.784 241.006 130.898C244.21 131.989 247.062 133.545 249.562 135.568C252.085 137.568 254.188 139.966 255.869 142.761C257.551 145.534 258.71 148.614 259.347 152H250.619Z" fill="#A9B33F"/>
<line x1="8.70329" y1="106.451" x2="264.967" y2="106.451" stroke="black"/>
<path d="M199.209 25.7476L253.645 92.5922H144.773L199.209 25.7476Z" fill="#D9D9D9"/>
<ellipse cx="70.1099" cy="159.437" rx="43.033" ry="44.5631" fill="#D9D9D9"/>
</svg>
